<svg width="1920" height="1052" viewBox="0 0 1920 1052" fill="none" xmlns="http://www.w3.org/2000/svg">
<g clip-path="url(#clip0_25_170)">
<mask id="mask0_25_170" style="mask-type:luminance" maskUnits="userSpaceOnUse" x="0" y="0" width="1920" height="1052">
<path d="M1920 0H0V1052H1920V0Z" fill="white"/>
</mask>
<g mask="url(#mask0_25_170)">
<path d="M-42 0H1987V1080H-42V0Z" fill="#5E3918"/>
<path opacity="0.3" d="M2077.19 141.355V-17H-42.2795V141.355C-28.7439 146.967 -15.3184 152.47 -1.01256 156.101C19.2358 161.163 40.2544 161.053 60.8329 158.302C100.449 152.8 137.314 134.752 174.62 121.547C210.935 108.672 249.34 101.299 287.856 103.61C325.932 105.921 359.826 120.336 392.839 138.494C430.255 159.182 468.66 178.44 509.487 191.206C528.305 197.148 548.333 202.1 568.141 202.54C586.629 202.87 604.896 197.698 622.284 191.756C653.206 181.191 682.588 166.555 715.492 162.924C748.726 159.292 776.677 175.469 807.27 185.043C841.824 195.827 874.727 181.632 904.109 163.584C942.625 139.924 976.519 149.318 1017.46 130.5C1058.5 149.318 1092.29 139.924 1130.8 163.584C1160.18 181.522 1193.09 195.827 1227.64 185.043C1258.35 175.469 1286.19 159.182 1319.42 162.924C1352.21 166.555 1381.71 181.191 1412.63 191.756C1430.02 197.698 1448.28 202.87 1466.77 202.54C1486.58 202.1 1506.5 197.148 1525.42 191.206C1566.25 178.44 1604.66 159.182 1642.07 138.494C1675.09 120.336 1708.98 105.921 1747.06 103.61C1785.68 101.189 1823.98 108.562 1860.29 121.547C1897.71 134.752 1934.46 152.91 1974.08 158.302C1994.66 161.163 2015.68 161.163 2035.92 156.101C2050.23 152.47 2063.77 146.967 2077.19 141.355Z" fill="#C28257"/>
<path d="M-124 568C-124 496.203 -63.2307 438 11.7319 438H924.268C999.231 438 1060 496.203 1060 568C1060 639.797 999.231 698 924.268 698H11.7319C-63.2307 698 -124 639.797 -124 568Z" fill="#FFE8C0"/>
<path d="M1279 475C1279 403.203 1337.2 345 1409 345H1920V1005H1409C1337.2 1005 1279 946.797 1279 875V475Z" fill="#E0B58A"/>
<path d="M-354 876C-354 804.203 -295.797 746 -224 746H1125C1196.8 746 1255 804.203 1255 876C1255 947.797 1196.8 1006 1125 1006H-224C-295.797 1006 -354 947.797 -354 876Z" fill="#FFE8C0"/>
<path opacity="0.3" d="M1941 385.889V366.764C1924.28 369.512 1907.56 371.93 1890.62 373.469C1861.69 375.997 1833.64 372.7 1805.26 367.314C1774.67 361.488 1744.75 355.663 1713.51 353.355C1681.39 351.047 1649.16 348.738 1617.04 346.76C1552.91 342.803 1488.77 339.945 1424.53 340.165C1360.18 340.385 1295.72 343.902 1231.81 352.146C1202.66 355.883 1174.71 359.29 1145.23 357.861C1117.29 356.542 1089.46 352.585 1061.85 348.409C1020.82 342.144 979.898 332.801 938.207 337.088C919.176 339.066 902.566 335.989 883.645 339.286C864.834 335.989 843.824 339.066 824.793 337.088C783.102 332.911 742.18 342.144 701.149 348.409C673.538 352.585 645.707 356.542 617.766 357.861C588.285 359.29 560.344 355.883 531.193 352.146C467.281 343.902 402.929 340.385 338.467 340.165C274.225 339.945 210.093 342.803 145.961 346.76C113.73 348.738 81.6086 351.047 49.4875 353.355C18.3565 355.553 -11.5645 361.488 -42.2555 367.314C-70.6365 372.7 -98.6874 375.997 -127.618 373.469C-144.449 371.93 -161.279 369.512 -178 366.764V385.889C-175.03 388.087 -174.04 391.495 -177.56 396.661C-177.67 396.88 -177.89 396.99 -178 397.21V1079H1940.67V397.21C1940.56 396.99 1940.34 396.88 1940.23 396.661C1937.04 391.495 1938.03 388.087 1941 385.889ZM-174.48 426.007C-177.45 418.203 -172.17 414.027 -164.91 411.609C-144.889 399.738 -122.888 389.736 -99.0174 393.033C-93.6272 393.803 -87.577 395.232 -83.9469 399.628C-80.0968 404.354 -80.9768 410.729 -83.1769 416.005C-90.4371 433.262 -109.138 440.186 -126.518 441.285C-135.429 441.835 -144.449 441.065 -153.249 439.417C-161.389 437.768 -171.07 434.8 -174.48 426.007ZM-35.2153 492.395C-40.3855 502.067 -46.9857 510.53 -56.446 516.136C-71.0765 524.819 -89.2271 529.435 -106.168 529.325C-113.758 529.325 -122.118 528.446 -128.938 524.709C-133.669 522.181 -139.389 518.004 -140.049 512.179C-141.589 499.209 -127.728 488.108 -118.598 481.513C-114.528 478.546 -110.128 475.578 -105.508 472.83C-105.288 472.391 -104.958 472.061 -104.518 471.731C-103.858 471.291 -103.198 470.852 -102.538 470.412C-97.9174 467.335 -93.1872 464.697 -88.237 462.279C-85.1569 460.85 -82.1868 459.421 -78.9967 458.212C-70.1964 454.804 -60.6261 451.397 -51.0558 450.628C-41.7055 449.748 -30.5951 451.837 -28.3951 462.718C-26.305 472.83 -30.4851 483.712 -35.2153 492.395ZM-12.2245 385.01C-14.6446 387.538 -18.1647 389.077 -21.5748 389.846C-28.5051 391.385 -37.8554 391.495 -43.4656 386.329C-45.0056 384.9 -43.6856 382.262 -42.0355 381.602C-37.3054 379.844 -32.5752 377.975 -27.955 375.667C-27.405 375.337 -26.965 375.337 -26.525 375.337C-21.5748 372.15 -15.8547 369.952 -10.2445 370.611C-8.37442 370.831 -8.1544 372.809 -8.81442 374.238C-8.81442 374.348 -8.92442 374.348 -8.92442 374.458C-8.04439 375.008 -7.49438 375.997 -7.49438 377.316C-7.60439 380.174 -10.4645 383.141 -12.2245 385.01ZM66.0981 412.268C57.1878 421.831 42.6673 422.93 33.097 413.587C23.1966 404.025 25.5067 390.725 36.1771 382.921C36.2871 382.812 36.3971 382.812 36.5071 382.702C43.5473 373.579 57.4078 367.644 67.8581 374.238C80.8385 382.372 74.6783 403.035 66.0981 412.268ZM220.433 397.76C216.803 400.727 211.853 401.497 207.343 401.936C193.042 403.145 178.082 400.398 164.331 396.661C157.621 394.902 150.911 392.814 144.641 389.736C140.57 387.758 136.06 385.34 133.53 381.493C132.65 380.174 133.75 378.525 134.74 377.646C144.421 369.182 156.301 365.555 168.511 363.467C175.442 360.279 183.032 357.971 190.292 356.872C197.442 355.773 205.253 355.443 210.643 361.049C216.363 367.094 220.983 375.008 223.073 383.031C224.283 388.087 224.833 394.133 220.433 397.76ZM315.586 381.822C314.706 387.648 308.436 390.615 303.486 392.264C297.106 394.242 290.395 395.122 283.685 395.561C276.535 396.001 268.065 396.661 261.244 394.133C253.874 391.385 251.784 383.911 255.194 376.986C261.464 364.126 278.845 366.764 290.395 368.853C301.506 368.743 317.236 370.172 315.586 381.822ZM535.044 432.052C516.563 435.79 498.412 425.568 488.292 409.96C483.672 402.816 480.702 393.913 484.002 385.559C486.532 379.074 492.252 374.788 498.852 373.359C508.753 371.051 518.543 373.029 528.443 374.128C537.024 372.26 546.924 370.172 555.614 372.7C564.194 375.228 567.935 382.702 567.715 391.385C567.275 410.51 554.074 428.206 535.044 432.052ZM641.747 402.376C632.617 401.607 615.566 395.891 615.786 384.13C615.896 378.415 619.636 372.919 625.576 372.26C628.987 371.82 632.287 372.26 635.697 372.59C636.027 372.48 636.357 372.48 636.577 372.48C646.807 373.469 656.818 369.182 666.388 374.568C670.898 377.096 672.658 381.932 670.018 386.549C665.178 395.122 651.757 403.145 641.747 402.376ZM775.291 429.744C770.671 436.999 765.171 443.813 758.241 449.089C743.28 460.52 723.7 466.785 704.999 465.356C695.429 464.587 686.298 462.059 677.938 457.113C671.888 453.486 665.068 447.99 662.978 440.736C659.458 428.206 672.658 419.632 682.118 415.236C694.549 409.41 707.969 406.003 721.17 402.486C721.72 402.376 722.05 402.376 722.38 402.486C731.18 399.848 740.86 399.738 750.321 400.617C755.381 400.068 760.551 399.958 765.501 400.617C773.201 401.607 781.672 405.234 781.122 414.466C780.792 419.852 778.151 425.128 775.291 429.744ZM780.682 360.609C777.491 369.182 766.601 370.391 758.791 369.842C751.091 369.292 740.64 367.644 734.7 362.038C733.38 360.719 734.26 358.631 735.47 357.751C738.55 355.333 742.18 354.234 745.92 353.465C759.231 347.31 787.832 341.704 780.682 360.609ZM812.913 395.342C807.852 394.242 793.882 390.066 798.502 381.932C801.362 376.986 807.853 376.876 813.353 378.085C813.683 378.085 813.903 378.085 814.233 378.085C816.323 377.646 818.523 377.646 820.613 377.865C821.603 377.975 822.043 378.415 822.263 379.074C826.333 380.284 829.523 382.702 830.403 387.098C832.273 395.781 817.973 396.441 812.913 395.342ZM950.417 395.342C945.357 396.441 931.057 395.781 932.817 387.098C933.697 382.702 936.997 380.284 940.957 379.074C941.177 378.415 941.617 377.975 942.607 377.865C944.697 377.646 946.897 377.756 948.987 378.085C949.317 378.085 949.537 378.085 949.867 378.085C955.367 376.986 961.858 377.096 964.718 381.932C969.448 390.066 955.477 394.242 950.417 395.342ZM1017.41 353.465C1021.15 354.124 1024.78 355.333 1027.86 357.751C1029.07 358.741 1029.95 360.829 1028.63 362.038C1022.69 367.644 1012.24 369.292 1004.54 369.842C996.729 370.391 985.838 369.182 982.648 360.609C975.498 341.704 1004.1 347.31 1017.41 353.465ZM1175.15 471.401C1173.06 478.656 1166.35 484.151 1160.19 487.778C1151.94 492.724 1142.7 495.252 1133.13 496.022C1114.32 497.561 1094.74 491.296 1079.89 479.755C1073.07 474.479 1067.57 467.664 1062.95 460.41C1059.98 455.794 1057.34 450.518 1057.01 445.022C1056.46 435.79 1065.04 432.162 1072.63 431.173C1077.58 430.514 1082.75 430.624 1087.81 431.173C1097.16 430.294 1106.95 430.514 1115.75 433.042C1116.08 432.932 1116.52 432.932 1116.96 433.042C1130.16 436.559 1143.47 439.966 1156.01 445.792C1165.36 450.408 1178.67 458.871 1175.15 471.401ZM1121.58 402.376C1111.57 403.255 1098.15 395.232 1093.2 386.549C1090.56 381.932 1092.32 377.096 1096.83 374.568C1106.4 369.182 1116.41 373.469 1126.64 372.48C1126.97 372.48 1127.3 372.48 1127.52 372.59C1130.82 372.15 1134.23 371.82 1137.64 372.26C1143.47 373.029 1147.32 378.415 1147.43 384.13C1147.65 395.891 1130.71 401.607 1121.58 402.376ZM1275.04 410.07C1265.03 425.678 1246.77 435.899 1228.29 432.162C1209.26 428.315 1196.06 410.619 1195.51 391.495C1195.29 382.812 1199.14 375.337 1207.61 372.809C1216.3 370.281 1226.2 372.37 1234.78 374.238C1244.68 373.139 1254.47 371.161 1264.37 373.469C1270.97 375.008 1276.69 379.294 1279.22 385.669C1282.63 394.023 1279.55 402.816 1275.04 410.07ZM1502.09 394.133C1495.27 396.661 1486.79 396.001 1479.64 395.561C1472.93 395.232 1466.22 394.352 1459.84 392.264C1454.89 390.615 1448.62 387.648 1447.74 381.822C1446.09 370.172 1461.82 368.743 1472.93 368.743C1484.48 366.654 1501.87 364.126 1508.14 376.876C1511.55 383.911 1509.46 391.385 1502.09 394.133ZM1629.91 381.383C1627.38 385.339 1622.87 387.648 1618.8 389.626C1612.53 392.704 1605.82 394.792 1599.11 396.551C1585.36 400.288 1570.4 403.035 1556.1 401.826C1551.59 401.497 1546.53 400.727 1543.01 397.65C1538.61 394.023 1539.16 387.977 1540.48 382.921C1542.68 374.898 1547.19 366.874 1552.91 360.939C1558.3 355.223 1566 355.663 1573.26 356.762C1580.52 357.861 1588.11 360.169 1595.04 363.357C1607.36 365.445 1619.13 369.072 1628.81 377.536C1629.69 378.415 1630.79 380.064 1629.91 381.383ZM1730.23 413.587C1720.66 422.93 1706.14 421.721 1697.23 412.268C1688.65 403.145 1682.49 382.482 1695.47 374.348C1706.03 367.753 1719.78 373.689 1726.82 382.812C1726.93 382.921 1727.04 382.921 1727.15 383.031C1737.82 390.725 1740.13 404.025 1730.23 413.587ZM1775.55 385.01C1773.79 383.141 1770.93 380.284 1770.93 377.426C1770.93 375.997 1771.48 375.118 1772.36 374.568C1772.36 374.458 1772.25 374.458 1772.25 374.348C1771.48 372.919 1771.81 371.051 1773.68 370.721C1779.29 369.952 1785.01 372.15 1789.96 375.447C1790.4 375.447 1790.85 375.447 1791.4 375.777C1796.02 377.975 1800.64 379.844 1805.48 381.712C1807.13 382.372 1808.45 385.01 1806.91 386.439C1801.3 391.605 1791.94 391.385 1785.01 389.956C1781.49 389.077 1777.97 387.538 1775.55 385.01ZM1903.38 512.179C1902.72 518.004 1897 522.181 1892.27 524.709C1885.45 528.336 1877.09 529.216 1869.5 529.325C1852.56 529.435 1834.52 524.709 1819.78 516.136C1810.32 510.53 1803.72 502.067 1798.55 492.395C1793.82 483.712 1789.64 472.72 1791.73 462.718C1793.93 451.727 1804.93 449.748 1814.39 450.628C1823.85 451.507 1833.42 454.804 1842.33 458.212C1845.41 459.421 1848.49 460.74 1851.57 462.279C1856.52 464.697 1861.25 467.444 1865.87 470.412C1866.53 470.852 1867.19 471.291 1867.85 471.731C1868.29 472.061 1868.62 472.391 1868.84 472.83C1873.46 475.578 1877.86 478.656 1881.93 481.513C1891.06 488.218 1904.92 499.209 1903.38 512.179ZM1937.81 426.007C1934.51 434.8 1924.83 437.878 1916.47 439.307C1907.67 440.955 1898.76 441.725 1889.74 441.175C1872.36 440.076 1853.77 433.152 1846.51 415.895C1844.31 410.619 1843.32 404.245 1847.28 399.518C1850.91 395.122 1856.96 393.693 1862.35 392.923C1886.22 389.626 1908.11 399.518 1928.24 411.499C1935.39 414.027 1940.78 418.203 1937.81 426.007Z" fill="#C28257"/>
<path opacity="0.3" d="M1941 638.359V1079H-177.67V638.359C-141.259 626.488 -105.838 608.792 -67.2261 614.838C-41.9253 618.795 -18.1645 630.665 5.15623 640.667C28.257 650.559 52.4578 657.594 76.8786 662.98C127.15 673.971 179.182 675.51 230.334 671.443C278.625 667.706 322.737 648.031 369.928 638.689C395.339 633.633 419.87 634.512 445.281 639.128C471.022 643.855 496.322 651.219 521.843 657.044C538.674 660.891 556.164 664.408 573.545 664.848C587.735 665.288 601.706 662.43 615.896 661.111C632.177 660.671 648.457 661.221 664.628 661.661C691.139 662.32 717.43 662.21 743.831 659.792C770.671 657.264 797.402 653.527 824.353 652.648C843.824 651.988 862.745 653.747 881.555 657.484C900.366 653.857 919.396 652.098 938.757 652.648C965.708 653.527 992.439 657.264 1019.28 659.792C1045.68 662.32 1071.97 662.43 1098.48 661.661C1114.76 661.221 1131.04 660.671 1147.21 661.111C1161.29 662.54 1175.37 665.288 1189.57 664.848C1206.95 664.408 1224.33 660.781 1241.27 657.044C1266.79 651.219 1291.98 643.855 1317.83 639.128C1343.24 634.512 1367.77 633.743 1393.18 638.689C1440.37 648.031 1484.49 667.706 1532.78 671.443C1583.93 675.4 1635.96 673.971 1686.23 662.98C1710.65 657.594 1734.85 650.559 1757.95 640.667C1781.38 630.665 1805.04 618.795 1830.34 614.838C1869.17 608.792 1904.59 626.598 1941 638.359Z" fill="#C28257"/>
<path opacity="0.3" d="M1941 920.835V1079H-177.67V920.835C-164.139 915.23 -150.719 909.734 -136.419 906.107C-116.178 901.051 -95.1671 901.161 -74.5964 903.909C-34.9951 909.404 1.85613 927.43 39.1474 940.62C75.4486 953.479 113.84 960.844 152.341 958.535C190.402 956.227 224.283 941.829 257.284 923.693C294.686 903.029 333.077 883.795 373.888 871.045C392.699 865.109 412.72 860.163 432.52 859.724C451.001 859.394 469.262 864.56 486.642 870.495C517.553 881.047 546.924 895.665 579.815 899.292C613.036 902.919 640.977 886.762 671.558 877.2C706.099 866.428 738.99 880.607 768.361 898.633C806.863 922.264 840.744 955.128 881.665 973.923C922.697 955.128 956.468 922.264 994.969 898.633C1024.34 880.717 1057.23 866.428 1091.77 877.2C1122.46 886.762 1150.29 903.029 1183.52 899.292C1216.3 895.665 1245.78 881.047 1276.69 870.495C1294.07 864.56 1312.33 859.394 1330.81 859.724C1350.61 860.163 1370.52 865.109 1389.44 871.045C1430.25 883.795 1468.64 903.029 1506.05 923.693C1539.05 941.829 1572.93 956.227 1610.99 958.535C1649.6 960.954 1687.88 953.589 1724.18 940.62C1761.58 927.43 1798.33 909.294 1837.93 903.909C1858.5 901.051 1879.51 901.051 1899.75 906.107C1914.05 909.734 1927.58 915.23 1941 920.835Z" fill="#C28257"/>
<path opacity="0.3" d="M622.606 962.053C619.196 961.503 618.866 958.975 618.536 956.117C618.096 951.721 617.656 947.324 617.656 942.818C617.656 938.861 619.526 935.564 623.927 935.014C628.327 934.465 632.397 936.223 636.357 938.312C642.627 940.29 649.557 942.818 644.387 949.962C641.747 953.589 638.007 956.447 634.157 958.645C630.857 960.624 626.677 962.712 622.606 962.053Z" fill="#C28257"/>
<path opacity="0.3" d="M650.767 998.983C645.817 997.555 639.987 995.027 637.237 990.41C634.707 986.124 635.367 981.178 638.557 977.44C642.627 972.714 648.127 969.197 653.737 966.449C656.708 965.02 659.788 963.482 663.088 962.602C666.828 960.294 671.008 958.426 675.078 957.107C680.688 955.348 689.929 953.699 693.229 960.404C695.539 965.13 693.779 970.406 691.579 974.693C688.499 980.518 684.208 985.794 679.368 990.3C675.628 993.927 671.118 997.774 666.058 999.423C660.998 1001.07 655.497 1000.41 650.767 998.983Z" fill="#C28257"/>
<path opacity="0.3" d="M730.85 1062.95C726.34 1066.69 720.51 1068.56 714.68 1069.11C713.36 1069.22 711.929 1069.33 710.499 1069.44C702.029 1070.54 693.009 1072.19 684.539 1070.76C681.128 1070.21 677.058 1069.11 675.188 1065.81C672.988 1062.18 674.088 1057.68 675.848 1054.05C679.588 1046.14 687.729 1039.87 694.659 1034.82C702.689 1028.99 711.819 1023.05 721.61 1021.08C729.53 1019.43 737.45 1021.74 739.21 1030.64C741.19 1041.19 739.54 1055.7 730.85 1062.95Z" fill="#C28257"/>
<path opacity="0.3" d="M750.211 937.542C742.51 945.346 724.91 943.697 721.83 931.936C721.5 930.617 722.71 929.298 723.81 929.079C723.92 929.079 724.03 929.079 724.03 929.079C726.67 926.661 732.61 927.979 735.25 928.529C738.77 929.298 743.28 930.288 746.801 932.266C747.241 932.486 747.681 932.596 748.121 932.816C748.561 933.036 748.891 933.365 749.001 933.695C749.441 934.025 749.881 934.464 750.321 934.904C751.091 935.454 750.981 936.773 750.211 937.542Z" fill="#C28257"/>
<path opacity="0.3" d="M797.072 995.136C780.242 993.927 761.651 987.662 751.861 972.934C751.311 972.165 751.861 971.175 752.301 970.516C759.891 959.744 771.221 953.699 784.422 955.897C791.242 956.997 797.732 959.415 804.002 962.163C810.053 962.822 816.103 963.372 822.153 964.471C830.623 966.119 839.754 968.537 845.804 975.132C846.574 976.012 846.354 977.111 845.584 977.99C834.033 992.169 814.343 996.455 797.072 995.136Z" fill="#C28257"/>
<path opacity="0.3" d="M871.215 1046.36C863.624 1052.07 852.074 1051.52 843.054 1050.75C838.544 1050.42 831.613 1049.54 828.533 1045.7C826.003 1042.62 826.883 1038.77 829.523 1036.02C833.153 1032.29 838.324 1029.65 843.714 1028.44C843.934 1027.45 844.594 1026.57 845.694 1026.46C851.414 1025.91 857.244 1026.35 862.854 1027.45C867.255 1028.44 872.975 1030.09 874.845 1034.82C876.495 1038.99 874.625 1043.83 871.215 1046.36Z" fill="#C28257"/>
<path opacity="0.3" d="M69.2882 1028C55.3177 1030.86 41.6773 1023.16 34.087 1011.4C30.6769 1006.02 28.3668 999.313 30.7869 993.048C32.657 988.212 37.0571 985.025 42.0073 983.816C49.4875 982.057 56.8578 983.596 64.338 984.365C70.8282 982.936 78.3085 981.397 84.7987 983.266C91.1789 985.134 94.149 990.74 93.929 997.335C93.599 1011.73 83.5887 1025.14 69.2882 1028Z" fill="#C28257"/>
<path opacity="0.3" d="M149.701 1005.58C142.771 1005.03 130.01 1000.74 130.23 991.839C130.34 987.552 133.2 983.486 137.6 982.826C140.131 982.496 142.661 982.826 145.191 983.156C145.411 983.046 145.631 983.046 145.851 983.046C153.551 983.815 161.141 980.628 168.291 984.585C171.702 986.453 173.022 990.08 171.042 993.598C167.301 1000.19 157.181 1006.24 149.701 1005.58Z" fill="#C28257"/>
<path opacity="0.3" d="M254.644 1014.59C254.424 1018.77 252.444 1022.72 250.244 1026.24C246.724 1031.74 242.654 1036.9 237.484 1040.86C226.263 1049.54 211.523 1054.27 197.332 1053.06C190.182 1052.51 183.252 1050.53 176.982 1046.8C172.362 1044.05 167.301 1039.87 165.761 1034.49C163.121 1025.03 173.022 1018.66 180.172 1015.25C189.522 1010.85 199.642 1008.33 209.543 1005.69C209.873 1005.58 210.203 1005.58 210.423 1005.69C217.023 1003.71 224.393 1003.6 231.433 1004.26C235.284 1003.82 239.134 1003.82 242.874 1004.26C248.704 1004.92 255.084 1007.67 254.644 1014.59Z" fill="#C28257"/>
<path opacity="0.3" d="M254.314 974.143C251.894 980.628 243.644 981.507 237.814 981.068C231.984 980.628 224.173 979.419 219.663 975.242C218.673 974.253 219.333 972.714 220.213 972.055C222.523 970.296 225.273 969.417 228.133 968.867C238.144 964.141 259.704 959.964 254.314 974.143Z" fill="#C28257"/>
<path opacity="0.3" d="M278.625 1000.3C274.775 999.423 264.325 996.345 267.845 990.19C269.935 986.453 274.885 986.343 278.955 987.223C279.175 987.223 279.395 987.223 279.615 987.223C281.155 986.893 282.805 986.893 284.455 987.003C285.225 987.113 285.555 987.442 285.665 987.992C288.745 988.871 291.165 990.74 291.826 994.037C293.146 1000.63 282.365 1001.18 278.625 1000.3Z" fill="#C28257"/>
<path opacity="0.3" d="M326.147 1066.03C322.297 1069.22 317.786 1069.44 313.936 1067.9C311.736 1067.57 309.536 1067.13 307.446 1066.47C302.826 1065.15 296.116 1062.84 294.576 1057.68C293.146 1053.06 296.556 1048.66 300.186 1046.25C304.916 1042.95 310.526 1040.86 316.136 1039.43C320.646 1038.22 326.257 1036.79 330.987 1037.67C344.957 1040.53 332.307 1060.86 326.147 1066.03Z" fill="#C28257"/>
<path opacity="0.3" d="M347.817 1007.89C338.027 1008.11 327.247 1007.12 318.116 1003.16C313.386 1001.18 306.676 997.994 304.696 992.828C302.716 987.662 306.126 982.606 310.856 980.298C316.466 977.55 323.287 978.65 329.227 979.859C332.637 980.518 335.937 981.507 339.347 982.606C339.567 982.496 339.897 982.387 340.227 982.387C345.947 982.387 351.777 983.376 357.168 985.134C361.678 986.563 368.608 989.421 369.268 995.027C370.368 1006.13 355.408 1007.78 347.817 1007.89Z" fill="#C28257"/>
<path opacity="0.3" d="M394.019 986.453C393.689 985.354 394.679 984.145 395.559 983.705C402.929 979.858 411.729 980.628 420.09 981.397C420.31 981.287 420.53 981.287 420.75 981.287C427.24 981.177 437.91 979.089 440 987.882C441.54 994.477 430.98 997.884 426.36 998.544C415.69 1000.19 398.089 998.763 394.019 986.453Z" fill="#C28257"/>
<path opacity="0.3" d="M510.073 1041.74C503.583 1053.5 491.152 1061.41 477.842 1061.96C467.721 1062.4 458.811 1058.12 450.011 1053.61C440.33 1048.66 429.88 1042.73 423.06 1034.05C417.89 1027.45 416.24 1017.45 424.38 1012.28C428.45 1009.75 433.4 1008.77 438.13 1008.11C444.291 1007.23 450.561 1007.01 456.831 1007.01C459.581 1007.01 462.331 1007.01 465.081 1007.12C465.411 1006.46 465.961 1005.8 466.841 1005.69C469.041 1005.36 471.131 1004.92 473.332 1004.48C483.562 1002.61 497.862 999.203 507.103 1006.13C517.443 1014.04 515.793 1031.52 510.073 1041.74Z" fill="#C28257"/>
<path opacity="0.3" d="M537.354 989.421C533.834 995.576 524.813 994.257 518.983 993.048C515.793 992.389 512.603 991.509 509.633 990.08C508.863 989.641 507.543 989.201 506.993 988.322C506.993 988.212 506.883 988.102 506.883 988.102C505.893 987.552 505.013 986.783 504.243 986.014C503.253 985.024 504.023 983.156 505.233 982.496C505.563 982.167 505.893 981.837 506.223 981.617C512.493 978.54 521.183 977.55 528.003 978.32C531.084 978.649 534.494 979.199 536.584 981.617C538.564 983.486 538.784 987.113 537.354 989.421Z" fill="#C28257"/>
<path opacity="0.3" d="M142.771 774.761C140.681 770.804 135.62 764.209 130.34 765.528C127.59 766.188 126.82 770.145 126.49 772.453C126.05 775.97 126.38 779.707 127.59 782.894C128.69 785.972 131 787.071 134.08 787.291C137.16 787.511 141.561 786.961 143.211 783.884C143.761 783.444 144.201 782.895 144.421 782.125C145.191 779.707 143.871 776.849 142.771 774.761Z" fill="#C28257"/>
<path opacity="0.3" d="M38.7071 817.297C37.167 814.44 33.6469 809.823 29.9068 810.703C27.9267 811.142 27.3767 814 27.1567 815.649C26.8267 818.067 27.1567 820.814 27.9267 823.123C28.6967 825.321 30.3468 826.09 32.5469 826.31C34.7469 826.42 37.937 826.09 39.0371 823.892C39.3671 823.562 39.6971 823.233 39.9171 822.573C40.4671 820.814 39.5871 818.836 38.7071 817.297Z" fill="#C28257"/>
<path opacity="0.3" d="M84.4686 702.988C83.2586 700.79 80.5085 697.162 77.6484 697.932C76.1084 698.261 75.6683 700.46 75.5583 701.779C75.3383 703.647 75.5583 705.736 76.1084 707.604C76.6584 709.253 77.9784 709.912 79.7385 710.022C81.3885 710.132 83.9186 709.802 84.7987 708.154C85.1287 707.934 85.3487 707.604 85.4587 707.164C85.7887 705.736 85.0187 704.197 84.4686 702.988Z" fill="#C28257"/>
<path opacity="0.3" d="M164.331 820.485C164.001 820.155 163.671 819.825 163.121 819.715C161.471 819.166 159.601 820.045 158.171 820.814C155.531 822.243 151.131 825.651 152.011 829.168C152.451 831.036 155.091 831.586 156.631 831.806C158.941 832.136 161.361 831.806 163.561 831.036C165.541 830.267 166.311 828.728 166.531 826.64C166.751 824.661 166.421 821.584 164.331 820.485Z" fill="#C28257"/>
<path opacity="0.3" d="M190.842 891.159C190.622 890.939 190.402 890.719 189.962 890.609C188.752 890.28 187.432 890.939 186.442 891.379C184.572 892.368 181.492 894.786 182.042 897.314C182.372 898.633 184.242 899.073 185.342 899.183C186.992 899.402 188.752 899.183 190.292 898.633C191.722 898.083 192.272 896.984 192.382 895.445C192.602 894.126 192.272 891.928 190.842 891.159Z" fill="#C28257"/>
<path opacity="0.3" d="M113.95 860.273C113.84 860.053 113.62 859.944 113.29 859.834C112.41 859.504 111.31 860.053 110.65 860.493C109.219 861.263 106.799 863.131 107.239 865.109C107.459 866.099 108.889 866.428 109.769 866.538C111.089 866.758 112.41 866.538 113.62 866.099C114.72 865.659 115.16 864.78 115.27 863.681C115.27 862.472 115.16 860.823 113.95 860.273Z" fill="#C28257"/>
<path opacity="0.3" d="M469.701 771.134C467.611 767.177 462.551 760.582 457.271 761.901C454.521 762.561 453.751 766.518 453.421 768.826C452.981 772.233 453.311 775.97 454.521 779.267C455.621 782.345 457.931 783.444 461.011 783.664C464.091 783.884 468.491 783.334 470.141 780.257C470.691 779.817 471.131 779.267 471.351 778.498C472.011 776.08 470.801 773.222 469.701 771.134Z" fill="#C28257"/>
<path opacity="0.3" d="M365.638 813.78C364.098 810.922 360.578 806.306 356.838 807.185C354.858 807.735 354.308 810.483 354.088 812.131C353.758 814.549 353.978 817.297 354.858 819.605C355.628 821.804 357.278 822.573 359.478 822.683C361.678 822.793 364.868 822.463 365.968 820.265C366.298 819.935 366.628 819.496 366.848 818.946C367.288 817.297 366.408 815.209 365.638 813.78Z" fill="#C28257"/>
<path opacity="0.3" d="M411.29 699.471C410.079 697.272 407.329 693.645 404.469 694.305C402.929 694.634 402.489 696.833 402.379 698.152C402.159 700.02 402.379 702.109 402.929 703.977C403.479 705.626 404.799 706.285 406.559 706.395C408.209 706.505 410.739 706.175 411.62 704.527C411.95 704.307 412.169 703.977 412.279 703.537C412.61 702.109 411.95 700.57 411.29 699.471Z" fill="#C28257"/>
<path opacity="0.3" d="M640.317 737.61C639.877 737.061 639.327 736.621 638.557 736.401C636.137 735.632 633.387 736.951 631.297 738.05C627.337 740.248 620.846 745.194 622.166 750.58C622.826 753.438 626.677 754.207 629.097 754.427C632.507 754.867 636.247 754.537 639.437 753.328C642.407 752.229 643.617 749.811 643.837 746.733C643.947 743.766 643.397 739.259 640.317 737.61Z" fill="#C28257"/>
<path opacity="0.3" d="M679.808 842.907C679.478 842.577 679.148 842.248 678.598 842.028C676.838 841.478 674.858 842.467 673.428 843.237C670.568 844.775 665.948 848.293 666.938 852.14C667.378 854.118 670.128 854.668 671.888 854.887C674.308 855.217 676.948 854.888 679.258 854.118C681.348 853.349 682.228 851.7 682.338 849.392C682.448 847.303 682.008 844.116 679.808 842.907Z" fill="#C28257"/>
<path opacity="0.3" d="M565.295 796.854C565.075 796.524 564.745 796.304 564.305 796.194C562.985 795.754 561.444 796.524 560.344 797.073C558.144 798.282 554.514 801.03 555.284 803.998C555.614 805.537 557.814 805.976 559.134 806.196C561.004 806.416 563.095 806.196 564.855 805.537C566.505 804.987 567.165 803.668 567.275 801.91C567.275 800.151 567.055 797.733 565.295 796.854Z" fill="#C28257"/>
<path opacity="0.3" d="M854.824 766.078C852.734 762.121 847.674 755.526 842.394 756.845C839.644 757.505 838.874 761.462 838.544 763.77C838.104 767.177 838.434 770.914 839.644 774.211C840.744 777.289 843.054 778.388 846.134 778.608C849.214 778.828 853.614 778.278 855.264 775.201C855.814 774.761 856.254 774.211 856.474 773.442C857.244 771.024 855.924 768.166 854.824 766.078Z" fill="#C28257"/>
<path opacity="0.3" d="M750.761 808.614C749.221 805.757 745.701 801.14 741.96 802.019C739.98 802.459 739.43 805.317 739.21 806.966C738.88 809.384 739.21 812.131 739.98 814.44C740.75 816.638 742.4 817.407 744.601 817.517C746.801 817.627 749.991 817.297 751.091 815.099C751.421 814.769 751.751 814.33 751.971 813.78C752.521 812.131 751.641 810.153 750.761 808.614Z" fill="#C28257"/>
<path opacity="0.3" d="M796.522 694.305C795.312 692.106 792.562 688.479 789.702 689.139C788.162 689.469 787.722 691.667 787.612 692.986C787.392 694.854 787.612 696.943 788.162 698.811C788.712 700.46 790.032 701.119 791.792 701.229C793.442 701.339 795.972 701.009 796.852 699.361C797.182 699.141 797.402 698.811 797.512 698.372C797.842 697.053 797.072 695.404 796.522 694.305Z" fill="#C28257"/>
<path opacity="0.3" d="M106.469 519.873C104.379 515.916 99.3192 509.321 94.149 510.64C91.3989 511.3 90.6289 515.257 90.2989 517.565C89.8589 521.082 90.1889 524.709 91.3989 528.007C92.4989 531.084 94.809 532.183 97.9991 532.403C101.079 532.623 105.479 532.073 107.129 528.996C107.679 528.556 108.119 528.007 108.339 527.237C108.889 524.819 107.569 521.961 106.469 519.873Z" fill="#C28257"/>
<path opacity="0.3" d="M2.51599 562.519C0.975936 559.661 -2.54418 555.045 -6.2843 555.924C-8.26437 556.364 -8.81439 559.222 -9.03439 560.87C-9.3644 563.289 -9.1444 566.036 -8.26437 568.345C-7.49435 570.543 -5.84429 571.312 -3.64422 571.422C-1.44415 571.532 1.74597 571.202 2.846 569.004C3.17601 568.674 3.50601 568.235 3.72602 567.685C4.16603 565.926 3.28601 563.948 2.51599 562.519Z" fill="#C28257"/>
<path opacity="0.3" d="M48.1675 448.1C46.9574 445.902 44.2073 442.274 41.3472 442.934C39.8072 443.264 39.3672 445.462 39.2572 446.781C39.0372 448.649 39.2572 450.738 39.8072 452.606C40.3572 454.255 41.6772 454.914 43.4373 455.024C45.0874 455.134 47.6174 454.804 48.4975 453.156C48.8275 452.936 49.0475 452.606 49.1575 452.167C49.4875 450.848 48.8275 449.309 48.1675 448.1Z" fill="#C28257"/>
<path opacity="0.3" d="M248.814 439.966C248.374 439.417 247.824 438.977 247.054 438.757C244.634 437.988 241.884 439.307 239.794 440.406C235.834 442.604 229.343 447.55 230.664 452.936C231.324 455.684 235.284 456.563 237.594 456.783C241.004 457.223 244.744 456.893 247.934 455.684C250.904 454.585 252.114 452.167 252.334 449.089C252.334 446.011 251.784 441.505 248.814 439.966Z" fill="#C28257"/>
<path opacity="0.3" d="M288.305 545.263C287.975 544.933 287.645 544.603 286.985 544.383C285.225 543.834 283.245 544.823 281.815 545.593C278.955 547.131 274.335 550.649 275.325 554.495C275.765 556.474 278.515 557.023 280.275 557.243C282.695 557.573 285.335 557.243 287.645 556.474C289.735 555.704 290.615 554.056 290.725 551.748C290.835 549.659 290.505 546.362 288.305 545.263Z" fill="#C28257"/>
<path opacity="0.3" d="M173.792 499.209C173.572 498.88 173.242 498.66 172.802 498.55C171.482 498.11 169.942 498.88 168.731 499.429C166.531 500.638 162.901 503.386 163.671 506.354C164.001 507.892 166.201 508.332 167.521 508.552C169.391 508.772 171.482 508.552 173.242 508.002C174.892 507.453 175.552 506.134 175.662 504.375C175.772 502.507 175.442 499.979 173.792 499.209Z" fill="#C28257"/>
<path opacity="0.3" d="M463.211 468.324C461.121 464.257 456.061 457.772 450.781 459.091C448.031 459.751 447.261 463.707 446.931 466.016C446.491 469.533 446.821 473.16 448.031 476.457C449.131 479.535 451.441 480.634 454.521 480.854C457.601 481.074 462.001 480.524 463.651 477.447C464.201 477.007 464.641 476.457 464.861 475.688C465.631 473.27 464.311 470.412 463.211 468.324Z" fill="#C28257"/>
<path opacity="0.3" d="M359.258 510.97C357.718 508.112 354.198 503.496 350.457 504.375C348.477 504.815 347.927 507.673 347.707 509.321C347.377 511.739 347.597 514.487 348.477 516.795C349.247 518.994 350.897 519.763 353.098 519.873C355.298 519.983 358.488 519.653 359.588 517.455C359.918 517.125 360.248 516.795 360.468 516.136C360.908 514.487 360.028 512.399 359.258 510.97Z" fill="#C28257"/>
<path opacity="0.3" d="M404.909 396.661C403.699 394.462 400.949 390.835 398.089 391.495C396.549 391.824 396.109 394.023 395.999 395.342C395.779 397.21 395.999 399.298 396.549 401.167C397.099 402.816 398.419 403.475 400.179 403.585C401.939 403.695 404.359 403.365 405.239 401.717C405.569 401.497 405.789 401.167 405.899 400.727C406.229 399.298 405.569 397.76 404.909 396.661Z" fill="#C28257"/>
<path opacity="0.3" d="M710.059 606.704C709.289 605.275 708.079 603.407 706.759 601.868C704.339 599.01 701.039 596.702 697.739 597.472C694.989 598.131 694.219 602.088 693.889 604.396C693.449 607.913 693.779 611.54 694.989 614.838C696.089 617.915 698.399 619.014 701.479 619.234C703.019 619.344 704.999 619.234 706.759 618.685C708.409 618.135 709.839 617.256 710.609 615.827C711.159 615.387 711.599 614.838 711.819 614.068C712.479 611.65 711.159 608.793 710.059 606.704Z" fill="#C28257"/>
<path opacity="0.3" d="M781.012 562.519C779.472 559.661 775.952 555.045 772.212 555.924C770.231 556.364 769.681 559.222 769.461 560.87C769.131 563.289 769.351 566.036 770.231 568.345C771.002 570.543 772.652 571.312 774.852 571.422C777.052 571.532 780.242 571.202 781.342 569.004C781.672 568.674 782.002 568.235 782.222 567.685C782.662 565.926 781.782 563.948 781.012 562.519Z" fill="#C28257"/>
<path opacity="0.3" d="M826.663 448.1C825.453 445.902 822.703 442.274 819.843 442.934C818.303 443.264 817.863 445.462 817.753 446.781C817.533 448.649 817.753 450.738 818.303 452.606C818.853 454.255 820.173 454.914 821.933 455.024C823.583 455.134 826.113 454.804 826.883 453.156C827.213 452.936 827.433 452.606 827.543 452.167C827.983 450.848 827.323 449.309 826.663 448.1Z" fill="#C28257"/>
<path opacity="0.3" d="M484.772 514.157C484.442 513.828 484.112 513.498 483.562 513.388C481.912 512.948 480.042 513.718 478.722 514.487C476.082 515.916 471.681 519.323 472.561 522.841C473.001 524.709 475.642 525.259 477.182 525.478C479.492 525.808 481.912 525.478 484.112 524.709C486.092 523.94 486.862 522.401 487.082 520.313C487.192 518.224 486.862 515.257 484.772 514.157Z" fill="#C28257"/>
<path opacity="0.3" d="M511.283 584.831C511.063 584.612 510.843 584.392 510.403 584.282C509.303 583.952 507.873 584.502 506.883 585.051C505.013 586.04 501.932 588.459 502.482 590.987C502.812 592.306 504.683 592.745 505.783 592.855C507.433 593.075 509.193 592.855 510.733 592.306C512.163 591.756 512.713 590.657 512.823 589.118C513.043 587.799 512.823 585.601 511.283 584.831Z" fill="#C28257"/>
<path opacity="0.3" d="M434.5 553.836C434.39 553.616 434.17 553.506 433.84 553.396C432.96 553.177 431.86 553.616 431.2 554.056C429.77 554.825 427.35 556.694 427.79 558.672C428.01 559.661 429.44 559.991 430.32 560.101C431.64 560.211 432.96 560.101 434.17 559.661C435.27 559.222 435.71 558.342 435.82 557.243C435.82 556.144 435.6 554.496 434.5 553.836Z" fill="#C28257"/>
<path opacity="0.3" d="M790.142 464.807C788.052 460.85 782.992 454.255 777.711 455.574C774.961 456.233 774.191 460.19 773.861 462.608C773.421 466.016 773.751 469.753 774.961 473.05C776.061 476.128 778.371 477.227 781.452 477.447C784.532 477.666 788.932 477.117 790.582 474.039C791.132 473.6 791.572 473.05 791.792 472.281C792.562 469.753 791.242 466.895 790.142 464.807Z" fill="#C28257"/>
<path opacity="0.3" d="M686.078 507.453C684.538 504.595 681.018 499.979 677.278 500.858C675.298 501.298 674.748 504.155 674.528 505.804C674.198 508.222 674.418 510.97 675.298 513.278C676.068 515.476 677.718 516.246 679.918 516.356C682.118 516.466 685.308 516.136 686.408 513.938C686.738 513.608 687.068 513.278 687.288 512.619C687.838 510.86 686.848 508.882 686.078 507.453Z" fill="#C28257"/>
<path opacity="0.3" d="M731.84 393.033C730.63 390.835 727.88 387.208 725.02 387.868C723.48 388.197 723.04 390.396 722.93 391.714C722.71 393.583 722.93 395.671 723.59 397.54C724.14 399.189 725.46 399.848 727.22 399.958C728.87 400.068 731.4 399.738 732.28 398.089C732.61 397.87 732.83 397.54 732.94 397.1C733.16 395.781 732.39 394.242 731.84 393.033Z" fill="#C28257"/>
<path opacity="0.3" d="M1140.72 962.053C1144.13 961.503 1144.46 958.975 1144.79 956.117C1145.23 951.721 1145.67 947.324 1145.67 942.818C1145.67 938.861 1143.8 935.564 1139.4 935.014C1135 934.465 1130.93 936.223 1126.97 938.312C1120.7 940.29 1113.77 942.818 1118.94 949.962C1121.58 953.589 1125.32 956.447 1129.17 958.645C1132.47 960.624 1136.65 962.712 1140.72 962.053Z" fill="#C28257"/>
<path opacity="0.3" d="M1112.56 998.983C1117.51 997.555 1123.34 995.027 1126.09 990.41C1128.62 986.124 1127.96 981.178 1124.77 977.44C1120.7 972.714 1115.2 969.197 1109.59 966.449C1106.62 965.02 1103.54 963.482 1100.24 962.602C1096.5 960.294 1092.32 958.426 1088.25 957.107C1082.64 955.348 1073.4 953.699 1070.1 960.404C1067.79 965.13 1069.55 970.406 1071.75 974.693C1074.83 980.518 1079.12 985.794 1083.96 990.3C1087.7 993.927 1092.21 997.774 1097.27 999.423C1102.33 1001.07 1107.83 1000.41 1112.56 998.983Z" fill="#C28257"/>
<path opacity="0.3" d="M1032.48 1062.95C1036.99 1066.69 1042.82 1068.56 1048.65 1069.11C1049.97 1069.22 1051.4 1069.33 1052.83 1069.44C1061.3 1070.54 1070.32 1072.19 1078.79 1070.76C1082.2 1070.21 1086.27 1069.11 1088.14 1065.81C1090.34 1062.18 1089.24 1057.68 1087.48 1054.05C1083.74 1046.14 1075.6 1039.87 1068.67 1034.82C1060.64 1028.99 1051.51 1023.05 1041.72 1021.08C1033.8 1019.43 1025.88 1021.74 1024.12 1030.64C1022.14 1041.19 1023.79 1055.7 1032.48 1062.95Z" fill="#C28257"/>
<path opacity="0.3" d="M1013.12 937.542C1020.82 945.346 1038.42 943.697 1041.5 931.936C1041.83 930.617 1040.62 929.299 1039.52 929.079C1039.41 929.079 1039.3 929.079 1039.3 929.079C1036.66 926.661 1030.72 927.98 1028.08 928.529C1024.56 929.299 1020.05 930.288 1016.53 932.266C1016.09 932.486 1015.65 932.596 1015.21 932.816C1014.77 933.036 1014.44 933.365 1014.33 933.695C1013.89 934.025 1013.45 934.464 1013.01 934.904C1012.13 935.454 1012.35 936.773 1013.12 937.542Z" fill="#C28257"/>
<path opacity="0.3" d="M966.258 995.136C983.088 993.927 1001.68 987.662 1011.47 972.934C1012.02 972.165 1011.47 971.175 1011.03 970.516C1003.44 959.744 992.109 953.699 978.908 955.897C972.088 956.997 965.598 959.415 959.328 962.163C953.277 962.822 947.227 963.372 941.177 964.471C932.707 966.119 923.576 968.537 917.526 975.132C916.756 976.012 916.976 977.111 917.746 977.99C929.297 992.169 948.987 996.455 966.258 995.136Z" fill="#C28257"/>
<path opacity="0.3" d="M892.115 1046.36C899.706 1052.07 911.256 1051.52 920.276 1050.75C924.786 1050.42 931.717 1049.54 934.797 1045.7C937.327 1042.62 936.447 1038.77 933.807 1036.02C930.177 1032.29 925.006 1029.65 919.616 1028.44C919.396 1027.45 918.736 1026.57 917.636 1026.46C911.916 1025.91 906.086 1026.35 900.476 1027.45C896.075 1028.44 890.355 1030.09 888.485 1034.82C886.835 1038.99 888.705 1043.83 892.115 1046.36Z" fill="#C28257"/>
<path opacity="0.3" d="M1871.26 954.579C1877.97 961.723 1888.86 962.602 1896.12 955.568C1903.6 948.314 1901.84 938.421 1893.81 932.486C1893.7 932.376 1893.7 932.376 1893.59 932.376C1888.31 925.452 1877.86 921.055 1869.94 926.001C1860.15 932.156 1864.77 947.654 1871.26 954.579Z" fill="#C28257"/>
<path opacity="0.3" d="M1779.62 988.102C1782.38 990.41 1786.12 990.96 1789.53 991.179C1800.31 992.059 1811.53 989.97 1821.98 987.223C1827.04 985.904 1832.1 984.255 1836.83 981.947C1839.91 980.408 1843.21 978.649 1845.19 975.682C1845.85 974.693 1845.08 973.484 1844.31 972.824C1837.05 966.449 1828.14 963.701 1818.9 962.162C1813.62 959.744 1808.01 958.096 1802.51 957.216C1797.12 956.337 1791.29 956.117 1787.22 960.404C1782.92 964.91 1779.4 970.956 1777.86 977.001C1776.65 980.848 1776.32 985.354 1779.62 988.102Z" fill="#C28257"/>
<path opacity="0.3" d="M1853.88 1052.51C1854.54 1056.91 1859.27 1059.22 1863.01 1060.31C1867.85 1061.85 1872.91 1062.51 1877.86 1062.84C1883.25 1063.17 1889.63 1063.72 1894.8 1061.74C1900.3 1059.66 1901.95 1054.05 1899.31 1048.77C1894.58 1039.1 1881.49 1041.08 1872.8 1042.62C1864.44 1042.73 1852.56 1043.72 1853.88 1052.51Z" fill="#C28257"/>
<path opacity="0.3" d="M1694.04 1028C1708.01 1030.86 1721.65 1023.16 1729.24 1011.4C1732.65 1006.02 1734.96 999.313 1732.54 993.048C1730.67 988.212 1726.27 985.025 1721.32 983.815C1713.84 982.057 1706.47 983.596 1698.99 984.365C1692.5 982.936 1685.02 981.397 1678.53 983.266C1672.15 985.134 1669.18 990.74 1669.4 997.335C1669.73 1011.73 1679.74 1025.14 1694.04 1028Z" fill="#C28257"/>
<path opacity="0.3" d="M1613.63 1005.58C1620.56 1005.03 1633.32 1000.74 1633.1 991.839C1632.99 987.552 1630.13 983.486 1625.73 982.826C1623.2 982.496 1620.67 982.826 1618.14 983.156C1617.92 983.046 1617.7 983.046 1617.48 983.046C1609.78 983.815 1602.19 980.628 1595.04 984.585C1591.63 986.453 1590.31 990.08 1592.29 993.598C1596.03 1000.19 1606.15 1006.24 1613.63 1005.58Z" fill="#C28257"/>
<path opacity="0.3" d="M1508.69 1014.59C1508.91 1018.77 1510.89 1022.72 1513.09 1026.24C1516.61 1031.74 1520.68 1036.9 1525.85 1040.86C1537.07 1049.54 1551.81 1054.27 1566 1053.06C1573.15 1052.51 1580.08 1050.53 1586.35 1046.8C1590.97 1044.05 1596.03 1039.87 1597.57 1034.49C1600.21 1025.03 1590.31 1018.66 1583.16 1015.25C1573.81 1010.85 1563.69 1008.33 1553.79 1005.69C1553.46 1005.58 1553.13 1005.58 1552.91 1005.69C1546.31 1003.71 1538.94 1003.6 1531.9 1004.26C1528.05 1003.82 1524.2 1003.82 1520.46 1004.26C1514.63 1004.92 1508.25 1007.67 1508.69 1014.59Z" fill="#C28257"/>
<path opacity="0.3" d="M1509.02 974.143C1511.44 980.628 1519.69 981.507 1525.52 981.068C1531.35 980.628 1539.16 979.419 1543.67 975.242C1544.66 974.253 1544 972.714 1543.12 972.055C1540.81 970.296 1538.06 969.417 1535.2 968.867C1525.19 964.141 1503.63 959.964 1509.02 974.143Z" fill="#C28257"/>
<path opacity="0.3" d="M1484.7 1000.3C1488.55 999.423 1499.01 996.345 1495.49 990.19C1493.4 986.453 1488.45 986.343 1484.37 987.223C1484.15 987.223 1483.93 987.223 1483.71 987.223C1482.17 986.893 1480.52 986.893 1478.87 987.003C1478.1 987.113 1477.77 987.442 1477.66 987.992C1474.58 988.871 1472.16 990.74 1471.5 994.037C1470.18 1000.63 1480.96 1001.18 1484.7 1000.3Z" fill="#C28257"/>
<path opacity="0.3" d="M1437.18 1066.03C1441.03 1069.22 1445.54 1069.44 1449.39 1067.9C1451.59 1067.57 1453.79 1067.13 1455.88 1066.47C1460.5 1065.15 1467.21 1062.84 1468.75 1057.68C1470.18 1053.06 1466.77 1048.66 1463.14 1046.25C1458.41 1042.95 1452.8 1040.86 1447.19 1039.43C1442.68 1038.22 1437.07 1036.79 1432.34 1037.67C1418.37 1040.53 1431.02 1060.86 1437.18 1066.03Z" fill="#C28257"/>
<path opacity="0.3" d="M1415.51 1007.89C1425.3 1008.11 1436.08 1007.12 1445.21 1003.16C1449.94 1001.18 1456.65 997.994 1458.63 992.828C1460.61 987.662 1457.2 982.606 1452.47 980.298C1446.86 977.55 1440.04 978.649 1434.1 979.859C1430.69 980.518 1427.39 981.507 1423.98 982.606C1423.76 982.496 1423.43 982.386 1423.1 982.386C1417.38 982.386 1411.55 983.376 1406.16 985.134C1401.65 986.563 1394.72 989.421 1394.06 995.026C1392.96 1006.13 1407.92 1007.78 1415.51 1007.89Z" fill="#C28257"/>
<path opacity="0.3" d="M1369.31 986.453C1369.64 985.354 1368.65 984.145 1367.77 983.705C1360.4 979.858 1351.6 980.628 1343.24 981.397C1343.02 981.287 1342.8 981.287 1342.58 981.287C1336.09 981.177 1325.42 979.089 1323.33 987.882C1321.79 994.477 1332.35 997.884 1336.97 998.544C1347.64 1000.19 1365.24 998.763 1369.31 986.453Z" fill="#C28257"/>
<path opacity="0.3" d="M1253.26 1041.74C1259.75 1053.5 1272.18 1061.41 1285.49 1061.96C1295.61 1062.4 1304.52 1058.12 1313.32 1053.61C1323 1048.66 1333.45 1042.73 1340.27 1034.05C1345.44 1027.45 1347.09 1017.45 1338.95 1012.28C1334.88 1009.75 1329.93 1008.77 1325.2 1008.11C1319.04 1007.23 1312.77 1007.01 1306.5 1007.01C1303.75 1007.01 1301 1007.01 1298.25 1007.12C1297.92 1006.46 1297.37 1005.8 1296.49 1005.69C1294.29 1005.36 1292.2 1004.92 1290 1004.48C1279.77 1002.61 1265.47 999.203 1256.23 1006.13C1245.89 1014.04 1247.54 1031.52 1253.26 1041.74Z" fill="#C28257"/>
<path opacity="0.3" d="M1225.98 989.421C1229.5 995.576 1238.52 994.257 1244.35 993.048C1247.54 992.388 1250.73 991.509 1253.7 990.08C1254.47 989.641 1255.79 989.201 1256.34 988.322C1256.34 988.212 1256.45 988.102 1256.45 988.102C1257.44 987.552 1258.32 986.783 1259.09 986.014C1260.08 985.024 1259.31 983.156 1258.1 982.496C1257.77 982.167 1257.44 981.837 1257.11 981.617C1250.84 978.539 1242.15 977.55 1235.33 978.32C1232.25 978.649 1228.84 979.199 1226.75 981.617C1224.77 983.486 1224.55 987.113 1225.98 989.421Z" fill="#C28257"/>
<path opacity="0.3" d="M1831.66 755.526C1831.88 758.714 1832.98 761.022 1836.06 762.121C1839.25 763.33 1842.99 763.66 1846.4 763.22C1848.71 762.89 1852.67 762.121 1853.33 759.373C1854.65 754.097 1848.16 749.041 1844.2 746.843C1842.11 745.744 1839.36 744.425 1836.94 745.194C1836.17 745.414 1835.62 745.854 1835.18 746.404C1831.99 747.942 1831.44 752.449 1831.66 755.526Z" fill="#C28257"/>
<path opacity="0.3" d="M1793.16 858.185C1793.27 860.383 1794.15 862.142 1796.24 862.911C1798.55 863.79 1801.19 864.01 1803.61 863.68C1805.26 863.461 1808.01 862.911 1808.56 860.933C1809.44 857.086 1804.82 853.568 1802.07 852.03C1800.64 851.26 1798.55 850.271 1796.9 850.821C1796.35 850.931 1795.91 851.26 1795.69 851.7C1793.38 852.799 1792.94 855.987 1793.16 858.185Z" fill="#C28257"/>
<path opacity="0.3" d="M1908.22 810.593C1908.33 812.351 1908.99 813.67 1910.64 814.22C1912.4 814.879 1914.49 815.099 1916.36 814.769C1917.68 814.549 1919.77 814.22 1920.21 812.571C1920.87 809.603 1917.35 806.856 1915.15 805.647C1914.05 804.987 1912.4 804.328 1911.08 804.657C1910.64 804.767 1910.31 804.987 1910.09 805.317C1908.33 806.416 1908.11 808.834 1908.22 810.593Z" fill="#C28257"/>
<path opacity="0.3" d="M1618.91 782.125C1619.13 782.895 1619.57 783.444 1620.12 783.884C1621.66 786.961 1626.17 787.511 1629.25 787.291C1632.33 787.071 1634.75 785.972 1635.74 782.894C1636.95 779.597 1637.28 775.86 1636.84 772.453C1636.51 770.145 1635.74 766.188 1632.99 765.528C1627.71 764.209 1622.76 770.804 1620.56 774.761C1619.46 776.849 1618.14 779.707 1618.91 782.125Z" fill="#C28257"/>
<path opacity="0.3" d="M1723.41 822.573C1723.63 823.123 1723.85 823.562 1724.29 823.892C1725.39 826.09 1728.58 826.53 1730.78 826.31C1732.98 826.2 1734.63 825.321 1735.4 823.123C1736.28 820.815 1736.5 818.177 1736.17 815.649C1735.95 814 1735.4 811.142 1733.42 810.703C1729.68 809.823 1726.16 814.44 1724.62 817.297C1723.74 818.836 1722.86 820.815 1723.41 822.573Z" fill="#C28257"/>
<path opacity="0.3" d="M1677.98 707.055C1678.09 707.494 1678.31 707.824 1678.64 708.044C1679.52 709.693 1681.94 710.022 1683.7 709.912C1685.46 709.802 1686.67 709.143 1687.33 707.494C1687.99 705.626 1688.21 703.647 1687.88 701.669C1687.66 700.35 1687.33 698.152 1685.79 697.822C1682.93 697.053 1680.18 700.68 1678.97 702.878C1678.2 704.197 1677.54 705.736 1677.98 707.055Z" fill="#C28257"/>
<path opacity="0.3" d="M1596.69 826.64C1596.8 828.728 1597.57 830.377 1599.66 831.036C1601.86 831.806 1604.28 832.136 1606.59 831.806C1608.13 831.586 1610.77 831.036 1611.21 829.168C1612.09 825.541 1607.69 822.243 1605.05 820.814C1603.62 820.045 1601.75 819.166 1600.1 819.715C1599.55 819.935 1599.22 820.155 1598.89 820.485C1596.91 821.584 1596.58 824.661 1596.69 826.64Z" fill="#C28257"/>
<path opacity="0.3" d="M1570.84 895.555C1570.95 897.094 1571.5 898.193 1572.93 898.743C1574.47 899.292 1576.23 899.512 1577.88 899.292C1578.98 899.182 1580.85 898.743 1581.18 897.424C1581.84 894.896 1578.65 892.478 1576.78 891.489C1575.79 890.939 1574.47 890.389 1573.26 890.719C1572.93 890.829 1572.6 891.049 1572.38 891.269C1570.95 891.928 1570.73 894.126 1570.84 895.555Z" fill="#C28257"/>
<path opacity="0.3" d="M1648.06 863.681C1648.17 864.89 1648.61 865.769 1649.71 866.099C1650.92 866.538 1652.24 866.648 1653.56 866.538C1654.44 866.428 1655.87 866.099 1656.09 865.109C1656.53 863.131 1654.11 861.263 1652.68 860.493C1651.91 860.053 1650.92 859.614 1650.04 859.834C1649.71 859.944 1649.49 860.053 1649.38 860.273C1648.17 860.823 1648.06 862.472 1648.06 863.681Z" fill="#C28257"/>
<path opacity="0.3" d="M1291.98 778.498C1292.2 779.268 1292.64 779.817 1293.19 780.257C1294.73 783.334 1299.24 783.884 1302.32 783.664C1305.4 783.444 1307.82 782.345 1308.81 779.268C1310.02 775.97 1310.35 772.233 1309.91 768.826C1309.58 766.518 1308.81 762.561 1306.06 761.901C1300.78 760.582 1295.83 767.177 1293.63 771.134C1292.53 773.222 1291.32 776.08 1291.98 778.498Z" fill="#C28257"/>
<path opacity="0.3" d="M1396.48 818.946C1396.59 819.496 1396.92 819.935 1397.36 820.265C1398.46 822.463 1401.65 822.793 1403.85 822.683C1406.05 822.573 1407.7 821.694 1408.47 819.606C1409.35 817.297 1409.57 814.659 1409.24 812.131C1409.02 810.483 1408.47 807.625 1406.49 807.185C1402.75 806.306 1399.23 810.922 1397.69 813.78C1396.92 815.209 1396.04 817.297 1396.48 818.946Z" fill="#C28257"/>
<path opacity="0.3" d="M1351.05 703.538C1351.16 703.977 1351.38 704.307 1351.71 704.527C1352.59 706.175 1355.01 706.505 1356.77 706.395C1358.53 706.285 1359.74 705.626 1360.4 703.977C1361.06 702.219 1361.28 700.13 1360.95 698.152C1360.73 696.833 1360.4 694.635 1358.86 694.305C1356 693.645 1353.25 697.163 1352.04 699.471C1351.38 700.57 1350.72 702.109 1351.05 703.538Z" fill="#C28257"/>
<path opacity="0.3" d="M1119.6 746.843C1119.82 750.031 1120.92 752.339 1124 753.438C1127.19 754.647 1130.93 754.977 1134.34 754.537C1136.65 754.207 1140.61 753.438 1141.27 750.69C1142.59 745.414 1136.1 740.358 1132.14 738.16C1130.05 737.061 1127.3 735.742 1124.88 736.511C1124.11 736.731 1123.56 737.171 1123.12 737.72C1119.93 739.259 1119.38 743.766 1119.6 746.843Z" fill="#C28257"/>
<path opacity="0.3" d="M1080.99 849.502C1081.1 851.7 1081.98 853.459 1084.07 854.228C1086.38 855.107 1089.02 855.327 1091.44 854.997C1093.09 854.777 1095.84 854.228 1096.39 852.25C1097.27 848.403 1092.65 844.885 1089.9 843.347C1088.47 842.577 1086.38 841.588 1084.73 842.138C1084.18 842.357 1083.74 842.577 1083.52 843.017C1081.32 844.116 1080.88 847.303 1080.99 849.502Z" fill="#C28257"/>
<path opacity="0.3" d="M1196.17 801.909C1196.28 803.668 1196.94 804.987 1198.59 805.537C1200.35 806.196 1202.44 806.416 1204.31 806.196C1205.63 805.976 1207.72 805.537 1208.16 803.998C1208.82 801.03 1205.3 798.282 1203.1 797.073C1202 796.414 1200.46 795.754 1199.14 796.194C1198.7 796.304 1198.37 796.524 1198.15 796.853C1196.28 797.733 1196.06 800.151 1196.17 801.909Z" fill="#C28257"/>
<path opacity="0.3" d="M906.856 773.442C907.076 774.212 907.516 774.761 908.066 775.201C909.606 778.278 914.116 778.828 917.196 778.608C920.276 778.388 922.696 777.289 923.686 774.212C924.896 770.914 925.226 767.177 924.786 763.77C924.456 761.352 923.686 757.505 920.936 756.845C915.656 755.526 910.706 762.121 908.506 766.078C907.406 768.166 906.086 771.024 906.856 773.442Z" fill="#C28257"/>
<path opacity="0.3" d="M1011.36 813.89C1011.58 814.44 1011.8 814.879 1012.24 815.209C1013.34 817.407 1016.53 817.737 1018.73 817.627C1020.93 817.517 1022.58 816.638 1023.35 814.549C1024.23 812.241 1024.45 809.603 1024.12 807.075C1023.9 805.427 1023.35 802.569 1021.37 802.129C1017.63 801.25 1014.11 805.866 1012.57 808.724C1011.69 810.153 1010.81 812.131 1011.36 813.89Z" fill="#C28257"/>
<path opacity="0.3" d="M965.928 698.372C966.038 698.811 966.258 699.141 966.588 699.361C967.468 701.009 969.888 701.339 971.648 701.229C973.408 701.119 974.618 700.46 975.278 698.811C975.938 696.943 976.158 694.964 975.828 692.986C975.718 691.667 975.278 689.469 973.738 689.139C970.878 688.369 968.128 691.997 966.918 694.305C966.148 695.404 965.488 697.053 965.928 698.372Z" fill="#C28257"/>
<path opacity="0.3" d="M1848.27 472.171C1848.49 472.94 1848.93 473.49 1849.48 473.929C1851.02 477.007 1855.53 477.556 1858.61 477.337C1861.69 477.117 1864.11 476.018 1865.1 472.94C1865.43 472.061 1865.65 471.291 1865.87 470.302C1866.42 467.774 1866.53 465.026 1866.2 462.388C1865.87 459.97 1865.1 456.123 1862.35 455.354C1858.17 454.255 1854.1 458.322 1851.57 462.059C1850.91 462.938 1850.47 463.817 1850.03 464.587C1848.82 466.895 1847.5 469.753 1848.27 472.171Z" fill="#C28257"/>
<path opacity="0.3" d="M1907.34 397.1C1907.45 397.54 1907.67 397.87 1908 398.089C1908.88 399.738 1911.3 400.068 1913.06 399.958C1914.82 399.848 1916.03 399.189 1916.69 397.54C1917.35 395.671 1917.57 393.693 1917.35 391.714C1917.13 390.396 1916.69 388.197 1915.26 387.868C1912.4 387.098 1909.65 390.725 1908.44 393.033C1907.56 394.242 1906.9 395.781 1907.34 397.1Z" fill="#C28257"/>
<path opacity="0.3" d="M1655.1 527.237C1655.32 528.006 1655.76 528.556 1656.31 528.996C1657.85 532.073 1662.36 532.623 1665.44 532.403C1668.52 532.183 1670.94 531.084 1672.04 528.006C1673.14 524.709 1673.58 520.972 1673.14 517.565C1672.81 515.147 1672.04 511.3 1669.29 510.64C1664.01 509.321 1659.06 515.916 1656.97 519.873C1655.65 521.961 1654.44 524.819 1655.1 527.237Z" fill="#C28257"/>
<path opacity="0.3" d="M1759.6 567.685C1759.82 568.235 1760.04 568.674 1760.48 569.004C1761.58 571.202 1764.77 571.532 1766.97 571.422C1769.17 571.312 1770.82 570.433 1771.59 568.345C1772.47 566.036 1772.69 563.398 1772.36 560.87C1772.14 559.222 1771.59 556.364 1769.61 555.924C1765.87 555.045 1762.35 559.661 1760.81 562.519C1760.04 563.948 1759.16 565.926 1759.6 567.685Z" fill="#C28257"/>
<path opacity="0.3" d="M1714.17 452.167C1714.28 452.606 1714.5 452.936 1714.83 453.156C1715.71 454.914 1718.13 455.134 1719.89 455.024C1721.65 454.914 1722.86 454.255 1723.52 452.606C1724.18 450.848 1724.4 448.759 1724.07 446.781C1723.85 445.462 1723.52 443.264 1721.98 442.934C1719.12 442.274 1716.37 445.792 1715.16 448.1C1714.5 449.309 1713.84 450.848 1714.17 452.167Z" fill="#C28257"/>
<path opacity="0.3" d="M1511.11 449.199C1511.33 452.386 1512.43 454.695 1515.51 455.794C1518.81 457.003 1522.44 457.332 1525.85 456.893C1528.16 456.563 1532.12 455.794 1532.78 453.046C1534.1 447.77 1527.61 442.714 1523.65 440.516C1521.56 439.417 1518.81 438.098 1516.39 438.867C1515.62 439.087 1515.07 439.527 1514.63 440.076C1511.55 441.505 1511 446.011 1511.11 449.199Z" fill="#C28257"/>
<path opacity="0.3" d="M1472.6 551.858C1472.71 554.056 1473.59 555.814 1475.68 556.584C1477.99 557.463 1480.63 557.683 1483.05 557.353C1484.7 557.133 1487.45 556.584 1488.01 554.605C1488.89 550.868 1484.26 547.241 1481.51 545.702C1480.08 544.933 1478.1 543.944 1476.34 544.493C1475.79 544.713 1475.35 544.933 1475.02 545.373C1472.82 546.362 1472.49 549.659 1472.6 551.858Z" fill="#C28257"/>
<path opacity="0.3" d="M1587.67 504.265C1587.78 506.024 1588.44 507.343 1590.09 507.892C1591.85 508.552 1593.94 508.772 1595.81 508.442C1597.13 508.222 1599.22 507.892 1599.66 506.244C1600.43 503.276 1596.8 500.528 1594.6 499.319C1593.5 498.66 1591.96 498 1590.53 498.44C1590.09 498.55 1589.76 498.77 1589.54 499.099C1587.89 499.979 1587.56 502.507 1587.67 504.265Z" fill="#C28257"/>
<path opacity="0.3" d="M1298.36 475.688C1298.58 476.457 1299.02 477.007 1299.57 477.447C1301.11 480.524 1305.62 481.074 1308.7 480.854C1311.78 480.634 1314.2 479.535 1315.19 476.457C1316.4 473.16 1316.73 469.423 1316.29 466.016C1315.96 463.597 1315.19 459.751 1312.44 459.091C1307.16 457.772 1302.21 464.367 1300.01 468.324C1298.91 470.412 1297.7 473.27 1298.36 475.688Z" fill="#C28257"/>
<path opacity="0.3" d="M1402.86 516.246C1403.08 516.795 1403.3 517.235 1403.74 517.565C1404.84 519.763 1408.03 520.203 1410.23 519.983C1412.43 519.873 1414.08 518.994 1414.85 516.905C1415.73 514.597 1415.95 511.959 1415.62 509.431C1415.4 507.783 1414.85 504.925 1412.87 504.485C1409.13 503.606 1405.61 508.222 1404.07 511.08C1403.3 512.399 1402.42 514.487 1402.86 516.246Z" fill="#C28257"/>
<path opacity="0.3" d="M1357.43 400.727C1357.54 401.167 1357.76 401.497 1358.09 401.717C1358.97 403.475 1361.39 403.695 1363.15 403.585C1364.91 403.475 1366.12 402.816 1366.78 401.167C1367.44 399.408 1367.66 397.32 1367.33 395.342C1367.22 394.023 1366.78 391.824 1365.24 391.495C1362.38 390.835 1359.52 394.462 1358.42 396.661C1357.76 397.76 1357.1 399.298 1357.43 400.727Z" fill="#C28257"/>
<path opacity="0.3" d="M1176.91 509.651C1177.13 510.42 1177.57 510.97 1178.12 511.41C1178.9 512.948 1180.33 513.828 1181.98 514.267C1183.74 514.817 1185.72 514.927 1187.26 514.817C1190.34 514.597 1192.76 513.498 1193.75 510.42C1194.96 507.123 1195.29 503.386 1194.85 499.979C1194.52 497.561 1193.75 493.714 1191 493.054C1187.7 492.175 1184.4 494.593 1181.98 497.451C1180.55 499.099 1179.45 500.858 1178.68 502.287C1177.57 504.375 1176.25 507.233 1176.91 509.651Z" fill="#C28257"/>
<path opacity="0.3" d="M1057.12 609.452C1057.34 610.002 1057.56 610.441 1058 610.771C1059.1 612.969 1062.29 613.299 1064.49 613.189C1066.69 613.079 1068.34 612.2 1069.11 610.111C1069.99 607.803 1070.21 605.165 1069.88 602.637C1069.66 600.989 1069.11 598.131 1067.13 597.691C1063.39 596.812 1059.87 601.428 1058.33 604.286C1057.45 605.715 1056.57 607.693 1057.12 609.452Z" fill="#C28257"/>
<path opacity="0.3" d="M935.677 452.167C935.787 452.606 936.007 452.936 936.337 453.156C937.217 454.914 939.637 455.134 941.287 455.024C943.047 454.914 944.367 454.255 944.917 452.606C945.577 450.848 945.797 448.759 945.467 446.781C945.247 445.462 944.917 443.264 943.377 442.934C940.517 442.274 937.767 445.792 936.557 448.1C936.007 449.309 935.347 450.848 935.677 452.167Z" fill="#C28257"/>
<path opacity="0.3" d="M1276.25 520.313C1276.36 522.401 1277.13 524.05 1279.22 524.709C1281.42 525.478 1283.84 525.698 1286.15 525.478C1287.69 525.259 1290.33 524.709 1290.77 522.841C1291.65 519.213 1287.25 515.916 1284.61 514.487C1283.18 513.718 1281.31 512.838 1279.77 513.388C1279.22 513.608 1278.89 513.828 1278.56 514.157C1276.47 515.257 1276.14 518.224 1276.25 520.313Z" fill="#C28257"/>
<path opacity="0.3" d="M1250.4 589.228C1250.51 590.767 1251.06 591.866 1252.49 592.415C1254.03 592.965 1255.79 593.185 1257.44 592.965C1258.54 592.855 1260.41 592.415 1260.74 591.096C1261.4 588.568 1258.21 586.15 1256.34 585.161C1255.35 584.612 1254.03 583.952 1252.82 584.392C1252.49 584.502 1252.16 584.722 1251.94 584.941C1250.51 585.601 1250.29 587.799 1250.4 589.228Z" fill="#C28257"/>
<path opacity="0.3" d="M1327.62 557.243C1327.73 558.452 1328.17 559.332 1329.27 559.661C1330.48 560.101 1331.8 560.211 1333.12 560.101C1334 559.991 1335.43 559.661 1335.65 558.672C1336.09 556.694 1333.67 554.825 1332.24 554.056C1331.47 553.616 1330.48 553.177 1329.6 553.396C1329.27 553.506 1329.05 553.616 1328.94 553.836C1327.73 554.496 1327.51 556.144 1327.62 557.243Z" fill="#C28257"/>
<path opacity="0.3" d="M971.538 472.171C971.758 472.94 972.198 473.49 972.748 473.929C974.288 477.007 978.798 477.556 981.878 477.337C984.958 477.117 987.379 476.018 988.369 472.94C989.579 469.643 989.909 465.906 989.469 462.498C989.139 460.08 988.369 456.233 985.619 455.464C980.338 454.145 975.388 460.74 973.188 464.697C972.088 466.895 970.768 469.753 971.538 472.171Z" fill="#C28257"/>
<path opacity="0.3" d="M1076.04 512.619C1076.15 513.168 1076.48 513.608 1076.92 513.938C1078.02 516.136 1081.21 516.576 1083.41 516.356C1085.61 516.246 1087.26 515.366 1088.03 513.278C1088.91 510.97 1089.13 508.222 1088.8 505.804C1088.58 504.155 1088.03 501.298 1086.05 500.858C1082.31 499.979 1078.79 504.595 1077.25 507.453C1076.48 508.882 1075.49 510.86 1076.04 512.619Z" fill="#C28257"/>
<path opacity="0.3" d="M1030.61 397.1C1030.72 397.54 1030.94 397.87 1031.27 398.089C1032.15 399.738 1034.57 400.068 1036.33 399.958C1038.09 399.848 1039.3 399.189 1039.96 397.54C1040.62 395.671 1040.84 393.693 1040.62 391.714C1040.4 390.396 1040.07 388.197 1038.53 387.868C1035.67 387.098 1032.92 390.725 1031.71 393.033C1030.94 394.242 1030.17 395.781 1030.61 397.1Z" fill="#C28257"/>
<mask id="mask1_25_170" style="mask-type:luminance" maskUnits="userSpaceOnUse" x="1313" y="371" width="181" height="158">
<path d="M1493.89 409.054L1343.28 371L1313 490.826L1463.61 528.88L1493.89 409.054Z" fill="white"/>
</mask>
<g mask="url(#mask1_25_170)">
<path d="M1334.89 404.204L1388.27 509.844L1485.49 442.258L1334.89 404.204Z" fill="#3EA1FB"/>
<path d="M1379.59 415.498L1388.27 509.844L1440.8 430.964L1379.59 415.498Z" fill="#93D8FF"/>
<path d="M1388.27 509.844L1379.59 415.498L1334.89 404.204L1388.27 509.844Z" fill="#7BC3F5"/>
<path d="M1365.86 376.705L1334.89 404.204L1485.49 442.258L1471.23 403.329L1365.86 376.705Z" fill="#69C1FF"/>
<path opacity="0.3" d="M1440.8 430.964L1418.54 390.017L1379.59 415.498L1440.8 430.964Z" fill="#93D8FF"/>
<path d="M1471.23 403.329L1440.8 430.964L1485.49 442.258L1471.23 403.329Z" fill="#93D8FF"/>
<path d="M1365.86 376.705L1379.59 415.498L1334.89 404.204L1365.86 376.705Z" fill="#93D8FF"/>
<path d="M1329.29 463.401L1335.48 466.164L1341.61 463.263L1338.85 469.453L1341.75 475.578L1335.56 472.816L1329.43 475.717L1332.19 469.527L1329.29 463.401Z" fill="white"/>
</g>
<path d="M1455.13 689.668L1454.75 694.617L1458.25 698.129L1453.3 697.746L1449.79 701.254L1450.18 696.305L1446.67 692.793L1451.62 693.176L1455.13 689.668Z" fill="white"/>
<path d="M1752.13 723.668L1751.75 728.617L1755.25 732.129L1750.31 731.746L1746.79 735.254L1747.18 730.305L1743.67 726.793L1748.62 727.176L1752.13 723.668Z" fill="white"/>
<path d="M1623.13 781.668L1622.75 786.617L1626.25 790.129L1621.31 789.746L1617.79 793.254L1618.18 788.305L1614.67 784.793L1619.62 785.176L1623.13 781.668Z" fill="white"/>
<path d="M1303.13 517.668L1302.75 522.617L1306.25 526.129L1301.3 525.746L1297.79 529.254L1298.18 524.305L1294.67 520.793L1299.62 521.176L1303.13 517.668Z" fill="white"/>
<path d="M1732.74 856.983L1743.66 861.856L1754.46 856.739L1749.59 867.657L1754.71 878.462L1743.79 873.59L1732.98 878.706L1737.86 867.789L1732.74 856.983Z" fill="white"/>
<path d="M1861.74 846.983L1872.66 851.856L1883.46 846.739L1878.59 857.657L1883.71 868.462L1872.79 863.59L1861.98 868.706L1866.86 857.789L1861.74 846.983Z" fill="white"/>
<path d="M1590.74 962.983L1601.66 967.856L1612.46 962.739L1607.59 973.657L1612.71 984.462L1601.79 979.59L1590.98 984.706L1595.86 973.789L1590.74 962.983Z" fill="white"/>
<path d="M1365.15 934.77L1364.23 946.69L1372.68 955.15L1360.76 954.227L1352.3 962.675L1353.22 950.756L1344.77 942.296L1356.69 943.219L1365.15 934.77Z" fill="white"/>
<path d="M1653.86 446.82L1651.73 458.583L1659.26 467.862L1647.5 465.725L1638.22 473.264L1640.36 461.501L1632.82 452.222L1644.58 454.359L1653.86 446.82Z" fill="white"/>
<path d="M1489.74 369.983L1500.66 374.856L1511.46 369.739L1506.59 380.657L1511.71 391.462L1500.79 386.59L1489.98 391.706L1494.86 380.789L1489.74 369.983Z" fill="white"/>
<path d="M1552.74 481.983L1563.66 486.856L1574.46 481.739L1569.59 492.657L1574.71 503.462L1563.79 498.59L1552.98 503.706L1557.86 492.789L1552.74 481.983Z" fill="white"/>
<mask id="mask2_25_170" style="mask-type:luminance" maskUnits="userSpaceOnUse" x="1453" y="473" width="93" height="81">
<path d="M1531.41 473L1453 490.808L1467.17 553.195L1545.58 535.387L1531.41 473Z" fill="white"/>
</mask>
<g mask="url(#mask2_25_170)">
<path d="M1456.93 508.095L1506.35 544.295L1535.34 490.287L1456.93 508.095Z" fill="#3EA1FB"/>
<path d="M1480.2 502.81L1506.35 544.295L1512.07 495.573L1480.2 502.81Z" fill="#93D8FF"/>
<path d="M1506.35 544.295L1480.2 502.81L1456.93 508.095L1506.35 544.295Z" fill="#7BC3F5"/>
<path d="M1464.76 488.138L1456.93 508.095L1535.34 490.287L1519.62 475.679L1464.76 488.138Z" fill="#69C1FF"/>
<path opacity="0.3" d="M1512.07 495.573L1492.19 481.908L1480.2 502.81L1512.07 495.573Z" fill="#93D8FF"/>
<path d="M1519.62 475.679L1512.07 495.573L1535.34 490.287L1519.62 475.679Z" fill="#93D8FF"/>
<path d="M1464.76 488.138L1480.2 502.81L1456.93 508.095L1464.76 488.138Z" fill="#93D8FF"/>
</g>
<mask id="mask3_25_170" style="mask-type:luminance" maskUnits="userSpaceOnUse" x="1573" y="879" width="93" height="81">
<path d="M1651.41 879L1573 896.808L1587.17 959.195L1665.58 941.387L1651.41 879Z" fill="white"/>
</mask>
<g mask="url(#mask3_25_170)">
<path d="M1576.93 914.095L1626.35 950.295L1655.34 896.287L1576.93 914.095Z" fill="#3EA1FB"/>
<path d="M1600.2 908.81L1626.35 950.295L1632.07 901.572L1600.2 908.81Z" fill="#93D8FF"/>
<path d="M1626.35 950.295L1600.2 908.81L1576.93 914.095L1626.35 950.295Z" fill="#7BC3F5"/>
<path d="M1584.76 894.138L1576.93 914.095L1655.34 896.287L1639.62 881.679L1584.76 894.138Z" fill="#69C1FF"/>
<path opacity="0.3" d="M1632.07 901.573L1612.19 887.908L1600.2 908.81L1632.07 901.573Z" fill="#93D8FF"/>
<path d="M1639.62 881.679L1632.07 901.573L1655.34 896.287L1639.62 881.679Z" fill="#93D8FF"/>
<path d="M1584.76 894.138L1600.2 908.81L1576.93 914.095L1584.76 894.138Z" fill="#93D8FF"/>
</g>
<mask id="mask4_25_170" style="mask-type:luminance" maskUnits="userSpaceOnUse" x="1298" y="544" width="101" height="88">
<path d="M1383.16 544L1298 563.341L1313.39 631.099L1398.55 611.758L1383.16 544Z" fill="white"/>
</mask>
<g mask="url(#mask4_25_170)">
<path d="M1302.26 582.117L1355.95 621.433L1387.43 562.776L1302.26 582.117Z" fill="#3EA1FB"/>
<path d="M1327.54 576.376L1355.95 621.433L1362.15 568.516L1327.54 576.376Z" fill="#93D8FF"/>
<path d="M1355.95 621.433L1327.54 576.376L1302.26 582.117L1355.95 621.433Z" fill="#7BC3F5"/>
<path d="M1310.77 560.441L1302.26 582.117L1387.43 562.776L1370.35 546.909L1310.77 560.441Z" fill="#69C1FF"/>
<path opacity="0.3" d="M1362.15 568.516L1340.56 553.675L1327.54 576.376L1362.15 568.516Z" fill="#93D8FF"/>
<path d="M1370.35 546.909L1362.15 568.516L1387.43 562.776L1370.35 546.909Z" fill="#93D8FF"/>
<path d="M1310.77 560.441L1327.54 576.376L1302.26 582.117L1310.77 560.441Z" fill="#93D8FF"/>
</g>
<mask id="mask5_25_170" style="mask-type:luminance" maskUnits="userSpaceOnUse" x="1508" y="376" width="110" height="103">
<path d="M1584.87 376L1508 417.441L1540.97 478.603L1617.84 437.163L1584.87 376Z" fill="white"/>
</mask>
<g mask="url(#mask5_25_170)">
<path d="M1517.14 434.389L1579.39 457.893L1594.01 392.948L1517.14 434.389Z" fill="#3EA1FB"/>
<path d="M1539.95 422.09L1579.39 457.893L1571.19 405.247L1539.95 422.09Z" fill="#93D8FF"/>
<path d="M1579.39 457.893L1539.95 422.09L1517.14 434.389L1579.39 457.893Z" fill="#7BC3F5"/>
<path d="M1519.53 411.228L1517.14 434.389L1594.01 392.948L1573.31 382.234L1519.53 411.228Z" fill="#69C1FF"/>
<path opacity="0.3" d="M1571.19 405.247L1546.42 396.731L1539.95 422.09L1571.19 405.247Z" fill="#93D8FF"/>
<path d="M1573.31 382.234L1571.19 405.247L1594.01 392.948L1573.31 382.234Z" fill="#93D8FF"/>
<path d="M1519.53 411.228L1539.95 422.09L1517.14 434.389L1519.53 411.228Z" fill="#93D8FF"/>
</g>
<mask id="mask6_25_170" style="mask-type:luminance" maskUnits="userSpaceOnUse" x="1549" y="644" width="112" height="108">
<path d="M1619.23 644L1549 695.91L1590.3 751.787L1660.53 699.877L1619.23 644Z" fill="white"/>
</mask>
<g mask="url(#mask6_25_170)">
<path d="M1560.44 711.393L1625.4 725.845L1630.67 659.483L1560.44 711.393Z" fill="#3EA1FB"/>
<path d="M1581.29 695.987L1625.4 725.845L1609.83 674.889L1581.29 695.987Z" fill="#93D8FF"/>
<path d="M1625.4 725.845L1581.29 695.987L1560.44 711.393L1625.4 725.845Z" fill="#7BC3F5"/>
<path d="M1559.53 688.127L1560.44 711.393L1630.67 659.483L1608.67 651.809L1559.53 688.127Z" fill="#69C1FF"/>
<path opacity="0.3" d="M1609.83 674.889L1584.1 669.968L1581.29 695.987L1609.83 674.889Z" fill="#93D8FF"/>
<path d="M1608.67 651.809L1609.83 674.889L1630.67 659.483L1608.67 651.809Z" fill="#93D8FF"/>
<path d="M1559.53 688.127L1581.29 695.987L1560.44 711.393L1559.53 688.127Z" fill="#93D8FF"/>
</g>
<mask id="mask7_25_170" style="mask-type:luminance" maskUnits="userSpaceOnUse" x="1790" y="629" width="112" height="108">
<path d="M1860.23 629L1790 680.91L1831.3 736.787L1901.53 684.877L1860.23 629Z" fill="white"/>
</mask>
<g mask="url(#mask7_25_170)">
<path d="M1801.44 696.393L1866.4 710.845L1871.67 644.483L1801.44 696.393Z" fill="#3EA1FB"/>
<path d="M1822.29 680.987L1866.4 710.845L1850.83 659.889L1822.29 680.987Z" fill="#93D8FF"/>
<path d="M1866.4 710.845L1822.29 680.987L1801.44 696.393L1866.4 710.845Z" fill="#7BC3F5"/>
<path d="M1800.53 673.127L1801.44 696.393L1871.67 644.483L1849.67 636.809L1800.53 673.127Z" fill="#69C1FF"/>
<path opacity="0.3" d="M1850.83 659.889L1825.1 654.968L1822.29 680.987L1850.83 659.889Z" fill="#93D8FF"/>
<path d="M1849.67 636.809L1850.83 659.889L1871.67 644.483L1849.67 636.809Z" fill="#93D8FF"/>
<path d="M1800.53 673.127L1822.29 680.987L1801.44 696.393L1800.53 673.127Z" fill="#93D8FF"/>
</g>
<mask id="mask8_25_170" style="mask-type:luminance" maskUnits="userSpaceOnUse" x="1839" y="535" width="111" height="106">
<path d="M1949.88 581.275L1875.82 535L1839 593.927L1913.07 640.202L1949.88 581.275Z" fill="white"/>
</mask>
<g mask="url(#mask8_25_170)">
<path d="M1865.62 551.329L1876.01 617.053L1939.68 597.604L1865.62 551.329Z" fill="#3EA1FB"/>
<path d="M1887.6 565.063L1876.01 617.053L1917.7 583.87L1887.6 565.063Z" fill="#93D8FF"/>
<path d="M1876.01 617.053L1887.6 565.063L1865.62 551.329L1876.01 617.053Z" fill="#7BC3F5"/>
<path d="M1886.92 541.938L1865.62 551.329L1939.68 597.604L1938.74 574.314L1886.92 541.938Z" fill="#69C1FF"/>
<path opacity="0.3" d="M1917.7 583.87L1912.83 558.126L1887.6 565.063L1917.7 583.87Z" fill="#93D8FF"/>
<path d="M1938.74 574.314L1917.7 583.87L1939.68 597.604L1938.74 574.314Z" fill="#93D8FF"/>
<path d="M1886.92 541.938L1887.6 565.063L1865.62 551.329L1886.92 541.938Z" fill="#93D8FF"/>
</g>
<mask id="mask9_25_170" style="mask-type:luminance" maskUnits="userSpaceOnUse" x="1477" y="614" width="104" height="92">
<path d="M1580.69 639.236L1497.08 614L1477 680.519L1560.61 705.755L1580.69 639.236Z" fill="white"/>
</mask>
<g mask="url(#mask9_25_170)">
<path d="M1491.51 632.432L1518.78 693.131L1575.12 657.669L1491.51 632.432Z" fill="#3EA1FB"/>
<path d="M1516.33 639.922L1518.78 693.131L1550.31 650.179L1516.33 639.922Z" fill="#93D8FF"/>
<path d="M1518.78 693.131L1516.33 639.922L1491.51 632.432L1518.78 693.131Z" fill="#7BC3F5"/>
<path d="M1509.61 617.783L1491.51 632.432L1575.12 657.669L1568.11 635.44L1509.61 617.783Z" fill="#69C1FF"/>
<path opacity="0.3" d="M1550.31 650.179L1538.86 626.612L1516.33 639.922L1550.31 650.179Z" fill="#93D8FF"/>
<path d="M1568.11 635.44L1550.31 650.179L1575.12 657.669L1568.11 635.44Z" fill="#93D8FF"/>
<path d="M1509.61 617.783L1516.33 639.922L1491.51 632.432L1509.61 617.783Z" fill="#93D8FF"/>
</g>
<mask id="mask10_25_170" style="mask-type:luminance" maskUnits="userSpaceOnUse" x="1800" y="435" width="104" height="92">
<path d="M1903.69 460.236L1820.08 435L1800 501.519L1883.61 526.755L1903.69 460.236Z" fill="white"/>
</mask>
<g mask="url(#mask10_25_170)">
<path d="M1814.51 453.432L1841.78 514.131L1898.12 478.669L1814.51 453.432Z" fill="#3EA1FB"/>
<path d="M1839.33 460.922L1841.78 514.131L1873.31 471.179L1839.33 460.922Z" fill="#93D8FF"/>
<path d="M1841.78 514.131L1839.33 460.922L1814.51 453.432L1841.78 514.131Z" fill="#7BC3F5"/>
<path d="M1832.61 438.783L1814.51 453.432L1898.12 478.669L1891.11 456.44L1832.61 438.783Z" fill="#69C1FF"/>
<path opacity="0.3" d="M1873.31 471.179L1861.86 447.612L1839.33 460.922L1873.31 471.179Z" fill="#93D8FF"/>
<path d="M1891.11 456.44L1873.31 471.179L1898.12 478.669L1891.11 456.44Z" fill="#93D8FF"/>
<path d="M1832.61 438.783L1839.33 460.922L1814.51 453.432L1832.61 438.783Z" fill="#93D8FF"/>
</g>
<mask id="mask11_25_170" style="mask-type:luminance" maskUnits="userSpaceOnUse" x="1493" y="903" width="110" height="104">
<path d="M1569.8 904L1493 945.57L1526.07 1006.68L1602.88 965.107L1569.8 904Z" fill="white"/>
</mask>
<g mask="url(#mask11_25_170)">
<path d="M1502.16 962.503L1564.46 985.902L1578.97 920.933L1502.16 962.503Z" fill="#3EA1FB"/>
<path d="M1524.96 950.165L1564.46 985.902L1556.17 933.27L1524.96 950.165Z" fill="#93D8FF"/>
<path d="M1564.46 985.902L1524.96 950.165L1502.16 962.503L1564.46 985.902Z" fill="#7BC3F5"/>
<path d="M1504.51 939.338L1502.16 962.503L1578.97 920.933L1558.25 910.253L1504.51 939.338Z" fill="#69C1FF"/>
<path opacity="0.3" d="M1556.17 933.27L1531.38 924.796L1524.96 950.165L1556.17 933.27Z" fill="#93D8FF"/>
<path d="M1558.25 910.253L1556.17 933.27L1578.97 920.933L1558.25 910.253Z" fill="#93D8FF"/>
<path d="M1504.51 939.338L1524.96 950.165L1502.16 962.503L1504.51 939.338Z" fill="#93D8FF"/>
</g>
<mask id="mask12_25_170" style="mask-type:luminance" maskUnits="userSpaceOnUse" x="1608" y="799" width="104" height="92">
<path d="M1711.69 824.236L1628.08 799L1608 865.519L1691.61 890.755L1711.69 824.236Z" fill="white"/>
</mask>
<g mask="url(#mask12_25_170)">
<path d="M1622.51 817.432L1649.78 878.131L1706.12 842.669L1622.51 817.432Z" fill="#3EA1FB"/>
<path d="M1647.33 824.922L1649.78 878.131L1681.31 835.179L1647.33 824.922Z" fill="#93D8FF"/>
<path d="M1649.78 878.131L1647.33 824.922L1622.51 817.432L1649.78 878.131Z" fill="#7BC3F5"/>
<path d="M1640.61 802.783L1622.51 817.432L1706.12 842.669L1699.11 820.44L1640.61 802.783Z" fill="#69C1FF"/>
<path opacity="0.3" d="M1681.31 835.179L1669.86 811.612L1647.33 824.922L1681.31 835.179Z" fill="#93D8FF"/>
<path d="M1699.11 820.44L1681.31 835.179L1706.12 842.669L1699.11 820.44Z" fill="#93D8FF"/>
<path d="M1640.61 802.783L1647.33 824.922L1622.51 817.432L1640.61 802.783Z" fill="#93D8FF"/>
</g>
<mask id="mask13_25_170" style="mask-type:luminance" maskUnits="userSpaceOnUse" x="1759" y="756" width="109" height="112">
<path d="M1811.47 756L1759 825.811L1814.54 867.559L1867.02 797.748L1811.47 756Z" fill="white"/>
</mask>
<g mask="url(#mask13_25_170)">
<path d="M1774.39 837.379L1840.77 832.671L1826.86 767.568L1774.39 837.379Z" fill="#3EA1FB"/>
<path d="M1789.96 816.66L1840.77 832.671L1811.29 788.287L1789.96 816.66Z" fill="#93D8FF"/>
<path d="M1840.77 832.671L1789.96 816.66L1774.39 837.379L1840.77 832.671Z" fill="#7BC3F5"/>
<path d="M1766.87 815.344L1774.39 837.379L1826.86 767.568L1803.58 766.502L1766.87 815.344Z" fill="#69C1FF"/>
<path opacity="0.3" d="M1811.29 788.287L1785.22 790.923L1789.96 816.66L1811.29 788.287Z" fill="#93D8FF"/>
<path d="M1803.58 766.502L1811.29 788.287L1826.86 767.568L1803.58 766.502Z" fill="#93D8FF"/>
<path d="M1766.87 815.344L1789.96 816.66L1774.39 837.379L1766.87 815.344Z" fill="#93D8FF"/>
</g>
<mask id="mask14_25_170" style="mask-type:luminance" maskUnits="userSpaceOnUse" x="1661" y="884" width="104" height="92">
<path d="M1764.69 909.236L1681.08 884L1661 950.519L1744.61 975.755L1764.69 909.236Z" fill="white"/>
</mask>
<g mask="url(#mask14_25_170)">
<path d="M1675.51 902.432L1702.78 963.131L1759.12 927.669L1675.51 902.432Z" fill="#3EA1FB"/>
<path d="M1700.33 909.922L1702.78 963.131L1734.31 920.179L1700.33 909.922Z" fill="#93D8FF"/>
<path d="M1702.78 963.131L1700.33 909.922L1675.51 902.432L1702.78 963.131Z" fill="#7BC3F5"/>
<path d="M1693.61 887.783L1675.51 902.432L1759.12 927.669L1752.11 905.44L1693.61 887.783Z" fill="#69C1FF"/>
<path opacity="0.3" d="M1734.31 920.179L1722.86 896.612L1700.33 909.922L1734.31 920.179Z" fill="#93D8FF"/>
<path d="M1752.11 905.44L1734.31 920.179L1759.12 927.669L1752.11 905.44Z" fill="#93D8FF"/>
<path d="M1693.61 887.783L1700.33 909.922L1675.51 902.432L1693.61 887.783Z" fill="#93D8FF"/>
</g>
<mask id="mask15_25_170" style="mask-type:luminance" maskUnits="userSpaceOnUse" x="1369" y="912" width="111" height="106">
<path d="M1443.96 913L1369 957.816L1404.66 1017.45L1479.61 972.636L1443.96 913Z" fill="white"/>
</mask>
<g mask="url(#mask15_25_170)">
<path d="M1378.88 974.341L1442.12 995.056L1453.84 929.525L1378.88 974.341Z" fill="#3EA1FB"/>
<path d="M1401.13 961.041L1442.12 995.056L1431.59 942.826L1401.13 961.041Z" fill="#93D8FF"/>
<path d="M1442.12 995.056L1401.13 961.041L1378.88 974.341L1442.12 995.056Z" fill="#7BC3F5"/>
<path d="M1380.24 951.097L1378.88 974.341L1453.84 929.525L1432.68 919.742L1380.24 951.097Z" fill="#69C1FF"/>
<path opacity="0.3" d="M1431.59 942.826L1406.46 935.419L1401.13 961.041L1431.59 942.826Z" fill="#93D8FF"/>
<path d="M1432.68 919.742L1431.59 942.826L1453.84 929.525L1432.68 919.742Z" fill="#93D8FF"/>
<path d="M1380.24 951.097L1401.13 961.041L1378.88 974.341L1380.24 951.097Z" fill="#93D8FF"/>
</g>
<mask id="mask16_25_170" style="mask-type:luminance" maskUnits="userSpaceOnUse" x="1432" y="857" width="104" height="92">
<path d="M1535.69 882.236L1452.08 857L1432 923.519L1515.61 948.755L1535.69 882.236Z" fill="white"/>
</mask>
<g mask="url(#mask16_25_170)">
<path d="M1446.51 875.432L1473.78 936.131L1530.12 900.669L1446.51 875.432Z" fill="#3EA1FB"/>
<path d="M1471.33 882.922L1473.78 936.131L1505.31 893.179L1471.33 882.922Z" fill="#93D8FF"/>
<path d="M1473.78 936.131L1471.33 882.922L1446.51 875.432L1473.78 936.131Z" fill="#7BC3F5"/>
<path d="M1464.61 860.783L1446.51 875.432L1530.12 900.669L1523.11 878.44L1464.61 860.783Z" fill="#69C1FF"/>
<path opacity="0.3" d="M1505.31 893.179L1493.86 869.612L1471.33 882.922L1505.31 893.179Z" fill="#93D8FF"/>
<path d="M1523.11 878.44L1505.31 893.179L1530.12 900.669L1523.11 878.44Z" fill="#93D8FF"/>
<path d="M1464.61 860.783L1471.33 882.922L1446.51 875.432L1464.61 860.783Z" fill="#93D8FF"/>
</g>
<mask id="mask17_25_170" style="mask-type:luminance" maskUnits="userSpaceOnUse" x="1404" y="549" width="76" height="68">
<path d="M1479.96 567.487L1418.71 549L1404 597.729L1465.25 616.216L1479.96 567.487Z" fill="white"/>
</mask>
<g mask="url(#mask17_25_170)">
<path d="M1414.63 562.503L1434.61 606.968L1475.88 580.99L1414.63 562.503Z" fill="#3EA1FB"/>
<path d="M1432.81 567.989L1434.61 606.968L1457.7 575.503L1432.81 567.989Z" fill="#93D8FF"/>
<path d="M1434.61 606.968L1432.81 567.989L1414.63 562.503L1434.61 606.968Z" fill="#7BC3F5"/>
<path d="M1427.89 551.772L1414.63 562.503L1475.88 580.99L1470.74 564.706L1427.89 551.772Z" fill="#69C1FF"/>
<path opacity="0.3" d="M1457.7 575.503L1449.32 558.239L1432.81 567.989L1457.7 575.503Z" fill="#93D8FF"/>
<path d="M1470.74 564.706L1457.7 575.503L1475.88 580.99L1470.74 564.706Z" fill="#93D8FF"/>
<path d="M1427.89 551.772L1432.81 567.989L1414.63 562.503L1427.89 551.772Z" fill="#93D8FF"/>
</g>
<mask id="mask18_25_170" style="mask-type:luminance" maskUnits="userSpaceOnUse" x="1417" y="693" width="202" height="193">
<path d="M1618.58 779.246L1485.62 693L1417 798.788L1549.96 885.034L1618.58 779.246Z" fill="white"/>
</mask>
<g mask="url(#mask18_25_170)">
<path d="M1466.6 722.314L1483.45 841.889L1599.57 808.56L1466.6 722.314Z" fill="#3EA1FB"/>
<path d="M1506.07 747.91L1483.45 841.889L1560.11 782.963L1506.07 747.91Z" fill="#93D8FF"/>
<path d="M1483.45 841.889L1506.07 747.91L1466.6 722.314L1483.45 841.889Z" fill="#7BC3F5"/>
<path d="M1505.55 705.93L1466.6 722.314L1599.57 808.56L1598.58 766.272L1505.55 705.93Z" fill="#69C1FF"/>
<path opacity="0.3" d="M1560.11 782.963L1552.07 736.101L1506.07 747.91L1560.11 782.963Z" fill="#93D8FF"/>
<path d="M1598.58 766.272L1560.11 782.963L1599.57 808.56L1598.58 766.272Z" fill="#93D8FF"/>
<path d="M1505.55 705.93L1506.07 747.91L1466.6 722.314L1505.55 705.93Z" fill="#93D8FF"/>
</g>
<mask id="mask19_25_170" style="mask-type:luminance" maskUnits="userSpaceOnUse" x="1834" y="684" width="202" height="195">
<path d="M1965.17 685L1834 773.947L1904.77 878.31L2035.94 789.362L1965.17 685Z" fill="white"/>
</mask>
<g mask="url(#mask19_25_170)">
<path d="M1853.61 802.866L1970.32 833.858L1984.78 713.919L1853.61 802.866Z" fill="#3EA1FB"/>
<path d="M1892.54 776.467L1970.32 833.858L1945.85 740.317L1892.54 776.467Z" fill="#93D8FF"/>
<path d="M1970.32 833.858L1892.54 776.467L1853.61 802.866L1970.32 833.858Z" fill="#7BC3F5"/>
<path d="M1853.67 760.612L1853.61 802.866L1984.78 713.919L1945.44 698.38L1853.67 760.612Z" fill="#69C1FF"/>
<path opacity="0.3" d="M1945.85 740.317L1899.55 729.496L1892.54 776.467L1945.85 740.317Z" fill="#93D8FF"/>
<path d="M1853.67 760.612L1892.54 776.467L1853.61 802.866L1853.67 760.612Z" fill="#93D8FF"/>
</g>
<mask id="mask20_25_170" style="mask-type:luminance" maskUnits="userSpaceOnUse" x="1736" y="850" width="202" height="193">
<path d="M1937.58 936.246L1804.62 850L1736 955.788L1868.96 1042.03L1937.58 936.246Z" fill="white"/>
</mask>
<g mask="url(#mask20_25_170)">
<path d="M1785.6 879.314L1802.45 998.889L1918.57 965.56L1785.6 879.314Z" fill="#3EA1FB"/>
<path d="M1825.07 904.91L1802.45 998.889L1879.11 939.963L1825.07 904.91Z" fill="#93D8FF"/>
<path d="M1802.45 998.889L1825.07 904.91L1785.6 879.314L1802.45 998.889Z" fill="#7BC3F5"/>
<path d="M1824.55 862.93L1785.6 879.314L1918.57 965.56L1917.58 923.272L1824.55 862.93Z" fill="#69C1FF"/>
<path opacity="0.3" d="M1879.11 939.963L1871.07 893.101L1825.07 904.91L1879.11 939.963Z" fill="#93D8FF"/>
<path d="M1917.58 923.272L1879.11 939.963L1918.57 965.56L1917.58 923.272Z" fill="#93D8FF"/>
<path d="M1824.55 862.93L1825.07 904.91L1785.6 879.314L1824.55 862.93Z" fill="#93D8FF"/>
</g>
<mask id="mask21_25_170" style="mask-type:luminance" maskUnits="userSpaceOnUse" x="1514" y="480" width="202" height="194">
<path d="M1645.16 480L1514 568.969L1584.79 673.32L1715.94 584.351L1645.16 480Z" fill="white"/>
</mask>
<g mask="url(#mask21_25_170)">
<path d="M1533.61 597.884L1650.33 628.858L1664.77 508.915L1533.61 597.884Z" fill="#3EA1FB"/>
<path d="M1572.54 571.48L1650.33 628.858L1625.85 535.32L1572.54 571.48Z" fill="#93D8FF"/>
<path d="M1650.33 628.858L1572.54 571.48L1533.61 597.884L1650.33 628.858Z" fill="#7BC3F5"/>
<path d="M1533.66 555.63L1533.61 597.884L1664.77 508.915L1625.43 493.384L1533.66 555.63Z" fill="#69C1FF"/>
<path opacity="0.3" d="M1625.85 535.32L1579.54 524.507L1572.54 571.48L1625.85 535.32Z" fill="#93D8FF"/>
<path d="M1625.43 493.384L1625.85 535.32L1664.77 508.915L1625.43 493.384Z" fill="#93D8FF"/>
<path d="M1533.66 555.63L1572.54 571.48L1533.61 597.884L1533.66 555.63Z" fill="#93D8FF"/>
</g>
<mask id="mask22_25_170" style="mask-type:luminance" maskUnits="userSpaceOnUse" x="1630" y="685" width="177" height="150">
<path d="M1787.52 685.131L1630.94 709.607L1650.41 834.188L1807 809.712L1787.52 685.131Z" fill="white"/>
</mask>
<g mask="url(#mask22_25_170)">
<path d="M1636.34 744.129L1728.67 821.956L1792.92 719.652L1636.34 744.129Z" fill="#3EA1FB"/>
<path d="M1682.81 736.865L1728.67 821.956L1746.45 726.917L1682.81 736.865Z" fill="#93D8FF"/>
<path d="M1728.67 821.956L1682.81 736.865L1636.34 744.129L1728.67 821.956Z" fill="#7BC3F5"/>
<path d="M1654.42 705.938L1636.34 744.129L1792.92 719.652L1763.97 688.813L1654.42 705.938Z" fill="#69C1FF"/>
<path opacity="0.3" d="M1746.45 726.917L1709.19 697.375L1682.81 736.865L1746.45 726.917Z" fill="#93D8FF"/>
<path d="M1763.97 688.813L1746.45 726.917L1792.92 719.652L1763.97 688.813Z" fill="#93D8FF"/>
<path d="M1654.42 705.938L1682.81 736.865L1636.34 744.129L1654.42 705.938Z" fill="#93D8FF"/>
</g>
<mask id="mask23_25_170" style="mask-type:luminance" maskUnits="userSpaceOnUse" x="1681" y="516" width="177" height="151">
<path d="M1837.58 517L1681 541.476L1700.47 666.057L1857.06 641.581L1837.58 517Z" fill="white"/>
</mask>
<g mask="url(#mask23_25_170)">
<path d="M1686.4 575.998L1778.73 653.825L1842.98 551.521L1686.4 575.998Z" fill="#3EA1FB"/>
<path d="M1732.87 568.733L1778.73 653.825L1796.51 558.786L1732.87 568.733Z" fill="#93D8FF"/>
<path d="M1778.73 653.825L1732.87 568.733L1686.4 575.998L1778.73 653.825Z" fill="#7BC3F5"/>
<path d="M1704.48 537.807L1686.4 575.998L1842.98 551.521L1814.03 520.682L1704.48 537.807Z" fill="#69C1FF"/>
<path opacity="0.3" d="M1796.51 558.786L1759.25 529.244L1732.87 568.733L1796.51 558.786Z" fill="#93D8FF"/>
<path d="M1814.03 520.682L1796.51 558.786L1842.98 551.521L1814.03 520.682Z" fill="#93D8FF"/>
<path d="M1704.48 537.807L1732.87 568.733L1686.4 575.998L1704.48 537.807Z" fill="#93D8FF"/>
</g>
<mask id="mask24_25_170" style="mask-type:luminance" maskUnits="userSpaceOnUse" x="1623" y="355" width="200" height="203">
<path d="M1822.7 472.968L1716.86 355L1623 439.205L1728.84 557.173L1822.7 472.968Z" fill="white"/>
</mask>
<g mask="url(#mask24_25_170)">
<path d="M1690.85 378.333L1675.89 498.158L1796.68 496.301L1690.85 378.333Z" fill="#3EA1FB"/>
<path d="M1722.26 413.344L1675.89 498.158L1765.27 461.289L1722.26 413.344Z" fill="#93D8FF"/>
<path d="M1675.89 498.158L1722.26 413.344L1690.85 378.333L1675.89 498.158Z" fill="#7BC3F5"/>
<path d="M1732.72 372.686L1690.85 378.333L1796.68 496.301L1806.77 455.221L1732.72 372.686Z" fill="#69C1FF"/>
<path opacity="0.3" d="M1765.27 461.289L1769.75 413.954L1722.26 413.344L1765.27 461.289Z" fill="#93D8FF"/>
<path d="M1806.77 455.221L1765.27 461.289L1796.68 496.301L1806.77 455.221Z" fill="#93D8FF"/>
<path d="M1732.72 372.686L1722.26 413.344L1690.85 378.333L1732.72 372.686Z" fill="#93D8FF"/>
</g>
<mask id="mask25_25_170" style="mask-type:luminance" maskUnits="userSpaceOnUse" x="1286" y="757" width="202" height="194">
<path d="M1417.16 757L1286 845.969L1356.79 950.32L1487.94 861.351L1417.16 757Z" fill="white"/>
</mask>
<g mask="url(#mask25_25_170)">
<path d="M1305.61 874.884L1422.33 905.858L1436.77 785.915L1305.61 874.884Z" fill="#3EA1FB"/>
<path d="M1344.54 848.48L1422.33 905.858L1397.85 812.32L1344.54 848.48Z" fill="#93D8FF"/>
<path d="M1422.33 905.858L1344.54 848.48L1305.61 874.884L1422.33 905.858Z" fill="#7BC3F5"/>
<path d="M1305.66 832.63L1305.61 874.884L1436.77 785.915L1397.43 770.384L1305.66 832.63Z" fill="#69C1FF"/>
<path opacity="0.3" d="M1397.85 812.32L1351.54 801.507L1344.54 848.48L1397.85 812.32Z" fill="#93D8FF"/>
<path d="M1397.43 770.384L1397.85 812.32L1436.77 785.915L1397.43 770.384Z" fill="#93D8FF"/>
<path d="M1305.66 832.63L1344.54 848.48L1305.61 874.884L1305.66 832.63Z" fill="#93D8FF"/>
</g>
<mask id="mask26_25_170" style="mask-type:luminance" maskUnits="userSpaceOnUse" x="1294" y="619" width="185" height="165">
<path d="M1441.22 619L1294 666.204L1331.56 783.336L1478.78 736.132L1441.22 619Z" fill="white"/>
</mask>
<g mask="url(#mask26_25_170)">
<path d="M1304.41 698.661L1405.13 759.746L1451.63 651.457L1304.41 698.661Z" fill="#3EA1FB"/>
<path d="M1348.1 684.652L1405.13 759.746L1407.94 665.467L1348.1 684.652Z" fill="#93D8FF"/>
<path d="M1405.13 759.746L1348.1 684.652L1304.41 698.661L1405.13 759.746Z" fill="#7BC3F5"/>
<path d="M1316.07 659.127L1304.41 698.661L1451.63 651.457L1419.07 626.101L1316.07 659.127Z" fill="#69C1FF"/>
<path opacity="0.3" d="M1407.93 665.467L1367.57 642.614L1348.1 684.652L1407.93 665.467Z" fill="#93D8FF"/>
<path d="M1419.07 626.101L1407.93 665.467L1451.63 651.457L1419.07 626.101Z" fill="#93D8FF"/>
<path d="M1316.07 659.127L1348.1 684.652L1304.41 698.661L1316.07 659.127Z" fill="#93D8FF"/>
</g>
<mask id="mask27_25_170" style="mask-type:luminance" maskUnits="userSpaceOnUse" x="1293" y="742" width="62" height="54">
<path d="M1354.44 756.711L1305.7 742L1294 780.777L1342.73 795.488L1354.44 756.711Z" fill="white"/>
</mask>
<g mask="url(#mask27_25_170)">
<path d="M1302.46 752.745L1318.36 788.128L1351.2 767.456L1302.46 752.745Z" fill="#3EA1FB"/>
<path d="M1316.93 757.111L1318.36 788.128L1336.73 763.09L1316.93 757.111Z" fill="#93D8FF"/>
<path d="M1318.36 788.128L1316.93 757.111L1302.46 752.745L1318.36 788.128Z" fill="#7BC3F5"/>
<path d="M1313.01 744.205L1302.46 752.745L1351.2 767.456L1347.11 754.498L1313.01 744.205Z" fill="#69C1FF"/>
<path opacity="0.3" d="M1336.73 763.09L1330.06 749.352L1316.93 757.111L1336.73 763.09Z" fill="#93D8FF"/>
<path d="M1347.11 754.498L1336.73 763.09L1351.2 767.456L1347.11 754.498Z" fill="#93D8FF"/>
<path d="M1313.01 744.205L1316.93 757.111L1302.46 752.745L1313.01 744.205Z" fill="#93D8FF"/>
</g>
<mask id="mask28_25_170" style="mask-type:luminance" maskUnits="userSpaceOnUse" x="1308" y="489" width="66" height="64">
<path d="M1348.63 490L1308 520.668L1332.4 552.998L1373.04 522.33L1348.63 490Z" fill="white"/>
</mask>
<g mask="url(#mask28_25_170)">
<path d="M1314.76 529.627L1352.71 537.672L1355.4 498.959L1314.76 529.627Z" fill="#3EA1FB"/>
<path d="M1326.82 520.525L1352.71 537.672L1343.34 508.061L1326.82 520.525Z" fill="#93D8FF"/>
<path d="M1352.71 537.672L1326.82 520.525L1314.76 529.627L1352.71 537.672Z" fill="#7BC3F5"/>
<path d="M1314.09 516.07L1314.76 529.627L1355.4 498.959L1342.52 494.613L1314.09 516.07Z" fill="#69C1FF"/>
<path opacity="0.3" d="M1343.34 508.061L1328.31 505.342L1326.82 520.525L1343.34 508.061Z" fill="#93D8FF"/>
<path d="M1342.52 494.613L1343.34 508.061L1355.4 498.959L1342.52 494.613Z" fill="#93D8FF"/>
<path d="M1314.09 516.07L1326.82 520.525L1314.76 529.627L1314.09 516.07Z" fill="#93D8FF"/>
</g>
<mask id="mask29_25_170" style="mask-type:luminance" maskUnits="userSpaceOnUse" x="1655" y="624" width="65" height="65">
<path d="M1690.18 624L1655 660.794L1684.27 688.788L1719.46 651.994L1690.18 624Z" fill="white"/>
</mask>
<g mask="url(#mask29_25_170)">
<path d="M1663.11 668.551L1701.86 670.4L1698.3 631.757L1663.11 668.551Z" fill="#3EA1FB"/>
<path d="M1673.55 657.631L1701.86 670.4L1687.85 642.677L1673.55 657.631Z" fill="#93D8FF"/>
<path d="M1701.86 670.4L1673.55 657.631L1663.11 668.551L1701.86 670.4Z" fill="#7BC3F5"/>
<path d="M1660.28 655.277L1663.11 668.551L1698.3 631.757L1684.89 629.535L1660.28 655.277Z" fill="#69C1FF"/>
<path opacity="0.3" d="M1687.85 642.677L1672.58 642.406L1673.55 657.631L1687.85 642.677Z" fill="#93D8FF"/>
<path d="M1684.89 629.535L1687.85 642.677L1698.3 631.757L1684.89 629.535Z" fill="#93D8FF"/>
<path d="M1660.28 655.277L1673.55 657.631L1663.11 668.551L1660.28 655.277Z" fill="#93D8FF"/>
</g>
<mask id="mask30_25_170" style="mask-type:luminance" maskUnits="userSpaceOnUse" x="1879" y="630" width="66" height="63">
<path d="M1944.62 658.385L1902.02 630.509L1879.84 664.402L1922.44 692.278L1944.62 658.385Z" fill="white"/>
</mask>
<g mask="url(#mask30_25_170)">
<path d="M1895.87 639.901L1901.13 678.333L1938.47 667.777L1895.87 639.901Z" fill="#3EA1FB"/>
<path d="M1908.52 648.174L1901.13 678.333L1925.83 659.504L1908.52 648.174Z" fill="#93D8FF"/>
<path d="M1901.13 678.333L1908.52 648.174L1895.87 639.901L1901.13 678.333Z" fill="#7BC3F5"/>
<path d="M1908.41 634.689L1895.87 639.901L1938.47 667.777L1938.21 654.192L1908.41 634.689Z" fill="#69C1FF"/>
<path opacity="0.3" d="M1925.83 659.504L1923.31 644.44L1908.52 648.174L1925.83 659.504Z" fill="#93D8FF"/>
<path d="M1908.41 634.689L1908.52 648.174L1895.87 639.901L1908.41 634.689Z" fill="#93D8FF"/>
</g>
<mask id="mask31_25_170" style="mask-type:luminance" maskUnits="userSpaceOnUse" x="1791" y="370" width="64" height="59">
<path d="M1854.8 391.543L1808.49 370.398L1791.67 407.243L1837.98 428.388L1854.8 391.543Z" fill="white"/>
</mask>
<g mask="url(#mask31_25_170)">
<path d="M1803.82 380.608L1814.81 417.811L1850.13 401.753L1803.82 380.608Z" fill="#3EA1FB"/>
<path d="M1817.57 386.884L1814.81 417.811L1836.39 395.478L1817.57 386.884Z" fill="#93D8FF"/>
<path d="M1814.81 417.811L1817.57 386.884L1803.82 380.608L1814.81 417.811Z" fill="#7BC3F5"/>
<path d="M1815.43 373.569L1803.82 380.608L1850.13 401.753L1847.83 388.363L1815.43 373.569Z" fill="#69C1FF"/>
<path opacity="0.3" d="M1836.39 395.478L1831.63 380.966L1817.57 386.884L1836.39 395.478Z" fill="#93D8FF"/>
<path d="M1847.83 388.363L1836.39 395.478L1850.13 401.753L1847.83 388.363Z" fill="#93D8FF"/>
<path d="M1815.43 373.569L1817.57 386.884L1803.82 380.608L1815.43 373.569Z" fill="#93D8FF"/>
</g>
<mask id="mask32_25_170" style="mask-type:luminance" maskUnits="userSpaceOnUse" x="1884" y="372" width="64" height="66">
<path d="M1916.63 372L1884 411.081L1915.09 437.039L1947.72 397.957L1916.63 372Z" fill="white"/>
</mask>
<g mask="url(#mask32_25_170)">
<path d="M1892.62 418.274L1931.4 417.508L1925.24 379.193L1892.62 418.274Z" fill="#3EA1FB"/>
<path d="M1902.3 406.675L1931.4 417.508L1915.56 390.792L1902.3 406.675Z" fill="#93D8FF"/>
<path d="M1931.4 417.508L1902.3 406.675L1892.62 418.274L1931.4 417.508Z" fill="#7BC3F5"/>
<path d="M1888.89 405.222L1892.62 418.274L1925.24 379.193L1911.72 377.879L1888.89 405.222Z" fill="#69C1FF"/>
<path opacity="0.3" d="M1915.56 390.792L1900.3 391.55L1902.3 406.675L1915.56 390.792Z" fill="#93D8FF"/>
<path d="M1911.72 377.879L1915.56 390.792L1925.24 379.193L1911.72 377.879Z" fill="#93D8FF"/>
<path d="M1888.89 405.222L1902.3 406.675L1892.62 418.274L1888.89 405.222Z" fill="#93D8FF"/>
</g>
<mask id="mask33_25_170" style="mask-type:luminance" maskUnits="userSpaceOnUse" x="1605" y="374" width="65" height="65">
<path d="M1640.18 374L1605 410.794L1634.27 438.788L1669.46 401.994L1640.18 374Z" fill="white"/>
</mask>
<g mask="url(#mask33_25_170)">
<path d="M1613.11 418.551L1651.86 420.4L1648.3 381.757L1613.11 418.551Z" fill="#3EA1FB"/>
<path d="M1623.55 407.631L1651.86 420.4L1637.85 392.677L1623.55 407.631Z" fill="#93D8FF"/>
<path d="M1651.86 420.4L1623.55 407.631L1613.11 418.551L1651.86 420.4Z" fill="#7BC3F5"/>
<path d="M1610.28 405.277L1613.11 418.551L1648.3 381.757L1634.89 379.535L1610.28 405.277Z" fill="#69C1FF"/>
<path opacity="0.3" d="M1637.85 392.677L1622.58 392.406L1623.55 407.631L1637.85 392.677Z" fill="#93D8FF"/>
<path d="M1634.89 379.535L1637.85 392.677L1648.3 381.757L1634.89 379.535Z" fill="#93D8FF"/>
<path d="M1610.28 405.277L1623.55 407.631L1613.11 418.551L1610.28 405.277Z" fill="#93D8FF"/>
</g>
<mask id="mask34_25_170" style="mask-type:luminance" maskUnits="userSpaceOnUse" x="1535" y="828" width="65" height="65">
<path d="M1570.18 828L1535 864.794L1564.27 892.788L1599.46 855.994L1570.18 828Z" fill="white"/>
</mask>
<g mask="url(#mask34_25_170)">
<path d="M1543.11 872.551L1581.86 874.4L1578.3 835.757L1543.11 872.551Z" fill="#3EA1FB"/>
<path d="M1553.55 861.631L1581.86 874.4L1567.85 846.677L1553.55 861.631Z" fill="#93D8FF"/>
<path d="M1581.86 874.4L1553.55 861.631L1543.11 872.551L1581.86 874.4Z" fill="#7BC3F5"/>
<path d="M1540.28 859.277L1543.11 872.551L1578.3 835.757L1564.89 833.535L1540.28 859.277Z" fill="#69C1FF"/>
<path opacity="0.3" d="M1567.85 846.677L1552.58 846.406L1553.55 861.631L1567.85 846.677Z" fill="#93D8FF"/>
<path d="M1564.89 833.535L1567.85 846.677L1578.3 835.757L1564.89 833.535Z" fill="#93D8FF"/>
<path d="M1540.28 859.277L1553.55 861.631L1543.11 872.551L1540.28 859.277Z" fill="#93D8FF"/>
</g>
</g>
</g>
<defs>
<clipPath id="clip0_25_170">
<rect width="1920" height="1052" fill="white"/>
</clipPath>
</defs>
</svg>
