<svg width="488" height="488" viewBox="0 0 488 488" fill="none" xmlns="http://www.w3.org/2000/svg"><path class="tokenomics-graph-section-1" d="M244 2.64961e-07C197.592 -2.8845e-07 152.146 13.2348 112.995 38.1516C73.8429 63.0685 42.6089 98.634 22.9569 140.676C3.30497 182.718 -3.94989 229.492 2.04345 275.511C8.0368 321.531 27.0298 364.887 56.7942 400.493C86.5586 436.099 125.86 462.478 170.088 476.536C214.315 490.594 261.635 491.747 306.495 479.861C351.355 467.975 391.895 443.542 423.359 409.428C454.823 375.315 475.906 332.936 484.134 287.263L244 244V2.64961e-07Z" fill="#FFB3B9"/><path class="tokenomics-graph-section-2" fill-rule="evenodd" clip-rule="evenodd" d="M242.003 245.672V2.00824C196.668 2.38225 152.335 15.4841 114.066 39.8396C75.2345 64.5525 44.2565 99.8267 24.7657 141.524C5.275 183.221 -1.92028 229.611 4.02386 275.253C9.96801 320.894 28.8051 363.895 58.3256 399.209C87.8462 434.523 126.826 460.687 170.692 474.63C214.558 488.573 261.491 489.717 305.984 477.928C350.477 466.138 390.685 441.905 421.892 408.071C452.645 374.727 473.399 333.422 481.806 288.875L242.003 245.672ZM484.129 287.262L484.134 287.263C484.134 287.265 484.133 287.266 484.133 287.268C484.015 287.923 483.895 288.576 483.771 289.23C475.298 334.152 454.371 375.805 423.359 409.428C391.895 443.542 351.355 467.975 306.495 479.861C261.635 491.747 214.315 490.594 170.088 476.536C125.86 462.478 86.5586 436.099 56.7942 400.493C27.0298 364.887 8.0368 321.531 2.04345 275.511C-3.94989 229.492 3.30497 182.718 22.9569 140.676C42.6089 98.634 73.8429 63.0685 112.995 38.1516C151.585 13.5923 196.289 0.382229 242.003 0.00817105C242.668 0.00272539 243.334 2.64961e-07 244 2.64961e-07V244L484.129 287.262Z" fill="black"/><path class="tokenomics-graph-section-3" d="M112.166 38.4819C91.4131 51.763 72.7914 68.1107 56.9346 86.9689L243.689 244L112.166 38.4819Z" fill="#F89422"/><path class="tokenomics-graph-section-4" fill-rule="evenodd" clip-rule="evenodd" d="M58.2273 85.4443C57.7944 85.9507 57.3635 86.4589 56.9346 86.969L243.689 244L112.166 38.482C112.166 38.4819 112.166 38.482 112.166 38.482C111.99 38.5943 111.815 38.707 111.64 38.8198C111.255 39.0674 110.871 39.3161 110.488 39.5658C90.9664 52.2851 73.3675 67.7348 58.2273 85.4443ZM59.7569 86.7305L234.935 234.028L111.565 41.2497C92.2137 53.86 74.7673 69.1757 59.7569 86.7305Z" fill="black"/><path class="tokenomics-graph-section-5" d="M107.997 41.4185C148.064 14.5197 195.208 0.106172 243.466 0.000584297C291.725 -0.105003 338.931 14.1021 379.115 40.8253C419.299 67.5485 450.656 105.588 469.222 150.132C487.787 194.677 492.726 243.726 483.415 291.078L244 244L107.997 41.4185Z" fill="#2FA12C"/><path class="tokenomics-graph-section-6" fill-rule="evenodd" clip-rule="evenodd" d="M107.998 41.4192L244 244L483.415 291.078C483.433 290.986 483.451 290.894 483.469 290.802C483.579 290.24 483.687 289.677 483.793 289.114C492.587 242.372 487.53 194.061 469.222 150.132C450.656 105.588 419.299 67.5485 379.115 40.8253C338.931 14.1021 291.725 -0.105003 243.466 0.000584297C195.874 0.104714 149.366 14.1245 109.661 40.3116C109.105 40.6782 108.551 41.0478 107.998 41.4192ZM110.775 41.9714L245.196 242.197L481.833 288.729C490.551 242.375 485.535 194.467 467.379 150.903C448.966 106.723 417.865 68.9959 378.01 42.4914C338.155 15.9869 291.335 1.89585 243.47 2.00058C196.273 2.10384 150.152 16.0053 110.775 41.9714Z" fill="black"/></svg>