<svg width="251" height="106" viewBox="0 0 251 106" fill="none" xmlns="http://www.w3.org/2000/svg"><path d="M0 29.3727L65.9664 106L132 29.3727H0Z" fill="#3EA1FB"/><path d="M39.1759 29.3727L65.9663 106L92.824 29.3727H39.1759Z" fill="#93D8FF"/><path d="M65.9663 106L39.1759 29.3727H0L65.9663 106Z" fill="#7BC3F5"/><path d="M19.7899 0L0 29.3727H132L112.143 0H19.7899Z" fill="#69C1FF"/><path opacity="0.3" d="M92.824 29.3727L65.9663 0L39.1759 29.3727H92.824Z" fill="#93D8FF"/><path d="M112.143 0L92.8241 29.3727H132L112.143 0Z" fill="#93D8FF"/><path d="M19.7899 0L39.1759 29.3727H0L19.7899 0Z" fill="#93D8FF"/><path d="M154 41.416L191.336 84.4388L228.709 41.416H154Z" fill="#3EA1FB"/><path d="M176.173 41.416L191.336 84.4388L206.536 41.416H176.173Z" fill="#93D8FF"/><path d="M191.336 84.4388L176.173 41.416H154L191.336 84.4388Z" fill="#7BC3F5"/><path d="M165.201 24.9246L154 41.416H228.709L217.471 24.9246H165.201Z" fill="#69C1FF"/><path opacity="0.3" d="M206.536 41.416L191.336 24.9246L176.173 41.416H206.536Z" fill="#93D8FF"/><path d="M217.471 24.9246L206.536 41.416H228.709L217.471 24.9246Z" fill="#93D8FF"/><path d="M165.201 24.9246L176.173 41.416H154L165.201 24.9246Z" fill="#93D8FF"/></svg>