<svg width="78" height="66" viewBox="0 0 78 66" fill="none" xmlns="http://www.w3.org/2000/svg">
<path d="M74.11 53.3814L71.0154 57.2624L71.9471 62.1379L68.0662 59.0433L63.1907 59.975L66.2853 56.094L65.3536 51.2185L69.2345 54.3132L74.11 53.3814Z" fill="white"/>
<path d="M8.06396 13.0323L29.7441 53.8612L67.1762 26.6998L8.06396 13.0323Z" fill="#3EA1FB"/>
<path d="M25.6077 17.0886L29.7441 53.8612L49.6324 22.6434L25.6077 17.0886Z" fill="#93D8FF"/>
<path d="M29.7441 53.8612L25.6077 17.0886L8.06396 13.0323L29.7441 53.8612Z" fill="#7BC3F5"/>
<path d="M19.9395 2.04907L8.0639 13.0323L67.1762 26.6998L61.297 11.6114L19.9395 2.04907Z" fill="#69C1FF"/>
<path opacity="0.3" d="M49.6325 22.6434L40.6183 6.8302L25.6077 17.0886L49.6325 22.6434Z" fill="#93D8FF"/>
<path d="M61.2969 11.6115L49.6324 22.6435L67.1762 26.6999L61.2969 11.6115Z" fill="#93D8FF"/>
<path d="M19.9395 2.04907L25.6077 17.0886L8.0639 13.0323L19.9395 2.04907Z" fill="#93D8FF"/>
</svg>
