<svg width="96" height="68" viewBox="0 0 96 68" fill="none" xmlns="http://www.w3.org/2000/svg">
<path d="M90.0674 31.48L89.6805 36.4289L93.225 39.9411L88.2239 39.5581L84.6747 43.0657L85.0618 38.1168L81.5172 34.6046L86.5183 34.9876L90.0674 31.48Z" fill="white"/>
<path d="M11.2463 48.48L10.8594 53.4289L14.4039 56.9411L9.40286 56.5581L5.85371 60.0657L6.24072 55.1168L2.6962 51.6046L7.69723 51.9876L11.2463 48.48Z" fill="white"/>
<path d="M11.9451 35.155L53.2343 56.7781L69.1354 13.2889L11.9451 35.155Z" fill="#3EA1FB"/>
<path d="M28.9184 28.6653L53.2343 56.778L52.162 19.7784L28.9184 28.6653Z" fill="#93D8FF"/>
<path d="M53.2343 56.7781L28.9184 28.6654L11.9451 35.155L53.2343 56.7781Z" fill="#7BC3F5"/>
<path d="M15.6478 19.3995L11.9451 35.155L69.1354 13.2889L55.6605 4.10107L15.6478 19.3995Z" fill="#69C1FF"/>
<path opacity="0.3" d="M52.162 19.7784L35.6542 11.7502L28.9184 28.6653L52.162 19.7784Z" fill="#93D8FF"/>
<path d="M55.6605 4.10107L52.162 19.7785L69.1354 13.2889L55.6605 4.10107Z" fill="#93D8FF"/>
<path d="M15.6478 19.3995L28.9184 28.6654L11.9451 35.155L15.6478 19.3995Z" fill="#93D8FF"/>
</svg>
