<svg width="88" height="66" viewBox="0 0 88 66" fill="none" xmlns="http://www.w3.org/2000/svg">
<path d="M82.0619 3.53345L81.6745 8.55852L85.2224 12.1248L80.2166 11.7359L76.6641 15.2974L77.0514 10.2724L73.5035 6.70614L78.5094 7.09501L82.0619 3.53345Z" fill="white"/>
<path d="M10.5306 13.7876L29.2723 56.7914L69.1048 32.1671L10.5306 13.7876Z" fill="#3EA1FB"/>
<path d="M27.9146 19.2423L29.2722 56.7913L51.7207 26.7122L27.9146 19.2423Z" fill="#93D8FF"/>
<path d="M29.2723 56.7914L27.9146 19.2423L10.5306 13.7876L29.2723 56.7914Z" fill="#7BC3F5"/>
<path d="M23.3487 3.57971L10.5306 13.7876L69.1048 32.1671L64.3298 16.4388L23.3487 3.57971Z" fill="#69C1FF"/>
<path opacity="0.3" d="M51.7207 26.7123L43.8393 10.0093L27.9146 19.2424L51.7207 26.7123Z" fill="#93D8FF"/>
<path d="M64.3298 16.4387L51.7207 26.7122L69.1048 32.167L64.3298 16.4387Z" fill="#93D8FF"/>
<path d="M23.3487 3.57971L27.9146 19.2423L10.5306 13.7876L23.3487 3.57971Z" fill="#93D8FF"/>
</svg>
