<svg width="82" height="78" viewBox="0 0 82 78" fill="none" xmlns="http://www.w3.org/2000/svg">
<path d="M72.9232 10.8865L75.5105 15.1417L80.4649 15.9714L76.1571 18.5272L75.3173 23.4211L72.7299 19.1659L67.7755 18.3362L72.0832 15.7804L72.9232 10.8865Z" fill="white"/>
<path d="M11.2971 58.682L57.6926 52.6262L45.1615 8.06519L11.2971 58.682Z" fill="#3EA1FB"/>
<path d="M21.3476 43.6596L57.6926 52.6262L35.111 23.0876L21.3476 43.6596Z" fill="#93D8FF"/>
<path d="M57.6926 52.6262L21.3476 43.6595L11.2971 58.682L57.6926 52.6262Z" fill="#7BC3F5"/>
<path d="M5.07706 43.7185L11.2971 58.6821L45.1615 8.06519L28.77 8.30472L5.07706 43.7185Z" fill="#69C1FF"/>
<path opacity="0.3" d="M35.111 23.0876L16.9236 26.0116L21.3476 43.6596L35.111 23.0876Z" fill="#93D8FF"/>
<path d="M28.7701 8.30484L35.111 23.0877L45.1615 8.06531L28.7701 8.30484Z" fill="#93D8FF"/>
<path d="M5.07706 43.7184L21.3476 43.6595L11.2971 58.682L5.07706 43.7184Z" fill="#93D8FF"/>
</svg>
