<svg width="104" height="150" viewBox="0 0 104 150" fill="none" xmlns="http://www.w3.org/2000/svg">
<g clip-path="url(#clip0_19_109)">
<path d="M50.5134 13.1012C51.3178 13.0478 51.5934 12.8928 51.907 12.9341C71.9599 20.2668 87.0912 33.2343 95.6862 52.9631C97.8682 57.9396 98.7142 63.3779 98.3632 68.9453C97.7522 81.0811 89.8422 90.7554 78.1922 93.7168C72.1802 95.2841 66.1563 95.7341 60.2098 93.4191C59.2675 90.6475 58.4234 87.8569 57.3226 85.3195C55.5069 81.1887 52.5663 78.0897 48.1237 76.7066C44.8559 75.6059 41.9103 76.1745 40.6425 78.0487C38.9785 80.5086 39.5091 83.2579 41.2214 85.2699C43.5952 88.0708 46.3239 90.5994 49.1128 92.9128C50.9267 94.396 53.1748 95.49 55.2264 96.621C55.6986 108.039 46.1021 114.78 32.6434 112.59C31.9474 111.095 31.2325 109.502 30.4384 108.026C27.3565 102.611 22.8708 98.894 16.5816 97.969C14.1716 97.62 11.6601 97.7991 10.0943 100.24C8.92471 102.095 9.45531 104.844 11.5569 107.29C14.9436 111.118 19.3604 113.423 23.996 115.278C25.6394 115.877 27.2827 116.477 28.9072 116.978C30.2219 134.343 17.1562 149.494 0.610611 145.558C0.955111 146.816 1.06541 147.915 1.57181 148.428C2.17651 148.922 3.35131 149.205 4.25391 149.133C12.9031 149.093 20.4705 146.614 25.6777 139.294C29.6172 133.849 31.7962 127.725 32.7435 121.024C32.8675 120.084 32.9915 119.143 33.2137 118.184C33.1947 118.086 33.3722 117.949 33.7081 117.579C34.6107 117.507 35.6908 117.298 36.8087 117.286C50.3639 116.809 56.5548 111.947 60.2737 98.4991C61.5277 98.6641 62.9781 98.792 64.3493 99.036C72.4025 100.13 80.0012 98.8671 87.1672 94.8361C98.8412 88.3056 104.826 76.0492 103.095 62.3287C102.165 54.8699 99.5242 48.0466 95.5462 41.6852C85.8632 26.3421 72.7384 15.3298 55.1833 9.85745C54.303 9.51815 53.3435 9.29595 52.4633 8.95655C52.3461 8.87735 52.2101 8.69995 51.8018 8.16765C54.9886 6.73785 58.1874 6.42595 61.3674 6.01595C64.4301 5.52665 67.629 5.21475 71.0053 4.76685C70.218 2.27079 68.6539 1.55423 66.871 1.28726C64.7935 1.07714 62.6782 0.670661 60.6954 0.951481C55.3554 1.77844 49.9361 2.72253 44.5926 4.05938C40.4274 5.16885 39.685 7.65455 42.2138 10.7311C47.6419 17.2201 53.1681 23.69 58.6944 30.16C59.6091 31.2056 60.6823 32.0169 62.0277 33.1831C63.4763 30.6629 62.3876 29.2435 61.416 27.9033C57.7416 23.1129 54.2825 18.3827 50.5134 13.1012ZM13.5705 102.421C20.5161 101.997 25.572 105.502 27.0415 111.533C21.9563 109.459 17.0072 107.562 13.5705 102.421ZM43.8207 80.7962C49.8791 81.0528 53.3864 84.4496 53.9533 90.5527C49.6157 88.1308 45.7088 85.8296 43.8207 80.7962Z" fill="black"/>
</g>
<defs>
<clipPath id="clip0_19_109">
<rect width="104" height="150" fill="white"/>
</clipPath>
</defs>
</svg>
