<svg width="102" height="64" viewBox="0 0 102 64" fill="none" xmlns="http://www.w3.org/2000/svg">
<path d="M37.1098 28.3416C45.0159 13.2332 64.2882 7.24818 88.5464 12.1471C85.1243 14.9753 79.1426 13.0322 77.5157 18.1475C77.9646 18.7192 78.1553 19.4201 78.3484 19.4828C85.1743 19.2511 92.0647 19.1466 98.8915 18.5959C101.21 18.3908 102.762 16.3393 101.611 14.0486C99.244 9.33973 96.9432 4.43909 92.1283 0C91.5394 3.00304 91.1455 5.11143 90.8833 6.51707C83.6746 5.66604 76.661 4.23949 69.707 4.2167C53.0957 3.93157 39.4884 10.2663 30.6186 24.742C29.1942 27.0479 27.5184 27.5684 25.1347 27.9654C14.892 29.4298 7.01903 34.6457 2.09473 43.8012C0.345287 47.0663 -1.47027 50.8424 1.86216 55.5455C2.98057 48.4548 6.15216 43.5219 10.9303 39.5369C15.6434 35.7437 20.8683 32.9686 27.0493 33.0598C28.5769 38.3479 29.4605 43.6399 31.7632 48.2214C33.9368 52.8675 37.1413 57.3162 40.7349 60.9328C44.4565 64.8039 49.7367 64.7089 53.5435 62.3251C57.3505 59.9414 58.9113 55.337 57.4477 50.1762C55.0929 41.9572 49.7052 35.7345 42.4443 31.2459C40.7098 30.0435 38.8453 29.2248 37.1098 28.3416ZM35.2238 33.9051C43.5827 37.366 48.4577 42.8898 51.3307 50.2122C52.224 52.6322 52.7303 55.2458 49.9564 56.7939C47.5695 58.1482 45.4491 56.8204 43.9097 55.0425C38.7128 49.5207 35.8377 42.8364 35.2238 33.9051Z" fill="#2FA12C"/>
</svg>
