<?xml version="1.0" encoding="utf-8"?><svg viewBox="0 0 256 300" xmlns="http://www.w3.org/2000/svg" xmlns:xlink="http://www.w3.org/1999/xlink"><style>:root>svg{display:none}:root>svg:target{display:block}</style><svg viewBox="0 0 46 46" id="arrow-type-1" xmlns="http://www.w3.org/2000/svg"><path d="M42.015 21.278c1.313.772 1.313 2.672 0 3.444L6.009 45.881C4.678 46.663 3 45.703 3 44.159V1.84C3 .297 4.678-.663 6.01.12l36.005 21.159z"/></svg><svg viewBox="0 0 26 26" id="close" xmlns="http://www.w3.org/2000/svg"><path fill-rule="evenodd" clip-rule="evenodd" d="M25.02 25.728L.273.979.98.272l24.749 24.749-.707.707z"/><path fill-rule="evenodd" clip-rule="evenodd" d="M25.728.98L.979 25.727l-.707-.707L25.021.272l.707.707z"/></svg><svg fill="none" viewBox="0 0 82 78" id="diamond-1" xmlns="http://www.w3.org/2000/svg"><path d="M72.923 10.886l2.587 4.256 4.955.83-4.308 2.555-.84 4.894-2.587-4.255-4.955-.83 4.308-2.556.84-4.893z" fill="#fff"/><path d="M11.297 58.682l46.396-6.056L45.16 8.066 11.297 58.681z" fill="#3EA1FB"/><path d="M21.348 43.66l36.345 8.966L35.11 23.088 21.348 43.66z" fill="#93D8FF"/><path d="M57.693 52.626L21.348 43.66l-10.05 15.022 46.395-6.056z" fill="#7BC3F5"/><path d="M5.077 43.718l6.22 14.964L45.161 8.065l-16.391.24L5.077 43.718z" fill="#69C1FF"/><path opacity=".3" d="M35.111 23.088l-18.187 2.924 4.424 17.648L35.11 23.088z" fill="#93D8FF"/><path d="M28.77 8.305l6.341 14.783 10.05-15.023-16.39.24zM5.077 43.718l16.27-.059-10.05 15.023-6.22-14.964z" fill="#93D8FF"/></svg><svg fill="none" viewBox="0 0 88 66" id="diamond-2" xmlns="http://www.w3.org/2000/svg"><path d="M82.062 3.533l-.388 5.026 3.548 3.566-5.005-.39-3.553 3.562.387-5.025-3.547-3.566 5.005.389 3.553-3.562z" fill="#fff"/><path d="M10.53 13.788L29.273 56.79l39.833-24.624-58.574-18.38z" fill="#3EA1FB"/><path d="M27.915 19.242l1.357 37.55 22.449-30.08-23.806-7.47z" fill="#93D8FF"/><path d="M29.272 56.791l-1.357-37.549-17.384-5.454L29.272 56.79z" fill="#7BC3F5"/><path d="M23.349 3.58L10.53 13.788l58.574 18.38-4.775-15.73L23.349 3.58z" fill="#69C1FF"/><path opacity=".3" d="M51.72 26.712L43.84 10.01l-15.925 9.233 23.806 7.47z" fill="#93D8FF"/><path d="M64.33 16.439L51.72 26.712l17.385 5.455-4.775-15.728zM23.349 3.58l4.566 15.662-17.384-5.454L23.349 3.58z" fill="#93D8FF"/></svg><svg fill="none" viewBox="0 0 96 68" id="diamond-3" xmlns="http://www.w3.org/2000/svg"><path d="M90.067 31.48l-.386 4.949 3.544 3.512-5.001-.383-3.55 3.508.388-4.95-3.545-3.511 5.001.383 3.55-3.508zM11.246 48.48l-.387 4.949 3.545 3.512-5.001-.383-3.55 3.508.388-4.95-3.545-3.511 5.001.383 3.55-3.508z" fill="#fff"/><path d="M11.945 35.155l41.29 21.623 15.9-43.49-57.19 21.867z" fill="#3EA1FB"/><path d="M28.918 28.665l24.316 28.113-1.072-37-23.244 8.887z" fill="#93D8FF"/><path d="M53.234 56.778L28.918 28.665l-16.973 6.49 41.29 21.623z" fill="#7BC3F5"/><path d="M15.648 19.4l-3.703 15.755 57.19-21.866L55.66 4.1 15.648 19.4z" fill="#69C1FF"/><path opacity=".3" d="M52.162 19.778L35.654 11.75l-6.736 16.915 23.244-8.887z" fill="#93D8FF"/><path d="M55.66 4.101L52.163 19.78l16.973-6.49L55.66 4.1zM15.648 19.4l13.27 9.265-16.973 6.49 3.703-15.756z" fill="#93D8FF"/></svg><svg fill="none" viewBox="0 0 90 70" id="diamond-4" xmlns="http://www.w3.org/2000/svg"><path d="M11.772 35.594l-.383 4.95 3.508 3.512-4.949-.383-3.512 3.507.383-4.949L3.31 38.72l4.95.383 3.511-3.508z" fill="#fff"/><g clip-path="url(#fclip0_18_60)"><path d="M28.284 13.238l14.267 43.971 41.577-20.254-55.844-23.717z" fill="#3EA1FB"/><path d="M44.858 20.277L42.55 57.209l25.003-27.293-22.696-9.639z" fill="#93D8FF"/><path d="M42.551 57.21l2.307-36.933-16.574-7.039 14.267 43.971z" fill="#7BC3F5"/><path d="M41.885 4.482l-13.601 8.756 55.844 23.717-3.172-15.88-39.07-16.593z" fill="#69C1FF"/><path opacity=".3" d="M67.554 29.916l-6.133-17.137-16.563 7.498 22.696 9.639z" fill="#93D8FF"/><path d="M80.956 21.075l-13.402 8.841 16.574 7.039-3.172-15.88zM41.885 4.482l2.973 15.795-16.574-7.039 13.601-8.756z" fill="#93D8FF"/></g><defs><clipPath id="fclip0_18_60"><path fill="#fff" transform="rotate(23.011 14.481 82.784)" d="M0 0h60.672v48.272H0z"/></clipPath></defs></svg><svg fill="none" viewBox="0 0 78 66" id="diamond-5" xmlns="http://www.w3.org/2000/svg"><path d="M74.11 53.381l-3.095 3.881.932 4.876-3.88-3.095-4.876.932 3.094-3.881-.931-4.876 3.88 3.095 4.876-.932z" fill="#fff"/><path d="M8.064 13.032l21.68 40.83L67.176 26.7 8.064 13.032z" fill="#3EA1FB"/><path d="M25.608 17.089l4.136 36.772 19.888-31.218-24.024-5.554z" fill="#93D8FF"/><path d="M29.744 53.861L25.608 17.09 8.064 13.032l21.68 40.83z" fill="#7BC3F5"/><path d="M19.94 2.05L8.063 13.031 67.176 26.7 61.297 11.61 19.939 2.05z" fill="#69C1FF"/><path opacity=".3" d="M49.633 22.643L40.617 6.83 25.608 17.09l24.024 5.554z" fill="#93D8FF"/><path d="M61.297 11.611L49.632 22.643 67.176 26.7l-5.88-15.088zM19.94 2.05l5.668 15.039-17.544-4.057L19.939 2.05z" fill="#93D8FF"/></svg><svg fill="none" viewBox="0 0 256 300" id="el-1" xmlns="http://www.w3.org/2000/svg"><path d="M156.38 244.439c-4.35 0-8.004-1.041-10.788-2.949-2.958-2.082-6.264-6.247-5.742-14.575.522-11.799 4.872-19.954 12.006-23.077a11.05 11.05 0 013.132-1.041c1.218-.347 2.436-.694 3.306-1.215 2.784-1.562 4.176-5.032 5.568-8.502 1.392-3.47 2.784-6.94 5.742-9.717 2.784-2.776 6.786-3.99 11.136-3.643 5.046.347 9.918 2.776 13.05 6.767 4.872 6.072 6.264 14.748 4.002 24.291-3.306 13.881-14.094 25.853-27.84 31.232-4.872 1.388-9.57 2.429-13.572 2.429zm23.142-60.035c-2.61 0-4.872.868-6.438 2.43-2.088 1.908-3.306 4.858-4.524 7.808-1.74 4.164-3.48 8.502-7.83 11.104-1.392.868-2.958 1.388-4.35 1.735-.87.347-1.74.521-2.61.868-7.134 3.123-8.526 13.013-8.874 18.566-.174 4.858 1.044 8.155 3.654 10.063 4.698 3.471 13.224 1.909 19.488-.52 12.18-4.859 21.75-15.443 24.708-27.588 1.914-7.808.696-15.096-2.958-19.781-2.262-2.776-5.742-4.511-9.396-4.685h-.87z" fill="#F89422"/><path d="M146.984 257.973c-3.654 0-7.308-.347-10.788-1.214-6.786-1.562-12.528-6.073-16.181-12.84-4.524-8.502-5.22-19.26-1.914-28.283 4.001-10.757 13.745-20.127 26.447-25.506 1.044-.52 2.088-.867 3.132-1.214 3.828-1.562 7.482-2.95 10.092-5.379 1.566-1.562 2.958-3.47 4.35-5.379.522-.868 1.218-1.562 1.74-2.429 5.568-7.635 15.834-15.269 27.492-13.708 7.656 1.042 14.964 6.073 19.139 13.534 3.654 6.247 5.22 14.055 4.698 22.557-1.044 15.095-8.525 30.017-20.705 40.775-10.962 10.064-29.58 19.086-47.502 19.086zm41.586-90.92c-8.526 0-16.008 5.9-20.358 11.799-.522.694-1.044 1.562-1.566 2.256-1.566 2.082-2.958 4.337-5.046 6.246-3.48 3.123-7.656 4.858-11.832 6.42-1.044.347-2.088.868-3.132 1.215-11.31 4.858-20.01 13.013-23.49 22.556-2.783 7.461-2.261 17.004 1.566 23.945 2.088 3.817 5.916 8.675 12.702 10.237 19.14 4.338 41.238-5.553 53.766-16.657 11.136-9.89 18.096-23.424 18.966-37.305.348-5.206-.001-12.84-4.002-19.607-3.48-5.899-9.396-10.064-15.312-10.931-.696-.174-1.566-.174-2.262-.174z" fill="#F89422"/><path d="M133.586 277.233c-14.267 0-24.533-4.164-30.797-12.319-11.136-14.575-10.266-35.223-4.35-49.278 7.83-19.259 24.185-31.752 36.365-38.866 2.958-1.735 5.916-3.297 8.7-4.858 3.828-2.083 7.83-4.165 11.658-6.594 3.132-1.908 6.264-4.164 9.222-6.246 10.44-7.461 21.228-15.096 34.278-14.922 9.744.173 19.487 5.205 26.273 13.36 5.916 7.114 9.57 16.657 10.788 27.241 2.262 22.036-6.96 45.287-24.882 62.291-15.311 14.575-36.713 24.465-61.421 28.629-5.742 1.215-10.962 1.562-15.834 1.562zm64.554-127.878c-11.136 0-20.706 6.767-30.798 13.881-3.132 2.256-6.264 4.511-9.396 6.42-3.828 2.429-8.004 4.685-11.832 6.767-2.784 1.561-5.742 3.123-8.526 4.685-11.484 6.767-26.795 18.565-34.103 36.264-5.22 12.666-6.09 31.405 3.654 44.245 7.134 9.37 21.227 12.319 41.585 9.023 23.664-3.818 44.022-13.361 58.638-27.242 16.703-15.963 25.403-37.652 23.315-58.126-1.044-9.717-4.35-18.045-9.57-24.465-5.916-7.114-14.267-11.278-22.445-11.452h-.522z" fill="#F89422"/><path d="M133.412 299.616c-3.828 0-7.308-.174-10.788-.694-14.093-2.082-25.75-8.849-33.58-19.954-10.093-14.054-13.747-34.182-9.919-54.829 3.306-18.913 13.92-36.611 29.058-48.584 7.482-5.899 16.007-10.584 24.359-14.922 2.61-1.388 5.22-2.776 7.83-4.337 3.48-1.909 6.96-3.991 10.266-5.9 9.048-5.379 18.444-10.931 28.536-14.748 16.356-6.247 32.015-6.594 44.369-1.041 11.136 5.032 20.358 15.095 26.1 28.456 11.31 26.547 6.264 60.208-12.876 85.888-16.53 22.209-43.151 38.693-74.993 46.848-10.44 2.602-19.836 3.817-28.362 3.817zm-10.092-5.899c10.788 1.561 22.794.52 37.062-3.124 30.624-7.634 56.201-23.597 72.035-44.766 18.096-24.118 22.968-55.87 12.354-80.682-5.22-12.146-13.572-21.342-23.49-25.853-11.136-5.032-25.403-4.685-40.367 1.041-9.744 3.643-18.792 9.196-27.666 14.401-3.306 2.082-6.786 3.991-10.266 6.073-2.61 1.388-5.22 2.95-7.83 4.338-8.004 4.337-16.355 8.849-23.489 14.401-14.442 11.278-24.36 27.935-27.666 45.634-3.48 19.086-.174 37.999 9.048 50.838 7.308 9.891 17.4 15.963 30.275 17.699z" fill="#F89422"/><path d="M176.322 218.185L110.621 92.358l-34.33 18.374 100.031 107.453z" fill="#1D471B"/><path d="M0 104.501l116.715 30.973 14.441-119.942L0 104.5z" fill="#3EA1FB"/><path d="M38.925 78.096l77.79 57.378L92.23 41.937 38.925 78.096z" fill="#93D8FF"/><path d="M116.715 135.474l-77.79-57.378L0 104.5l116.715 30.973z" fill="#7BC3F5"/><path d="M.049 62.246L0 104.501l131.156-88.97L91.811.002.05 62.245z" fill="#69C1FF"/><path opacity=".3" d="M92.23 41.937l-46.3-10.814-7.005 46.973 53.305-36.16z" fill="#93D8FF"/><path d="M91.811 0l.42 41.937 38.925-26.405L91.811 0zM.049 62.246l38.877 15.85L0 104.5l.049-42.255z" fill="#93D8FF"/><path fill-rule="evenodd" clip-rule="evenodd" d="M153.827 154.13l-13.874-23.833.864-.503 13.874 23.833-.864.503zM134.757 188.231l-17.755-21.101.766-.644 17.754 21.102-.765.643zM160.831 153.136l-5.874-9.762.856-.516 5.875 9.763-.857.515zM133.488 195.913l-7.48-8.594.754-.657 7.48 8.594-.754.657z" fill="#1D471B"/></svg><svg fill="none" viewBox="0 0 146 87" id="el-2" xmlns="http://www.w3.org/2000/svg"><path d="M3.046 51.72C.846 57.121-.157 62.862.02 68.764c.08 2.861.92 6.191 3.619 7.287 2.877 1.08 5.722-1.156 7.953-3.245A615.433 615.433 0 0134.646 52.21c2.166-1.814 5.044-3.694 7.42-2.209 1.228.693 1.793 1.986 2.359 3.28 2.714 6.204 5.525 12.49 8.24 18.694 1.583 3.62 4.12 7.87 8.112 7.41 1.956-.18 3.443-1.573 4.85-2.868A102.688 102.688 0 0075.99 65.248c3.12-4.143 6.207-8.642 10.945-10.783.953-.357 2.084-.73 3.022-.279 1.019.354 1.665 1.55 2.198 2.487l8.822 17.207c2.618 5.138 5.817 10.76 11.248 12.321 4.331 1.304 9.1-.48 12.689-3.413 3.589-2.93 6.014-6.83 8.359-10.634 3.832-6.182 7.745-12.46 9.993-19.303 1.278-3.704-6.254-5.699-10.231-5.063-3.798.62-6.951 3.422-9.554 6.352-2.506 3.01-4.721 6.263-7.809 8.79-.582.502-1.261.923-1.972.99-1.875.082-3.167-2.309-3.797-4.313-1.341-3.91-2.779-7.902-5.154-11.359-2.376-3.457-5.77-6.282-9.713-7.262-5.949-1.334-12.044 1.65-16.619 5.568-4.575 3.92-8.422 8.937-13.305 12.436-.5.405-1.18.826-1.907.714-.728-.112-1.05-.71-1.455-1.21-3.506-5.057-7.093-10.015-10.697-15.152-1.341-1.938-2.78-3.957-4.864-5.2-4.735-2.79-10.813-.615-15.388 2.318-5.351 3.273-10.072 7.564-14.114 12.42-.566.68-1.132 1.36-1.908 1.701-1.39.487-2.925-.627-3.75-1.806-.823-1.179-1.583-2.633-2.827-3.505-1.422-.855-4.478 1.041-5.157 2.45z" fill="#545FF5"/><path d="M5.333 14.658c-2.2 5.403-3.203 11.144-3.026 17.045.08 2.862.92 6.192 3.619 7.287 2.877 1.08 5.722-1.156 7.953-3.244a615.518 615.518 0 0123.054-20.599c2.166-1.813 5.044-3.693 7.42-2.209 1.228.694 1.793 1.987 2.359 3.28 2.714 6.204 5.525 12.49 8.24 18.695 1.583 3.62 4.12 7.868 8.112 7.41 1.956-.18 3.443-1.573 4.85-2.868a102.687 102.687 0 0010.364-11.268c3.12-4.143 6.207-8.643 10.944-10.783.955-.357 2.086-.73 3.024-.28 1.017.355 1.663 1.55 2.197 2.488l8.821 17.207c2.618 5.138 5.817 10.76 11.247 12.321 4.332 1.303 9.101-.482 12.69-3.413 3.508-2.834 6.014-6.831 8.359-10.634 3.832-6.182 7.745-12.46 9.993-19.303 1.278-3.704-6.254-5.699-10.231-5.063-3.798.62-6.951 3.421-9.554 6.351-2.506 3.011-4.721 6.264-7.809 8.79-.582.503-1.261.924-1.972.99-2.037.277-3.329-2.114-4.137-4.101-1.341-3.911-2.779-7.903-5.154-11.36-2.375-3.456-5.769-6.281-9.712-7.262-5.948-1.334-12.042 1.65-16.617 5.569-4.576 3.919-8.424 8.936-13.306 12.435-.501.405-1.18.826-1.908.714-.727-.112-1.05-.71-1.454-1.21-3.507-5.056-7.094-10.015-10.697-15.152-1.342-1.938-2.78-3.957-4.865-5.2C43.402-1.498 37.324.677 32.75 3.61c-5.35 3.273-10.072 7.565-14.114 12.42-.565.68-1.131 1.36-1.907 1.701-1.39.487-2.926-.627-3.75-1.806-.824-1.179-1.583-2.633-2.828-3.504-1.244-.872-4.316.846-4.817 2.238z" fill="#545FF5"/></svg><svg fill="none" viewBox="0 0 206 195" id="el-3" xmlns="http://www.w3.org/2000/svg"><path d="M0 194.863l116.333-81.336-22.636-31.683L0 194.863z" fill="#1D471B"/><path d="M90.066 5.386L74.358 125.115l120.803-1.104L90.065 5.386z" fill="#3EA1FB"/><path d="M121.257 40.592l-46.898 84.523 89.611-36.31-42.713-48.213z" fill="#93D8FF"/><path d="M74.359 125.115l46.898-84.523L90.065 5.386 74.36 125.115z" fill="#7BC3F5"/><path d="M131.975 0l-41.91 5.386L195.162 124.01l10.343-41.015L131.975 0z" fill="#69C1FF"/><path opacity=".3" d="M163.97 88.805l4.77-47.307-47.483-.906 42.713 48.213z" fill="#93D8FF"/><path d="M205.505 82.996l-41.535 5.81 31.192 35.205 10.343-41.015zM131.975 0l-10.718 40.592L90.065 5.386 131.976 0z" fill="#93D8FF"/><path fill-rule="evenodd" clip-rule="evenodd" d="M60.63 164.318l21.85-16.824.61.792-21.85 16.824-.61-.792zM24.36 149.791l18.643-20.32.737.676-18.644 20.32-.737-.676zM62.517 171.135l8.925-7.08.622.783-8.926 7.081-.621-.784zM16.578 149.521l7.561-8.523.748.663-7.56 8.523-.749-.663z" fill="#1D471B"/></svg><svg fill="none" viewBox="0 0 104 150" id="el-4" xmlns="http://www.w3.org/2000/svg"><g clip-path="url(#kclip0_19_109)"><path d="M50.513 13.101c.805-.053 1.08-.208 1.394-.167 20.053 7.333 35.184 20.3 43.78 40.03 2.181 4.976 3.027 10.414 2.676 15.981-.61 12.136-8.52 21.81-20.17 24.772-6.013 1.567-12.037 2.017-17.983-.298-.943-2.772-1.787-5.562-2.887-8.1-1.816-4.13-4.757-7.23-9.2-8.612-3.267-1.101-6.213-.532-7.48 1.342-1.665 2.46-1.134 5.209.578 7.22 2.374 2.802 5.103 5.33 7.892 7.644 1.814 1.483 4.062 2.577 6.113 3.708.473 11.418-9.124 18.159-22.583 15.969-.696-1.495-1.41-3.088-2.205-4.564-3.081-5.415-7.567-9.132-13.856-10.057-2.41-.349-4.922-.17-6.488 2.271-1.17 1.855-.639 4.604 1.463 7.05 3.387 3.828 7.803 6.133 12.439 7.988 1.643.599 3.287 1.199 4.911 1.7 1.315 17.365-11.75 32.516-28.296 28.58.344 1.258.454 2.357.96 2.87.606.494 1.78.777 2.683.705 8.65-.04 16.216-2.519 21.424-9.839 3.94-5.445 6.118-11.569 7.065-18.27.124-.94.248-1.881.47-2.84-.018-.098.16-.235.495-.605.903-.072 1.983-.281 3.1-.293 13.556-.477 19.747-5.339 23.466-18.787 1.254.165 2.704.293 4.075.537 8.053 1.094 15.652-.169 22.818-4.2 11.674-6.53 17.659-18.787 15.928-32.507-.93-7.46-3.57-14.282-7.549-20.644C85.863 26.342 72.738 15.33 55.183 9.857c-.88-.339-1.84-.561-2.72-.9-.117-.08-.253-.257-.661-.79 3.187-1.43 6.385-1.741 9.565-2.151 3.063-.49 6.262-.801 9.638-1.25-.787-2.495-2.351-3.212-4.134-3.479-2.078-.21-4.193-.616-6.176-.336-5.34.827-10.759 1.772-16.102 3.108-4.166 1.11-4.908 3.596-2.38 6.672 5.429 6.49 10.955 12.959 16.481 19.429.915 1.046 1.988 1.857 3.334 3.023 1.448-2.52.36-3.94-.612-5.28-3.674-4.79-7.133-9.52-10.903-14.802zm-36.942 89.32c6.945-.424 12.001 3.081 13.47 9.112-5.085-2.074-10.034-3.971-13.47-9.112zm30.25-21.625c6.058.257 9.565 3.654 10.132 9.757-4.337-2.422-8.244-4.723-10.132-9.757z" fill="#000"/></g><defs><clipPath id="kclip0_19_109"><path fill="#fff" d="M0 0h104v150H0z"/></clipPath></defs></svg><svg fill="none" viewBox="0 0 216 200" id="el-5" xmlns="http://www.w3.org/2000/svg"><path d="M198.017 118.122c-.523 2.294-1.263 4.724-2.003 7.155-8.267 24.848-29.514 45.621-55.141 53.883-12.027 3.939-24.332 5.031-35.817 3.338-20.243-3.134-40.252-16.24-54.731-35.696-10.334-14.054-16.834-29.462-18.413-44.489-1.357-12.749.268-25.56 5.203-37.43 4.637-11.38 11.652-20.177 20.138-25.667 7.363-4.632 16.52-7.37 28.609-8.324 26.277-2.173 50.405 4.26 68.016 18.119 20.11 15.914 30.158 41.785 24.963 64.55l-.04.176c-2.215 9.706-7.452 19.65-15.237 29.385-7.786 9.734-20.648 22.209-37.813 25.904-12.315 2.76-26.132.721-38.805-5.513-10.816-5.438-20.77-13.836-29.863-25.194-6.212-7.73-10.62-15.234-13.362-22.729-6.218-16.643-4.634-35.775 4.263-51.197 4.361-7.73 10.163-13.648 16.675-16.989 7.162-3.75 15.17-4.707 22.882-5.175 9.026-.54 19.774-.5 29.935 2.931 9.414 3.448 18.456 10.153 27.615 20.412 7.99 8.878 13.079 17.465 15.579 26.019 6.349 20.943-2.109 45.005-20.366 57.548-17.783 12.095-43.496 11.797-61.213-.786-17.581-12.366-26.662-35.974-22.182-57.231 1.555-7.628 4.576-14.365 8.902-19.505 9.503-11.57 26.421-16.622 41.815-12.552 13.847 3.531 26.436 14.201 33.787 28.318 3.199 6.3 4.892 11.884 4.919 17.46.238 9.523-4.43 19.412-12.276 26.161-7.157 6.165-16.651 9.568-26.085 9.458-6.452-.173-12.935-1.838-19.625-5.035-8.331-4.129-14.321-9.58-16.911-16.112-4.198-10.055-.522-21.284 3.118-29.922 1.928-4.387 4.194-9.44 8.062-13.385 6.708-6.638 17.9-8.54 26.801-4.467 8.588 3.817 14.735 12.645 15.678 22.33 1.039 10.076-4.102 20.414-12.346 24.845-9.031 4.623-21.372 1.807-26.717-6.468-2.625-3.94-3.654-9.188-3.191-14.466.583-5.808 3.202-10.78 6.964-13.45 3.546-2.532 8.492-3.075 13.131-1.46 4.639 1.616 7.914 5.148 9.143 9.514 1.094 4.148.128 8.383-2.536 11.117-3.178 3.36-8.341 4.038-12.033 1.525-1.915-1.365-3.235-3.709-3.376-6.34-.005-2.415.87-4.629 2.467-5.936 1.163-1.034 2.79-.848 3.823.316s.847 2.792-.317 3.826c-.473.45-.674 1.332-.538 1.548-.025.923.383 1.573 1.007 2.087 1.29.851 3.567.628 4.811-.759 1.42-1.347 1.807-3.858 1.192-6.04-.71-2.576-2.816-4.727-5.733-5.764-2.916-1.037-5.938-.798-7.968.78-2.639 1.812-4.366 5.317-4.803 9.673-.398 4.179.384 8.071 2.328 10.928 3.85 5.891 13.057 7.807 19.786 4.329 6.376-3.558 10.425-11.545 9.648-19.52-.682-7.582-5.7-14.854-12.429-17.875-6.906-3.06-15.565-1.695-20.812 3.42-3.138 3.183-5.202 7.354-6.914 11.604-3.182 7.443-6.359 17.301-3.033 25.486 2.766 6.572 9.214 10.829 14.221 13.271 6.025 2.86 11.802 4.364 17.333 4.512 8.119.181 16.218-2.798 22.428-8.064 6.683-5.716 10.595-13.921 10.388-21.951-.052-4.653-1.513-9.628-4.345-15.102-6.535-12.816-17.915-22.282-30.351-25.491-13.495-3.45-28.192.808-36.41 10.815-3.636 4.554-6.456 10.409-7.81 17.155-3.86 19.356 4.47 40.565 20.272 51.782 15.979 11.259 39.063 11.699 54.897.831 16.051-11.005 23.85-32.99 18.211-51.357-2.485-7.807-7.165-15.745-14.571-23.933-8.574-9.568-16.816-15.719-25.606-18.653-9.278-3.23-19.322-3.11-27.779-2.625-7.142.412-14.365 1.178-20.7 4.56-5.51 3.012-10.582 8.167-14.525 14.88-8.046 14.13-9.404 31.458-3.785 46.664 2.51 6.885 6.686 13.779 12.586 21.252 8.509 10.668 18.015 18.592 28.165 23.693 11.656 5.816 24.062 7.533 35.375 5.101 15.634-3.487 27.55-15.064 34.781-23.996 7.272-9.109 12.131-18.212 14.185-27.212l.04-.176c4.711-20.647-4.545-44.296-23.094-58.925-16.498-13.047-39.391-19.2-64.178-17.058-11.166.98-19.497 3.35-26.21 7.573-9.57 6.17-15.119 15.858-18.085 23.165-4.556 11.028-6.156 22.916-4.774 34.743 1.604 14.104 7.56 28.645 17.525 41.873 13.527 17.939 32.07 30.153 51.08 33.006 10.562 1.667 22.122.592 33.324-2.979 24.055-7.878 43.882-27.304 51.61-50.605 8.105-24.142 2.676-51.559-13.495-70.101-10.152-11.6-25.244-20.242-42.264-24.497C120.358 25.21 103.983 24.63 85.08 27c-15.448 1.86-27.002 5.35-36.057 10.895C37.449 44.723 29.638 55.38 27.67 66.442c-.322 1.411-1.662 2.405-3.113 2.26-1.41-.322-2.403-1.662-2.257-3.114 2.114-12.514 11.032-24.775 23.729-32.46 9.881-5.914 22.045-9.637 38.279-11.688 19.472-2.426 36.552-1.685 52.026 2.032 18.431 4.577 33.971 13.692 45.019 26.239 15.86 18.285 22.14 44.411 16.663 68.411z" fill="#fff"/></svg><svg fill="none" viewBox="0 0 164 176" id="el-6" xmlns="http://www.w3.org/2000/svg"><path d="M45.413 115.562c-11.463 10.601-22.825 22.714-26.447 37.889-1.21 4.629-1.39 9.874.873 14.127 2.942 5.271 9.429 7.808 15.319 8.262 13.477 1.252 26.446-5.048 37.94-11.784 13.98-8.261 27.191-17.763 40.311-27.486 17.686-13.128 35.674-27.412 46.084-46.896 4.261-7.936 6.894-18.573 1.396-25.65-12.169-15.748-42.239-1.212-54.925 7.042-20.665 14.079-41.695 27.272-60.551 44.496z" fill="#FFB3B9"/><path d="M25.706 61.241c-7.17 6.532-14.109 14.262-16.44 23.742-.645 2.848-.796 6.27.518 8.841 1.9 3.365 5.882 4.852 9.63 5.141 8.345.749 16.607-3.123 23.708-7.298 8.788-5.12 16.99-11.035 25.322-17.263 11.171-8.156 22.29-17.067 28.924-29.328 2.635-4.949 4.32-11.58.894-16.137-7.66-9.82-26.448-.64-34.256 4.34-13.17 8.968-26.393 17.18-38.3 27.962z" fill="#2FA12C"/><path d="M10.63 22.625C6.117 26.785 1.785 31.389.362 37.397c-.565 1.78-.504 3.825.446 5.508C1.94 45.03 4.354 45.86 6.81 46.157c5.355.412 10.375-1.885 14.991-4.535 5.414-3.232 10.646-6.908 15.787-10.805 6.96-5.153 14.05-10.617 17.957-18.151 1.534-3.21 2.483-7.215.32-9.957-4.821-6.06-16.548-.522-21.427 2.751-8.161 5.383-16.413 10.543-23.806 17.165z" fill="#F89422"/></svg><svg fill="none" viewBox="0 0 102 64" id="el-7" xmlns="http://www.w3.org/2000/svg"><path d="M37.11 28.342c7.906-15.109 27.178-21.094 51.436-16.195-3.422 2.828-9.403.885-11.03 6 .449.572.64 1.273.832 1.336 6.826-.232 13.717-.336 20.543-.887 2.319-.205 3.871-2.257 2.72-4.547-2.367-4.71-4.668-9.61-9.483-14.049a670.083 670.083 0 00-1.245 6.517c-7.208-.851-14.222-2.278-21.176-2.3-16.611-.285-30.219 6.05-39.088 20.525-1.425 2.306-3.1 2.826-5.484 3.223-10.243 1.465-18.116 6.68-23.04 15.836-1.75 3.265-3.565 7.041-.233 11.744 1.119-7.09 4.29-12.023 9.068-16.008 4.713-3.793 9.938-6.568 16.12-6.477 1.527 5.288 2.41 10.58 4.713 15.161 2.174 4.647 5.378 9.095 8.972 12.712 3.721 3.87 9.002 3.776 12.809 1.392 3.806-2.384 5.367-6.988 3.904-12.149-2.355-8.219-7.743-14.442-15.004-18.93-1.734-1.202-3.599-2.021-5.334-2.904zm-1.886 5.563c8.359 3.461 13.234 8.985 16.107 16.307.893 2.42 1.4 5.034-1.375 6.582-2.387 1.354-4.507.026-6.046-1.752-5.197-5.521-8.072-12.206-8.686-21.137z" fill="#2FA12C"/></svg><svg viewBox="0 0 40 40" id="sc-discord" xmlns="http://www.w3.org/2000/svg"><path d="M33.242 7.707a31.073 31.073 0 00-7.87-2.473c-.34.613-.736 1.437-1.01 2.093a28.9 28.9 0 00-8.722 0 22.358 22.358 0 00-1.02-2.093 30.97 30.97 0 00-7.877 2.48C1.762 15.24.41 22.58 1.087 29.816c3.303 2.467 6.505 3.965 9.653 4.946a24.013 24.013 0 002.067-3.405 20.334 20.334 0 01-3.255-1.584c.273-.203.54-.414.798-.632 6.277 2.936 13.098 2.936 19.3 0 .261.218.528.43.798.632a20.282 20.282 0 01-3.261 1.587 23.908 23.908 0 002.067 3.405c3.15-.98 6.355-2.48 9.66-4.95.791-8.388-1.354-15.66-5.672-22.109zm-19.58 17.66c-1.884 0-3.43-1.76-3.43-3.902 0-2.142 1.513-3.905 3.43-3.905 1.918 0 3.463 1.76 3.43 3.905.003 2.142-1.512 3.901-3.43 3.901zm12.675 0c-1.884 0-3.43-1.76-3.43-3.902 0-2.142 1.513-3.905 3.43-3.905 1.918 0 3.463 1.76 3.43 3.905 0 2.142-1.512 3.901-3.43 3.901z"/></svg><svg viewBox="0 0 40 40" id="sc-telegram" xmlns="http://www.w3.org/2000/svg"><path d="M16.286 30.988l.466-6.993 12.783-11.438c.566-.513-.116-.76-.865-.315l-15.78 9.902-6.824-2.149c-1.465-.413-1.481-1.422.333-2.149L32.981 7.664c1.215-.546 2.38.297 1.914 2.149l-4.527 21.174c-.317 1.505-1.232 1.868-2.497 1.174l-6.891-5.058-3.313 3.19c-.382.38-.699.695-1.381.695z"/></svg><svg viewBox="0 0 40 40" id="sc-twitter" xmlns="http://www.w3.org/2000/svg"><path d="M37.5 9.294a14.51 14.51 0 01-4.116 1.137 7.1 7.1 0 003.146-3.92 14.594 14.594 0 01-4.551 1.729C30.657 6.824 28.8 6 26.692 6c-3.931 0-7.144 3.162-7.144 7.066 0 .56.067 1.103.184 1.614a20.51 20.51 0 01-14.79-7.379 6.908 6.908 0 00-.97 3.541 6.926 6.926 0 003.196 5.864c-1.188 0-2.292-.33-3.263-.824v.05c0 3.426 2.476 6.292 5.756 6.934a7.166 7.166 0 01-3.23.115 7.147 7.147 0 006.693 4.908C10.68 29.8 7.586 30.92 4.206 30.92c-.568 0-1.137-.033-1.706-.099A20.551 20.551 0 0013.509 34c13.183 0 20.427-10.772 20.427-20.11 0-.314 0-.61-.016-.923a14.218 14.218 0 003.58-3.673z"/></svg></svg>