<svg width="40" height="40" viewBox="0 0 40 40" xmlns="http://www.w3.org/2000/svg"><path d="M33.242 7.70712C30.7724 6.55167 28.1318 5.71193 25.3712 5.23378C25.0321 5.84675 24.636 6.67122 24.3629 7.32707C21.4283 6.88574 18.5206 6.88574 15.6399 7.32707C15.3669 6.67122 14.9618 5.84675 14.6197 5.23378C11.8561 5.71193 9.21247 6.55475 6.7429 7.71323C1.76176 15.2404 0.411453 22.5806 1.08661 29.8166C4.39036 32.2837 7.5921 33.7825 10.7398 34.7632C11.517 33.6936 12.2101 32.5565 12.8073 31.3582C11.67 30.926 10.5808 30.3928 9.55157 29.7737C9.82461 29.5714 10.0917 29.3599 10.3497 29.1423C16.6271 32.0784 23.4477 32.0784 29.6501 29.1423C29.9112 29.3599 30.1782 29.5714 30.4483 29.7737C29.4161 30.3958 28.3238 30.9291 27.1866 31.3613C27.7837 32.5565 28.4739 33.6966 29.254 34.7662C32.4048 33.7855 35.6095 32.2868 38.9133 29.8166C39.7054 21.4282 37.56 14.1554 33.242 7.70712ZM13.6625 25.3665C11.7781 25.3665 10.2327 23.6073 10.2327 21.465C10.2327 19.3227 11.7451 17.5604 13.6625 17.5604C15.5799 17.5604 17.1253 19.3196 17.0923 21.465C17.0953 23.6073 15.5799 25.3665 13.6625 25.3665ZM26.3374 25.3665C24.453 25.3665 22.9076 23.6073 22.9076 21.465C22.9076 19.3227 24.4199 17.5604 26.3374 17.5604C28.2548 17.5604 29.8002 19.3196 29.7672 21.465C29.7672 23.6073 28.2548 25.3665 26.3374 25.3665Z"/></svg>