<svg width="40" height="40" viewBox="0 0 40 40" xmlns="http://www.w3.org/2000/svg"><path d="M37.5 9.29412C36.2118 9.87059 34.8231 10.2494 33.3843 10.4306C34.8566 9.55765 35.9943 8.17412 36.5296 6.51059C35.141 7.33412 33.6018 7.91059 31.979 8.24C30.6573 6.82353 28.8002 6 26.6922 6C22.7605 6 19.5483 9.16235 19.5483 13.0659C19.5483 13.6259 19.6152 14.1694 19.7323 14.68C13.7763 14.3835 8.47275 11.5671 4.94264 7.30118C4.32361 8.33882 3.97228 9.55765 3.97228 10.8424C3.97228 13.2965 5.22706 15.4706 7.16778 16.7059C5.97992 16.7059 4.87572 16.3765 3.90535 15.8824C3.90535 15.8824 3.90535 15.8824 3.90535 15.9318C3.90535 19.3576 6.38145 22.2235 9.66061 22.8659C9.05832 23.0306 8.42256 23.1129 7.77008 23.1129C7.31836 23.1129 6.86664 23.0635 6.43165 22.9812C7.33509 25.7647 9.96176 27.84 13.1238 27.8894C10.6812 29.8 7.58604 30.92 4.2065 30.92C3.63767 30.92 3.06883 30.8871 2.5 30.8212C5.67878 32.8306 9.45985 34 13.5086 34C26.6922 34 33.9364 23.2282 33.9364 13.8894C33.9364 13.5765 33.9364 13.28 33.9197 12.9671C35.3251 11.9788 36.5296 10.7271 37.5 9.29412Z"/></svg>