<svg width="90" height="70" viewBox="0 0 90 70" fill="none" xmlns="http://www.w3.org/2000/svg">
<path d="M11.7724 35.5945L11.3894 40.5435L14.897 44.0556L9.94811 43.6727L6.43593 47.1803L6.81891 42.2313L3.3113 38.7191L8.26024 39.1021L11.7724 35.5945Z" fill="white"/>
<g clip-path="url(#clip0_18_60)">
<path d="M28.284 13.238L42.5511 57.2094L84.1282 36.9548L28.284 13.238Z" fill="#3EA1FB"/>
<path d="M44.8578 20.277L42.5511 57.2095L67.5543 29.9161L44.8578 20.277Z" fill="#93D8FF"/>
<path d="M42.551 57.2094L44.8578 20.2769L28.284 13.238L42.551 57.2094Z" fill="#7BC3F5"/>
<path d="M41.8851 4.48198L28.284 13.2381L84.1282 36.9549L80.9561 21.0753L41.8851 4.48198Z" fill="#69C1FF"/>
<path opacity="0.3" d="M67.5543 29.916L61.4206 12.7786L44.8578 20.2769L67.5543 29.916Z" fill="#93D8FF"/>
<path d="M80.9561 21.0753L67.5543 29.916L84.1282 36.9549L80.9561 21.0753Z" fill="#93D8FF"/>
<path d="M41.8851 4.48198L44.8578 20.2769L28.284 13.2381L41.8851 4.48198Z" fill="#93D8FF"/>
</g>
<defs>
<clipPath id="clip0_18_60">
<rect width="60.6717" height="48.2717" fill="white" transform="translate(33.5128 0.92627) rotate(23.0107)"/>
</clipPath>
</defs>
</svg>
