<svg width="256" height="300" viewBox="0 0 256 300" fill="none" xmlns="http://www.w3.org/2000/svg">
<path d="M156.38 244.439C152.03 244.439 148.376 243.398 145.592 241.49C142.634 239.408 139.328 235.243 139.85 226.915C140.372 215.116 144.722 206.961 151.856 203.838C152.9 203.317 153.944 202.97 154.988 202.797C156.206 202.45 157.424 202.103 158.294 201.582C161.078 200.02 162.47 196.55 163.862 193.08C165.254 189.61 166.646 186.14 169.604 183.363C172.388 180.587 176.39 179.373 180.74 179.72C185.786 180.067 190.658 182.496 193.79 186.487C198.662 192.559 200.054 201.235 197.792 210.778C194.486 224.659 183.698 236.631 169.952 242.01C165.08 243.398 160.382 244.439 156.38 244.439ZM179.522 184.404C176.912 184.404 174.65 185.272 173.084 186.834C170.996 188.742 169.778 191.692 168.56 194.642C166.82 198.806 165.08 203.144 160.73 205.746C159.338 206.614 157.772 207.134 156.38 207.481C155.51 207.828 154.64 208.002 153.77 208.349C146.636 211.472 145.244 221.362 144.896 226.915C144.722 231.773 145.94 235.07 148.55 236.978C153.248 240.449 161.774 238.887 168.038 236.458C180.218 231.599 189.788 221.015 192.746 208.87C194.66 201.062 193.442 193.774 189.788 189.089C187.526 186.313 184.046 184.578 180.392 184.404C180.044 184.404 179.696 184.404 179.522 184.404Z" fill="#F89422"/>
<path d="M146.984 257.973C143.33 257.973 139.676 257.626 136.196 256.759C129.41 255.197 123.668 250.686 120.015 243.919C115.491 235.417 114.795 224.659 118.101 215.636C122.102 204.879 131.846 195.509 144.548 190.13C145.592 189.61 146.636 189.263 147.68 188.916C151.508 187.354 155.162 185.966 157.772 183.537C159.338 181.975 160.73 180.067 162.122 178.158C162.644 177.29 163.34 176.596 163.862 175.729C169.43 168.094 179.696 160.46 191.354 162.021C199.01 163.063 206.318 168.094 210.493 175.555C214.147 181.802 215.713 189.61 215.191 198.112C214.147 213.207 206.666 228.129 194.486 238.887C183.524 248.951 164.906 257.973 146.984 257.973ZM188.57 167.053C180.044 167.053 172.562 172.953 168.212 178.852C167.69 179.546 167.168 180.414 166.646 181.108C165.08 183.19 163.688 185.445 161.6 187.354C158.12 190.477 153.944 192.212 149.768 193.774C148.724 194.121 147.68 194.642 146.636 194.989C135.326 199.847 126.626 208.002 123.146 217.545C120.363 225.006 120.885 234.549 124.712 241.49C126.8 245.307 130.628 250.165 137.414 251.727C156.554 256.065 178.652 246.174 191.18 235.07C202.316 225.18 209.276 211.646 210.146 197.765C210.494 192.559 210.145 184.925 206.144 178.158C202.664 172.259 196.748 168.094 190.832 167.227C190.136 167.053 189.266 167.053 188.57 167.053Z" fill="#F89422"/>
<path d="M133.586 277.233C119.319 277.233 109.053 273.069 102.789 264.914C91.6533 250.339 92.5233 229.691 98.4393 215.636C106.269 196.377 122.624 183.884 134.804 176.77C137.762 175.035 140.72 173.473 143.504 171.912C147.332 169.829 151.334 167.747 155.162 165.318C158.294 163.41 161.426 161.154 164.384 159.072C174.824 151.611 185.612 143.976 198.662 144.15C208.406 144.323 218.149 149.355 224.935 157.51C230.851 164.624 234.505 174.167 235.723 184.751C237.985 206.787 228.763 230.038 210.841 247.042C195.53 261.617 174.128 271.507 149.42 275.671C143.678 276.886 138.458 277.233 133.586 277.233ZM198.14 149.355C187.004 149.355 177.434 156.122 167.342 163.236C164.21 165.492 161.078 167.747 157.946 169.656C154.118 172.085 149.942 174.341 146.114 176.423C143.33 177.984 140.372 179.546 137.588 181.108C126.104 187.875 110.793 199.673 103.485 217.372C98.2653 230.038 97.3953 248.777 107.139 261.617C114.273 270.987 128.366 273.936 148.724 270.64C172.388 266.822 192.746 257.279 207.362 243.398C224.065 227.435 232.765 205.746 230.677 185.272C229.633 175.555 226.327 167.227 221.107 160.807C215.191 153.693 206.84 149.529 198.662 149.355C198.488 149.355 198.314 149.355 198.14 149.355Z" fill="#F89422"/>
<path d="M133.412 299.616C129.584 299.616 126.104 299.442 122.624 298.922C108.531 296.84 96.8733 290.073 89.0433 278.968C78.9513 264.914 75.2973 244.786 79.1253 224.139C82.4313 205.226 93.0453 187.528 108.183 175.555C115.665 169.656 124.19 164.971 132.542 160.633C135.152 159.245 137.762 157.857 140.372 156.296C143.852 154.387 147.332 152.305 150.638 150.396C159.686 145.017 169.082 139.465 179.174 135.648C195.53 129.401 211.189 129.054 223.543 134.607C234.679 139.639 243.901 149.702 249.643 163.063C260.953 189.61 255.907 223.271 236.767 248.951C220.237 271.16 193.616 287.644 161.774 295.799C151.334 298.401 141.938 299.616 133.412 299.616ZM123.32 293.717C134.108 295.278 146.114 294.237 160.382 290.593C191.006 282.959 216.583 266.996 232.417 245.827C250.513 221.709 255.385 189.957 244.771 165.145C239.551 152.999 231.199 143.803 221.281 139.292C210.145 134.26 195.878 134.607 180.914 140.333C171.17 143.976 162.122 149.529 153.248 154.734C149.942 156.816 146.462 158.725 142.982 160.807C140.372 162.195 137.762 163.757 135.152 165.145C127.148 169.482 118.797 173.994 111.663 179.546C97.2213 190.824 87.3033 207.481 83.9973 225.18C80.5173 244.266 83.8233 263.179 93.0453 276.018C100.353 285.909 110.445 291.981 123.32 293.717Z" fill="#F89422"/>
<path d="M176.322 218.185L110.621 92.3582L76.2908 110.732L176.322 218.185Z" fill="#1D471B"/>
<path d="M0 104.501L116.715 135.474L131.156 15.5319L0 104.501Z" fill="#3EA1FB"/>
<path d="M38.9255 78.0958L116.715 135.474L92.2303 41.9366L38.9255 78.0958Z" fill="#93D8FF"/>
<path d="M116.715 135.474L38.9255 78.0959L0 104.501L116.715 135.474Z" fill="#7BC3F5"/>
<path d="M0.0487003 62.2465L0 104.501L131.156 15.5318L91.8113 0.00012207L0.0487003 62.2465Z" fill="#69C1FF"/>
<path opacity="0.3" d="M92.2303 41.9366L45.93 31.1232L38.9255 78.0958L92.2303 41.9366Z" fill="#93D8FF"/>
<path d="M91.8113 0L92.2303 41.9366L131.156 15.5318L91.8113 0Z" fill="#93D8FF"/>
<path d="M0.0487003 62.2465L38.9255 78.0959L0 104.501L0.0487003 62.2465Z" fill="#93D8FF"/>
<path fill-rule="evenodd" clip-rule="evenodd" d="M153.827 154.13L139.953 130.297L140.817 129.794L154.691 153.627L153.827 154.13Z" fill="#1D471B"/>
<path fill-rule="evenodd" clip-rule="evenodd" d="M134.757 188.231L117.002 167.13L117.768 166.486L135.522 187.588L134.757 188.231Z" fill="#1D471B"/>
<path fill-rule="evenodd" clip-rule="evenodd" d="M160.831 153.136L154.957 143.374L155.813 142.858L161.688 152.621L160.831 153.136Z" fill="#1D471B"/>
<path fill-rule="evenodd" clip-rule="evenodd" d="M133.488 195.913L126.008 187.319L126.762 186.662L134.242 195.256L133.488 195.913Z" fill="#1D471B"/>
</svg>
