<svg width="146" height="87" viewBox="0 0 146 87" fill="none" xmlns="http://www.w3.org/2000/svg">
<path d="M3.04602 51.7191C0.846615 57.1221 -0.156784 62.8631 0.0198159 68.7651C0.100016 71.6261 0.939816 74.9561 3.63902 76.0521C6.51592 77.1311 9.36121 74.8961 11.5922 72.8071C19.1099 65.7471 26.8214 58.8491 34.6461 52.2091C36.8124 50.3951 39.69 48.5151 42.0657 50.0001C43.294 50.6931 43.8595 51.9861 44.4249 53.2791C47.1392 59.4841 49.9503 65.7691 52.6645 71.9741C54.2478 75.5941 56.7846 79.8431 60.7772 79.3841C62.733 79.2041 64.2204 77.8111 65.6269 76.5161C69.3453 73.0341 72.7728 69.3111 75.9905 65.2481C79.1105 61.1051 82.1985 56.6061 86.9355 54.4651C87.8895 54.1081 89.0205 53.7341 89.9585 54.1861C90.9765 54.5401 91.6225 55.7361 92.1555 56.6731C95.0965 62.4091 98.0375 68.1441 100.978 73.8801C103.596 79.0181 106.795 84.6401 112.226 86.2011C116.557 87.5051 121.326 85.7201 124.915 82.7881C128.504 79.8571 130.929 75.9571 133.274 72.1541C137.106 65.9721 141.019 59.6941 143.267 52.8511C144.545 49.1471 137.013 47.1521 133.036 47.7881C129.238 48.4081 126.085 51.2101 123.482 54.1401C120.976 57.1501 118.761 60.4031 115.673 62.9301C115.091 63.4321 114.412 63.8531 113.701 63.9191C111.826 64.0021 110.534 61.6111 109.904 59.6071C108.563 55.6961 107.125 51.7051 104.75 48.2481C102.374 44.7911 98.9805 41.9663 95.0365 40.9855C89.0885 39.6517 82.9935 42.6351 78.4185 46.5541C73.8435 50.4731 69.9956 55.4911 65.1134 58.9901C64.6122 59.3951 63.9332 59.8161 63.2059 59.7041C62.4785 59.5921 62.1554 58.9941 61.7514 58.4931C58.2449 53.4371 54.6576 48.4791 51.0542 43.3421C49.713 41.4037 48.2749 39.3846 46.19 38.1425C41.4546 35.3519 35.3766 37.5269 30.8016 40.4597C25.4507 43.7331 20.73 48.0241 16.688 52.8801C16.1221 53.5601 15.5563 54.2401 14.7803 54.5811C13.3901 55.0681 11.8548 53.9541 11.0307 52.7751C10.2066 51.5961 9.44721 50.1421 8.20281 49.2701C6.78061 48.4151 3.72522 50.3111 3.04602 51.7191Z" fill="#545FF5"/>
<path d="M5.33289 14.6576C3.13349 20.0609 2.13019 25.8021 2.30669 31.7033C2.38689 34.565 3.22679 37.8946 5.92589 38.9903C8.80279 40.0697 11.6481 37.8345 13.8791 35.7457C21.3968 28.6858 29.1084 21.7874 36.933 15.1475C39.0993 13.3337 41.9769 11.4542 44.3527 12.9384C45.581 13.6319 46.1464 14.9246 46.7119 16.2173C49.4261 22.4223 52.2372 28.708 54.9515 34.9129C56.5347 38.5325 59.0716 42.7813 63.0641 42.3231C65.02 42.1425 66.5073 40.75 67.9138 39.4546C71.6322 35.9732 75.0595 32.2497 78.2775 28.187C81.3975 24.0436 84.4855 19.5444 89.2225 17.4037C90.1765 17.0467 91.3075 16.6732 92.2455 17.1246C93.2635 17.4789 93.9095 18.6745 94.4425 19.6116C97.3835 25.3473 100.323 31.0831 103.264 36.8188C105.882 41.9568 109.081 47.5791 114.511 49.1401C118.843 50.4431 123.612 48.6581 127.201 45.7271C130.709 42.8927 133.215 38.8956 135.56 35.0928C139.392 28.9111 143.305 22.6323 145.553 15.79C146.831 12.0856 139.299 10.0911 135.322 10.7272C131.524 11.3468 128.371 14.1483 125.768 17.0784C123.262 20.0892 121.047 23.3421 117.959 25.8687C117.377 26.3707 116.698 26.792 115.987 26.8577C113.95 27.1353 112.658 24.7442 111.85 22.7566C110.509 18.8456 109.071 14.854 106.696 11.3972C104.321 7.94052 100.927 5.11562 96.9835 4.13482C91.0355 2.80102 84.9415 5.78442 80.3665 9.70352C75.7915 13.6226 71.943 18.6401 67.0608 22.1393C66.5597 22.5442 65.8807 22.9655 65.1533 22.8533C64.426 22.7411 64.1028 22.1434 63.6989 21.6427C60.1924 16.5868 56.6051 11.628 53.0016 6.49142C51.6604 4.55302 50.2223 2.53392 48.1374 1.29182C43.402 -1.49878 37.324 0.676218 32.749 3.60902C27.3981 6.88242 22.6774 11.1736 18.6354 16.0297C18.0696 16.7096 17.5037 17.3894 16.7278 17.73C15.3376 18.217 13.8023 17.1035 12.9781 15.9243C12.154 14.7452 11.3946 13.291 10.1502 12.4197C8.90579 11.5483 5.83429 13.2664 5.33289 14.6576Z" fill="#545FF5"/>
</svg>
