<svg width="206" height="195" viewBox="0 0 206 195" fill="none" xmlns="http://www.w3.org/2000/svg">
<path d="M0 194.863L116.333 113.527L93.6965 81.8443L0 194.863Z" fill="#1D471B"/>
<path d="M90.0655 5.3856L74.3585 125.115L195.162 124.011L90.0655 5.3856Z" fill="#3EA1FB"/>
<path d="M121.257 40.5923L74.3585 125.115L163.97 88.8052L121.257 40.5923Z" fill="#93D8FF"/>
<path d="M74.3585 125.115L121.257 40.5923L90.0655 5.3856L74.3585 125.115Z" fill="#7BC3F5"/>
<path d="M131.975 0L90.0655 5.3856L195.162 124.011L205.505 82.9962L131.975 0Z" fill="#69C1FF"/>
<path opacity="0.3" d="M163.97 88.8052L168.74 41.4979L121.257 40.5922L163.97 88.8052Z" fill="#93D8FF"/>
<path d="M205.505 82.9962L163.97 88.8052L195.162 124.011L205.505 82.9962Z" fill="#93D8FF"/>
<path d="M131.975 0L121.257 40.5922L90.0655 5.3856L131.975 0Z" fill="#93D8FF"/>
<path fill-rule="evenodd" clip-rule="evenodd" d="M60.6305 164.318L82.4805 147.494L83.0905 148.286L61.2405 165.11L60.6305 164.318Z" fill="#1D471B"/>
<path fill-rule="evenodd" clip-rule="evenodd" d="M24.3594 149.791L43.0028 129.471L43.7397 130.147L25.0963 150.467L24.3594 149.791Z" fill="#1D471B"/>
<path fill-rule="evenodd" clip-rule="evenodd" d="M62.5165 171.135L71.4425 164.055L72.0635 164.838L63.1375 171.919L62.5165 171.135Z" fill="#1D471B"/>
<path fill-rule="evenodd" clip-rule="evenodd" d="M16.5785 149.521L24.1393 140.998L24.8874 141.661L17.3266 150.184L16.5785 149.521Z" fill="#1D471B"/>
</svg>
