<svg width="216" height="200" viewBox="0 0 216 200" fill="none" xmlns="http://www.w3.org/2000/svg">
<path d="M198.017 118.122C197.494 120.416 196.754 122.846 196.014 125.277C187.747 150.125 166.5 170.898 140.873 179.16C128.846 183.099 116.541 184.191 105.056 182.498C84.8125 179.364 64.8037 166.258 50.3245 146.802C39.9915 132.748 33.4914 117.34 31.9125 102.313C30.5555 89.5645 32.1803 76.7535 37.1146 64.8834C41.7518 53.5024 48.7668 44.7063 57.2532 39.2164C64.6164 34.5841 73.7731 31.8464 85.8615 30.8916C112.139 28.7186 136.267 35.1525 153.878 49.0109C173.988 64.9247 184.036 90.796 178.841 113.561L178.801 113.737C176.586 123.443 171.349 133.387 163.564 143.122C155.778 152.856 142.916 165.331 125.751 169.026C113.436 171.786 99.6195 169.747 86.9456 163.513C76.1304 158.075 66.1761 149.677 57.0827 138.319C50.8709 130.589 46.4624 123.085 43.7211 115.59C37.5029 98.9474 39.0865 79.8146 47.9842 64.3931C52.345 56.6622 58.1465 50.7454 64.6587 47.4042C71.8206 43.6544 79.8292 42.6969 87.5406 42.2286C96.5667 41.689 107.315 41.7281 117.476 45.1604C126.89 48.6082 135.932 55.3129 145.091 65.5717C153.081 74.4499 158.17 83.0373 160.67 91.591C167.019 112.534 158.561 136.596 140.304 149.139C122.521 161.234 96.8075 160.936 79.0906 148.353C61.5098 135.987 52.4294 112.379 56.9089 91.122C58.4641 83.4936 61.4851 76.7567 65.811 71.617C75.3138 60.0467 92.2321 54.9955 107.626 59.065C121.473 62.596 134.062 73.2662 141.413 87.3826C144.612 93.6824 146.305 99.2672 146.332 104.843C146.57 114.366 141.902 124.255 134.056 131.004C126.899 137.169 117.405 140.572 107.971 140.462C101.519 140.289 95.0359 138.624 88.3464 135.427C80.0147 131.298 74.0249 125.847 71.4348 119.315C67.2375 109.26 70.9126 98.0306 74.5529 89.3927C76.4814 85.0056 78.7472 79.9529 82.6149 76.0083C89.323 69.37 100.515 67.468 109.416 71.5412C118.004 75.3576 124.151 84.1864 125.094 93.8702C126.133 103.947 120.992 114.285 112.748 118.716C103.717 123.339 91.3762 120.523 86.0307 112.248C83.4058 108.308 82.3775 103.06 82.84 97.7817C83.4234 91.9737 86.0418 87.0015 89.8039 84.3324C93.3495 81.7996 98.2957 81.2573 102.935 82.8729C107.574 84.4884 110.849 88.0205 112.078 92.3856C113.172 96.5339 112.206 100.769 109.542 103.503C106.364 106.863 101.201 107.541 97.5087 105.028C95.5945 103.663 94.2744 101.319 94.1329 98.6876C94.1275 96.2728 95.0036 94.0591 96.6001 92.7525C97.7634 91.7184 99.3904 91.9039 100.423 93.0679C101.456 94.2318 101.27 95.8603 100.106 96.8944C99.633 97.3434 99.4317 98.2257 99.5677 98.4424C99.5427 99.365 99.9508 100.015 100.575 100.529C101.865 101.38 104.142 101.157 105.386 99.77C106.806 98.4231 107.193 95.9123 106.578 93.7298C105.868 91.1541 103.762 89.0026 100.845 87.9658C97.9289 86.929 94.9068 87.1677 92.8772 88.7468C90.2381 90.5582 88.511 94.0629 88.0735 98.4189C87.6762 102.598 88.4576 106.49 90.4023 109.347C94.2514 115.238 103.459 117.154 110.188 113.676C116.564 110.118 120.613 102.131 119.836 94.1556C119.154 86.5738 114.136 79.3021 107.407 76.2813C100.501 73.2202 91.8423 74.5863 86.5947 79.7013C83.4572 82.8842 81.3927 87.0546 79.6808 91.3054C76.4987 98.7483 73.322 108.606 76.6477 116.791C79.414 123.363 85.8619 127.62 90.869 130.062C96.8936 132.922 102.671 134.426 108.202 134.574C116.321 134.755 124.42 131.776 130.63 126.51C137.313 120.794 141.225 112.589 141.018 104.559C140.966 99.9055 139.505 94.9306 136.673 89.4574C130.138 76.6411 118.758 67.1751 106.322 63.9659C92.8273 60.5154 78.1302 64.7738 69.9116 74.7806C66.2757 79.335 63.4559 85.1896 62.1021 91.9357C58.2419 111.292 66.5713 132.501 82.3739 143.718C98.3528 154.977 121.437 155.417 137.271 144.549C153.322 133.544 161.121 111.559 155.482 93.1921C152.997 85.3846 148.317 77.4472 140.911 69.2594C132.337 59.6909 124.095 53.5402 115.305 50.6062C106.027 47.3751 95.9834 47.4969 87.5264 47.9807C80.3842 48.3933 73.1613 49.1587 66.8254 52.5401C61.3155 55.5529 56.2442 60.7081 52.3013 67.4204C44.2546 81.5509 42.8974 98.8787 48.516 114.085C51.0255 120.97 55.2022 127.864 61.1017 135.337C69.6107 146.005 79.1167 153.929 89.2669 159.03C100.923 164.846 113.329 166.563 124.642 164.131C140.276 160.644 152.192 149.067 159.423 140.135C166.695 131.026 171.554 121.923 173.608 112.923L173.648 112.747C178.359 92.1 169.103 68.4515 150.554 53.8223C134.056 40.7748 111.163 34.6226 86.3762 36.7645C75.2095 37.7439 66.8788 40.1132 60.1653 44.3367C50.5962 50.5078 45.047 60.1954 42.0814 67.502C37.5248 78.53 35.925 90.4184 37.307 102.245C38.911 116.349 44.867 130.89 54.8321 144.118C68.3591 162.057 86.902 174.271 105.912 177.124C116.474 178.791 128.034 177.716 139.236 174.145C163.291 166.267 183.118 146.841 190.846 123.54C198.951 99.3979 193.522 71.9813 177.351 53.4386C167.199 41.8394 152.107 33.1973 135.087 28.9422C120.358 25.2101 103.983 24.6298 85.0802 27.0002C69.6322 28.8593 58.0781 32.3496 49.0226 37.8953C37.4489 44.7229 29.6383 55.3798 27.6707 66.4416C27.3485 67.8534 26.0089 68.8473 24.5582 68.7019C23.1478 68.3801 22.1553 67.0397 22.3012 65.5877C24.4147 53.0739 33.3331 40.8133 46.0299 33.1279C55.9114 27.2138 68.075 23.4912 84.3086 21.44C103.781 19.0139 120.861 19.7551 136.335 23.4717C154.766 28.0486 170.306 37.1643 181.354 49.7108C197.214 67.9965 203.494 94.122 198.017 118.122Z" fill="white"/>
</svg>
