<svg width="164" height="176" viewBox="0 0 164 176" fill="none" xmlns="http://www.w3.org/2000/svg">
<path d="M45.4128 115.562C33.9498 126.163 22.5883 138.276 18.9663 153.451C17.7553 158.08 17.5752 163.325 19.8395 167.578C22.781 172.849 29.2676 175.386 35.1575 175.84C48.6347 177.092 61.6044 170.792 73.0987 164.056C87.0783 155.795 100.289 146.293 113.409 136.57C131.095 123.442 149.083 109.158 159.493 89.6742C163.754 81.738 166.387 71.101 160.889 64.0236C148.72 48.2764 118.65 62.8125 105.964 71.0663C85.2986 85.145 64.2689 98.3383 45.4128 115.562Z" fill="#FFB3B9"/>
<path d="M25.7059 61.2414C18.5351 67.7731 11.5971 75.5033 9.26648 84.9826C8.62083 87.831 8.47035 91.2539 9.78445 93.824C11.6848 97.1894 15.6657 98.676 19.4138 98.9652C27.7588 99.714 36.0214 95.8424 43.1221 91.6669C51.9098 86.5474 60.1112 80.6317 68.4438 74.404C79.615 66.2482 90.7343 57.3374 97.3681 45.0762C100.003 40.1274 101.688 33.4956 98.2624 28.939C90.6019 19.1195 71.814 28.299 64.006 33.2791C50.8351 42.2468 37.6134 50.4593 25.7059 61.2414Z" fill="#2FA12C"/>
<path d="M10.6309 22.625C6.11631 26.7853 1.78379 31.3889 0.361227 37.3969C-0.203953 39.1779 -0.142708 41.2218 0.807493 42.9048C1.93965 45.031 4.35444 45.8608 6.80946 46.157C12.1639 46.5691 17.1842 44.2723 21.8001 41.6224C27.2141 38.3899 32.4461 34.7142 37.5871 30.8168C44.5461 25.6641 51.6363 20.1995 55.5437 12.6655C57.0783 9.45649 58.0266 5.45116 55.8637 2.70891C51.0429 -3.35024 39.3157 2.18686 34.4372 5.46047C26.276 10.8427 18.0238 16.0032 10.6309 22.625Z" fill="#F89422"/>
</svg>
